<svg width="865" height="62" viewBox="0 0 865 62" fill="none" xmlns="http://www.w3.org/2000/svg">
<path d="M38.521 35.2251C38.521 37.9111 37.797 40.0934 36.349 41.7721C34.901 43.4508 32.96 44.6888 30.526 45.4861C28.092 46.2861 25.406 46.6861 22.468 46.6861H0.499023V1.9841H26.435C28.5337 1.9841 30.3487 2.5401 31.88 3.6521C33.4114 4.7641 34.5864 6.20143 35.405 7.9641C36.2237 9.72676 36.633 11.5524 36.633 13.4411C36.633 15.4978 36.098 17.4911 35.028 19.4211C33.958 21.3511 32.3527 22.7991 30.212 23.7651C32.772 24.5204 34.797 25.8424 36.287 27.7311C37.777 29.6198 38.5217 32.1178 38.521 35.2251ZM26.061 32.7041C26.061 31.9488 25.9247 31.2878 25.652 30.7211C25.3794 30.1544 25.0127 29.7034 24.552 29.3681C24.0907 29.0348 23.545 28.8681 22.915 28.8681H12.774V36.3551H22.468C23.1394 36.3551 23.748 36.2081 24.294 35.9141C24.84 35.6201 25.27 35.2004 25.584 34.6551C25.902 34.1098 26.061 33.4594 26.061 32.7041ZM12.774 12.4341V19.2951H21.146C21.6914 19.2951 22.216 19.2008 22.72 19.0121C23.224 18.8234 23.6437 18.4771 23.979 17.9731C24.3124 17.4698 24.479 16.7564 24.479 15.8331C24.479 14.9938 24.3427 14.3328 24.07 13.8501C23.7974 13.3674 23.4407 13.0108 23 12.7801C22.5594 12.5494 22.0664 12.4341 21.521 12.4341H12.774ZM43.116 46.6791V13.5671H55.077V46.6791H43.116ZM43.116 10.7971V0.725098H55.077V10.7971H43.116ZM83.594 23.7651C81.286 23.7651 79.186 24.0168 77.294 24.5201C75.402 25.0234 73.9977 25.8628 73.081 27.0381V46.6791H61.12V14.0071H72.074V19.8611C73.2494 17.6371 74.7184 15.9271 76.481 14.7311C78.2437 13.5351 80.1104 12.9371 82.081 12.9371C82.5424 12.9371 82.8677 12.9371 83.057 12.9371C83.2464 12.9371 83.4247 12.9581 83.592 13.0001L83.594 23.7651ZM110.537 44.7901C109.446 45.2514 108.281 45.6814 107.043 46.0801C106.734 46.1801 106.423 46.2738 106.111 46.3611C105.799 46.4484 105.486 46.5304 105.171 46.6071C104.856 46.6831 104.54 46.7531 104.223 46.8171C103.906 46.8811 103.587 46.9394 103.267 46.9921C101.987 47.2021 100.738 47.3071 99.521 47.3071C97.7164 47.3071 96.0587 47.0091 94.548 46.4131C93.0374 45.8171 91.8307 44.8304 90.928 43.4531C90.026 42.0758 89.575 40.2154 89.575 37.8721V23.0091H85.482V14.0091H89.574V3.6251H101.535V14.0071H108.019V23.0071H101.535V33.5661C101.535 34.6181 101.766 35.3564 102.227 35.7811C102.688 36.2058 103.318 36.4181 104.116 36.4181C104.703 36.4181 105.375 36.3131 106.13 36.1031C106.885 35.8931 107.641 35.6414 108.396 35.3481L110.537 44.7901ZM147.237 46.6791H135.276V28.4991C135.276 26.8991 134.909 25.7424 134.176 25.0291C133.443 24.3158 132.53 23.9574 131.438 23.9541C130.935 23.9541 130.316 24.1328 129.581 24.4901C128.846 24.8474 128.143 25.3634 127.472 26.0381C126.801 26.7128 126.276 27.5068 125.898 28.4201V46.6791H113.936V0.725098H125.897V18.9501C127.072 17.1754 128.615 15.8241 130.524 14.8961C132.433 13.9681 134.542 13.5041 136.851 13.5041C139.201 13.5041 141.068 13.8858 142.451 14.6491C143.834 15.4124 144.863 16.3924 145.536 17.5891C146.207 18.7891 146.658 20.0684 146.889 21.4271C147.12 22.7858 147.235 24.0651 147.235 25.2651L147.237 46.6791ZM151.261 30.3441C151.261 27.1248 151.88 24.2458 153.118 21.7071C154.356 19.1684 156.066 17.1668 158.248 15.7021C160.43 14.2354 162.927 13.5021 165.739 13.5021C167.879 13.5021 169.851 13.9951 171.656 14.9811C173.461 15.9671 174.825 17.3204 175.748 19.0411V0.725098H187.709V33.4591C187.709 34.5924 187.876 35.3794 188.209 35.8201C188.542 36.2608 189.13 36.5231 189.972 36.6071V46.6791C187.915 47.0991 186.237 47.3091 184.936 47.3091C182.921 47.3091 181.327 46.9314 180.152 46.1761C178.977 45.4208 178.222 44.2668 177.886 42.7141L177.634 41.5141C176.501 43.5288 174.967 44.9978 173.034 45.9211C171.101 46.8444 169.044 47.3061 166.865 47.3061C164.598 47.3061 162.51 46.8934 160.601 46.0681C158.692 45.2428 157.034 44.0761 155.628 42.5681C154.222 41.0614 153.141 39.2661 152.386 37.1821C151.631 35.0981 151.256 32.8188 151.261 30.3441ZM175.812 33.9731V28.2901C175.434 27.3634 174.92 26.5474 174.27 25.8421C173.62 25.1368 172.896 24.5828 172.098 24.1801C171.298 23.7801 170.48 23.5801 169.643 23.5801C168.762 23.5801 167.954 23.7614 167.219 24.1241C166.484 24.4868 165.844 24.9904 165.299 25.6351C164.754 26.2798 164.334 27.0254 164.04 27.8721C163.746 28.7188 163.599 29.6251 163.599 30.5911C163.599 31.5991 163.756 32.5061 164.071 33.3121C164.386 34.1181 164.837 34.8131 165.424 35.3971C166.011 35.9811 166.704 36.4344 167.501 36.7571C168.298 37.0798 169.18 37.2408 170.145 37.2401C170.732 37.2401 171.278 37.1698 171.782 37.0291C172.286 36.8884 172.769 36.6884 173.23 36.4291C173.691 36.1671 174.142 35.8244 174.583 35.4011C175.024 34.9778 175.435 34.5018 175.816 33.9731H175.812ZM193.06 36.8531C193.06 34.6671 193.669 32.7388 194.886 31.0681C196.103 29.3974 197.793 28.0878 199.954 27.1391C202.115 26.1904 204.582 25.7161 207.354 25.7161C208.655 25.7161 209.882 25.8211 211.037 26.0311C212.192 26.2411 213.188 26.5558 214.027 26.9751V25.9681C214.027 24.4754 213.576 23.3678 212.674 22.6451C211.772 21.9224 210.314 21.5611 208.299 21.5611C206.452 21.5611 204.721 21.8654 203.106 22.4741C201.491 23.0828 199.801 23.9744 198.038 25.1491L194.575 17.7251C196.799 16.2984 199.139 15.2388 201.594 14.5461C204.049 13.8534 206.683 13.5071 209.494 13.5071C214.74 13.5071 218.8 14.6644 221.675 16.9791C224.55 19.2938 225.987 22.7244 225.987 27.2711V33.5351C225.987 34.6404 226.154 35.4071 226.487 35.8351C226.82 36.2631 227.408 36.5191 228.25 36.6031V46.6791C227.285 46.8891 226.372 47.0464 225.512 47.1511C224.652 47.2558 223.885 47.3081 223.212 47.3081C221.072 47.3081 219.446 46.9198 218.333 46.1431C217.22 45.3664 216.496 44.2228 216.161 42.7121L215.909 41.5121C214.442 43.4008 212.742 44.8381 210.809 45.8241C208.876 46.8101 206.819 47.3031 204.64 47.3031C202.458 47.3031 200.486 46.8494 198.723 45.9421C196.96 45.0348 195.575 43.7871 194.568 42.1991C193.563 40.6164 193.061 38.8344 193.061 36.8531H193.06ZM212.449 37.5531C212.91 37.2358 213.288 36.8884 213.582 36.5111C213.876 36.1338 214.023 35.7468 214.023 35.3501V33.0331C213.352 32.7951 212.585 32.5951 211.723 32.4331C210.861 32.2711 210.094 32.1918 209.423 32.1951C207.996 32.1951 206.79 32.5324 205.803 33.2071C204.816 33.8818 204.323 34.7351 204.324 35.7671C204.324 36.3224 204.491 36.8281 204.824 37.2841C205.157 37.7401 205.619 38.0971 206.209 38.3551C206.796 38.6131 207.468 38.7421 208.223 38.7421C208.936 38.7421 209.681 38.6328 210.458 38.4141C211.235 38.1954 211.9 37.9098 212.453 37.5571L212.449 37.5531ZM230.835 50.0151C231.8 50.3484 232.692 50.6108 233.51 50.8021C234.328 50.9934 235.073 51.0878 235.745 51.0851C236.626 51.0851 237.36 50.9278 237.945 50.6131C238.53 50.2984 238.992 49.8174 239.33 49.1701C239.663 48.5228 239.873 47.7348 239.96 46.8061L227.936 14.0061H240.211L246.511 34.6461L251.611 14.0061H262.751L251.545 50.7351C250.916 52.8551 249.887 54.7154 248.46 56.3161C247.033 57.9168 245.333 59.1658 243.36 60.0631C241.387 60.9604 239.268 61.4091 237.002 61.4091C235.953 61.4091 234.914 61.3148 233.886 61.1261C232.858 60.9374 231.84 60.6331 230.833 60.2131L230.835 50.0151ZM279.561 46.6791V1.9841H298.821C301.003 1.9841 303.017 2.42476 304.864 3.3061C306.711 4.18743 308.305 5.3731 309.648 6.8631C310.991 8.3531 312.029 10.0198 312.764 11.8631C313.499 13.7064 313.865 15.5731 313.864 17.4631C313.864 20.1071 313.245 22.6041 312.007 24.9541C310.769 27.3041 309.048 29.2241 306.845 30.7141C304.645 32.2041 302.075 32.9491 299.134 32.9491H291.834V46.6791H279.561ZM291.836 22.2541H298.32C298.823 22.2541 299.306 22.1071 299.768 21.8131C300.23 21.5191 300.618 21.0154 300.933 20.3021C301.248 19.5888 301.405 18.6444 301.405 17.4691C301.405 16.2098 301.227 15.2341 300.87 14.5421C300.513 13.8501 300.073 13.3674 299.548 13.0941C299.023 12.8214 298.509 12.6851 298.006 12.6851H291.837L291.836 22.2541ZM315.636 36.8541C315.636 34.6681 316.245 32.7398 317.462 31.0691C318.679 29.3984 320.369 28.0888 322.53 27.1401C324.691 26.1914 327.158 25.7171 329.93 25.7171C331.231 25.7171 332.458 25.8221 333.613 26.0321C334.768 26.2421 335.764 26.5568 336.603 26.9761V25.9681C336.603 24.4754 336.152 23.3678 335.25 22.6451C334.348 21.9224 332.885 21.5614 330.861 21.5621C329.014 21.5621 327.283 21.8664 325.668 22.4751C324.053 23.0838 322.363 23.9754 320.6 25.1501L317.14 17.7251C319.364 16.2984 321.704 15.2388 324.159 14.5461C326.614 13.8534 329.248 13.5071 332.059 13.5071C337.305 13.5071 341.365 14.6644 344.24 16.9791C347.115 19.2938 348.552 22.7244 348.552 27.2711V33.5351C348.552 34.6404 348.719 35.4071 349.052 35.8351C349.385 36.2631 349.973 36.5191 350.815 36.6031V46.6791C349.85 46.8891 348.937 47.0464 348.077 47.1511C347.217 47.2558 346.45 47.3081 345.777 47.3081C343.637 47.3081 342.011 46.9198 340.898 46.1431C339.785 45.3664 339.061 44.2228 338.726 42.7121L338.474 41.5121C337.007 43.4008 335.307 44.8381 333.374 45.8241C331.441 46.8101 329.384 47.3031 327.205 47.3031C325.023 47.3031 323.051 46.8494 321.288 45.9421C319.525 45.0348 318.14 43.7871 317.133 42.1991C316.13 40.6164 315.629 38.8344 315.629 36.8531L315.636 36.8541ZM335.025 37.5541C335.486 37.2368 335.864 36.8894 336.158 36.5121C336.452 36.1348 336.599 35.7478 336.599 35.3511V33.0331C335.928 32.7951 335.161 32.5951 334.299 32.4331C333.437 32.2711 332.67 32.1918 331.999 32.1951C330.572 32.1951 329.366 32.5324 328.379 33.2071C327.392 33.8818 326.899 34.7351 326.9 35.7671C326.9 36.3224 327.067 36.8281 327.4 37.2841C327.733 37.7401 328.195 38.0971 328.785 38.3551C329.372 38.6131 330.044 38.7421 330.799 38.7421C331.512 38.7421 332.257 38.6328 333.034 38.4141C333.811 38.1954 334.472 37.9098 335.018 37.5571L335.025 37.5541ZM377.635 23.7651C375.327 23.7651 373.227 24.0168 371.335 24.5201C369.443 25.0234 368.037 25.8628 367.117 27.0381V46.6791H355.161V14.0071H366.114V19.8611C367.289 17.6371 368.758 15.9271 370.52 14.7311C372.282 13.5351 374.149 12.9371 376.12 12.9371C376.581 12.9371 376.907 12.9371 377.096 12.9371C377.285 12.9371 377.464 12.9581 377.631 13.0001L377.635 23.7651ZM404.578 44.7901C403.487 45.2514 402.322 45.6814 401.084 46.0801C400.775 46.1801 400.464 46.2738 400.152 46.3611C399.84 46.4484 399.527 46.5304 399.212 46.6071C398.897 46.6831 398.581 46.7531 398.264 46.8171C397.947 46.8811 397.628 46.9394 397.308 46.9921C396.028 47.2021 394.779 47.3071 393.562 47.3071C391.757 47.3071 390.1 47.0091 388.589 46.4131C387.078 45.8171 385.872 44.8304 384.969 43.4531C384.067 42.0758 383.616 40.2154 383.616 37.8721V23.0091H379.524V14.0091H383.616V3.6251H395.577V14.0071H402.061V23.0071H395.577V33.5661C395.577 34.6181 395.808 35.3564 396.269 35.7811C396.73 36.2058 397.36 36.4181 398.158 36.4181C398.745 36.4181 399.417 36.3131 400.172 36.1031C400.927 35.8931 401.683 35.6414 402.438 35.3481L404.578 44.7901ZM407.411 50.0151C408.376 50.3484 409.268 50.6108 410.086 50.8021C410.904 50.9934 411.649 51.0878 412.321 51.0851C413.202 51.0851 413.936 50.9278 414.521 50.6131C415.106 50.2984 415.568 49.8174 415.906 49.1701C416.239 48.5228 416.449 47.7348 416.536 46.8061L404.512 14.0061H416.787L423.087 34.6461L428.187 14.0061H439.329L428.122 50.7351C427.493 52.8551 426.464 54.7154 425.037 56.3161C423.61 57.9168 421.91 59.1658 419.937 60.0631C417.964 60.9604 415.845 61.4091 413.579 61.4091C412.53 61.4091 411.491 61.3148 410.463 61.1261C409.435 60.9374 408.417 60.6331 407.41 60.2131L407.411 50.0151ZM464.57 1.9841H478.293L492.52 46.6791H480.056L477.745 37.9251H465.118L462.808 46.6751H450.28L464.57 1.9841ZM475.585 29.7451L471.431 14.0071L467.278 29.7451H475.585ZM528.716 46.6791H516.756V28.4991C516.756 26.8991 516.389 25.7424 515.656 25.0291C514.923 24.3158 514.073 23.9574 513.107 23.9541C512.436 23.9541 511.722 24.1428 510.967 24.5201C510.212 24.8974 509.519 25.4234 508.89 26.0981C508.261 26.7734 507.757 27.5478 507.379 28.4211V46.6791H495.416V14.0071H506.181V18.9501C506.981 17.7501 507.988 16.7501 509.203 15.9501C510.418 15.1501 511.824 14.5414 513.421 14.1241C515.016 13.7114 516.757 13.5051 518.646 13.5051C520.913 13.5051 522.717 13.8971 524.06 14.6811C525.403 15.4651 526.41 16.4761 527.082 17.7141C527.753 18.9521 528.194 20.2418 528.404 21.5831C528.614 22.9244 528.719 24.1521 528.719 25.2661L528.716 46.6791ZM532.745 30.3441C532.745 27.1248 533.364 24.2458 534.602 21.7071C535.84 19.1684 537.55 17.1668 539.732 15.7021C541.914 14.2354 544.411 13.5021 547.223 13.5021C549.363 13.5021 551.335 13.9951 553.14 14.9811C554.945 15.9671 556.309 17.3204 557.232 19.0411V0.725098H569.193V33.4591C569.193 34.5924 569.36 35.3794 569.693 35.8201C570.026 36.2608 570.614 36.5231 571.456 36.6071V46.6791C569.399 47.0991 567.721 47.3091 566.42 47.3091C564.405 47.3091 562.811 46.9314 561.636 46.1761C560.461 45.4208 559.706 44.2668 559.37 42.7141L559.118 41.5141C557.985 43.5288 556.451 44.9978 554.518 45.9211C552.585 46.8444 550.532 47.3068 548.361 47.3081C546.094 47.3081 544.006 46.8954 542.097 46.0701C540.188 45.2448 538.53 44.0781 537.124 42.5701C535.718 41.0634 534.637 39.2681 533.882 37.1841C533.127 35.1001 532.748 32.8201 532.745 30.3441V30.3441ZM557.296 33.9731V28.2901C556.918 27.3634 556.404 26.5474 555.754 25.8421C555.104 25.1368 554.38 24.5828 553.582 24.1801C552.782 23.7801 551.964 23.5801 551.127 23.5801C550.246 23.5801 549.438 23.7614 548.703 24.1241C547.968 24.4868 547.328 24.9904 546.783 25.6351C546.238 26.2798 545.818 27.0254 545.524 27.8721C545.23 28.7188 545.083 29.6251 545.083 30.5911C545.083 31.5991 545.24 32.5061 545.555 33.3121C545.87 34.1181 546.321 34.8131 546.908 35.3971C547.495 35.9811 548.188 36.4344 548.985 36.7571C549.782 37.0798 550.664 37.2408 551.629 37.2401C552.216 37.2401 552.762 37.1698 553.266 37.0291C553.77 36.8884 554.253 36.6884 554.714 36.4291C555.175 36.1671 555.626 35.8244 556.067 35.4011C556.508 34.9778 556.917 34.5018 557.296 33.9731V33.9731ZM603.187 1.9841H614.455L618.547 15.7701L622.702 1.9841H633.97L626.416 23.3251L629.626 32.4531L639.261 1.9841H652.607L635.732 46.6791H625.094L618.547 30.6901L612.061 46.6791H601.424L584.554 1.9841H597.837L607.531 32.4521L610.616 23.3241L603.187 1.9841ZM666.641 47.3081C663.745 47.3081 661.164 46.8638 658.898 45.9751C656.632 45.0864 654.732 43.8774 653.198 42.3481C651.665 40.8188 650.5 39.0621 649.704 37.0781C648.908 35.0941 648.508 33.0064 648.504 30.8151C648.504 27.6818 649.196 24.8068 650.581 22.1901C651.966 19.5734 654.001 17.4714 656.687 15.8841C659.373 14.2974 662.688 13.5041 666.633 13.5041C670.578 13.5041 673.893 14.2894 676.579 15.8601C679.265 17.4308 681.3 19.4974 682.685 22.0601C684.07 24.6228 684.765 27.4111 684.771 30.4251C684.771 31.0451 684.74 31.6754 684.677 32.3161C684.614 32.9568 684.541 33.5234 684.457 34.0161H661.227C661.311 35.1314 661.636 36.0378 662.203 36.7351C662.77 37.4324 663.483 37.9404 664.343 38.2591C665.204 38.5778 666.095 38.7371 667.018 38.7371C668.319 38.7371 669.546 38.4434 670.701 37.8561C671.856 37.2688 672.622 36.4504 673.001 35.4011L683.136 38.3011C682.255 40.0638 681.027 41.6164 679.453 42.9591C677.879 44.3018 676.022 45.3614 673.882 46.1381C671.741 46.9181 669.327 47.3081 666.641 47.3081ZM660.976 26.8491H671.929C671.803 25.8244 671.499 24.9578 671.016 24.2491C670.533 23.5404 669.904 22.9888 669.127 22.5941C668.35 22.2001 667.459 22.0031 666.452 22.0031C665.445 22.0031 664.554 22.2001 663.777 22.5941C663 22.9881 662.371 23.5398 661.889 24.2491C661.407 24.9584 661.102 25.8251 660.975 26.8491H660.976ZM686.912 30.3441C686.912 27.1248 687.531 24.2458 688.769 21.7071C690.007 19.1684 691.717 17.1668 693.899 15.7021C696.081 14.2354 698.578 13.5021 701.39 13.5021C703.531 13.5021 705.503 13.9951 707.307 14.9811C709.111 15.9671 710.475 17.3204 711.399 19.0411V0.725098H723.361V33.4591C723.361 34.5924 723.528 35.3794 723.861 35.8201C724.194 36.2608 724.782 36.5231 725.624 36.6071V46.6791C723.567 47.0991 721.889 47.3091 720.588 47.3091C718.573 47.3091 716.979 46.9314 715.804 46.1761C714.629 45.4208 713.874 44.2668 713.538 42.7141L713.286 41.5141C712.153 43.5288 710.619 44.9978 708.686 45.9211C706.753 46.8444 704.696 47.3061 702.517 47.3061C700.25 47.3061 698.162 46.8934 696.253 46.0681C694.344 45.2428 692.686 44.0761 691.28 42.5681C689.874 41.0614 688.793 39.2661 688.038 37.1821C687.283 35.0981 686.907 32.8188 686.911 30.3441H686.912ZM711.461 33.9731V28.2901C711.083 27.3634 710.569 26.5474 709.919 25.8421C709.269 25.1368 708.545 24.5828 707.747 24.1801C706.947 23.7801 706.129 23.5801 705.292 23.5801C704.411 23.5801 703.603 23.7614 702.868 24.1241C702.133 24.4868 701.493 24.9904 700.948 25.6351C700.403 26.2798 699.983 27.0254 699.689 27.8721C699.395 28.7188 699.248 29.6251 699.248 30.5911C699.248 31.5991 699.405 32.5061 699.72 33.3121C700.035 34.1181 700.486 34.8131 701.074 35.3971C701.661 35.9811 702.354 36.4344 703.151 36.7571C703.948 37.0798 704.83 37.2408 705.795 37.2401C706.382 37.2401 706.928 37.1698 707.432 37.0291C707.936 36.8884 708.419 36.6884 708.88 36.4291C709.341 36.1671 709.792 35.8244 710.233 35.4011C710.674 34.9778 711.083 34.5018 711.461 33.9731ZM728.772 30.3441C728.772 27.1248 729.391 24.2458 730.629 21.7071C731.867 19.1684 733.577 17.1668 735.759 15.7021C737.941 14.2354 740.438 13.5021 743.25 13.5021C745.39 13.5021 747.362 13.9951 749.167 14.9811C750.972 15.9671 752.336 17.3204 753.259 19.0411V0.725098H765.221V33.4591C765.221 34.5924 765.388 35.3794 765.721 35.8201C766.054 36.2608 766.642 36.5231 767.484 36.6071V46.6791C765.427 47.0991 763.749 47.3091 762.448 47.3091C760.433 47.3091 758.839 46.9314 757.664 46.1761C756.489 45.4208 755.734 44.2668 755.398 42.7141L755.146 41.5141C754.013 43.5288 752.479 44.9978 750.546 45.9211C748.613 46.8444 746.556 47.3061 744.377 47.3061C742.11 47.3061 740.022 46.8934 738.113 46.0681C736.204 45.2428 734.546 44.0761 733.14 42.5681C731.734 41.0614 730.653 39.2661 729.898 37.1821C729.143 35.0981 728.768 32.8188 728.773 30.3441H728.772ZM753.323 33.9731V28.2901C752.945 27.3634 752.431 26.5474 751.781 25.8421C751.131 25.1368 750.407 24.5828 749.609 24.1801C748.809 23.7801 747.991 23.5801 747.154 23.5801C746.273 23.5801 745.465 23.7614 744.73 24.1241C743.995 24.4868 743.355 24.9904 742.81 25.6351C742.265 26.2798 741.845 27.0254 741.551 27.8721C741.257 28.7188 741.11 29.6251 741.11 30.5911C741.11 31.5991 741.267 32.5061 741.582 33.3121C741.897 34.1181 742.348 34.8131 742.935 35.3971C743.522 35.9811 744.215 36.4344 745.012 36.7571C745.809 37.0798 746.691 37.2408 747.656 37.2401C748.243 37.2401 748.789 37.1698 749.293 37.0291C749.797 36.8884 750.28 36.6884 750.741 36.4291C751.202 36.1671 751.653 35.8244 752.094 35.4011C752.535 34.9778 752.945 34.5018 753.324 33.9731H753.323ZM772.397 46.6791V13.5671H784.361V46.6791H772.397ZM772.397 10.7971V0.725098H784.361V10.7971H772.397ZM823.697 46.6791H811.742V28.4991C811.742 26.8991 811.375 25.7424 810.642 25.0291C809.909 24.3158 809.059 23.9574 808.093 23.9541C807.422 23.9541 806.708 24.1428 805.953 24.5201C805.198 24.8974 804.505 25.4234 803.876 26.0981C803.247 26.7734 802.743 27.5478 802.365 28.4211V46.6791H790.402V14.0071H801.167V18.9501C801.967 17.7501 802.974 16.7501 804.189 15.9501C805.404 15.1501 806.81 14.5414 808.407 14.1241C810.002 13.7114 811.743 13.5051 813.632 13.5051C815.899 13.5051 817.703 13.8971 819.046 14.6811C820.389 15.4651 821.396 16.4761 822.068 17.7141C822.739 18.9521 823.18 20.2418 823.39 21.5831C823.6 22.9244 823.705 24.1521 823.705 25.2661L823.697 46.6791ZM842.205 47.3091C840.064 47.3091 838.102 46.8888 836.319 46.0481C834.536 45.2074 833.016 44.0298 831.761 42.5151C830.502 41.0018 829.527 39.2351 828.834 37.2151C828.141 35.1951 827.795 33.0084 827.795 30.6551C827.795 28.1744 828.173 25.8938 828.928 23.8131C829.683 21.7324 830.743 19.9141 832.107 18.3581C833.471 16.8021 835.097 15.6021 836.986 14.7581C838.875 13.9141 840.952 13.4938 843.218 13.4971C845.568 13.4971 847.656 13.9481 849.482 14.8501C851.308 15.7521 852.745 17.1054 853.794 18.9101V14.0001H864.181V43.8171C864.181 47.2264 863.342 50.1991 861.663 52.7351C859.984 55.2711 857.634 57.2344 854.611 58.6251C851.59 60.0178 848.064 60.7141 844.035 60.7141C840.552 60.7141 837.499 60.1684 834.876 59.0771C832.253 57.9858 829.935 56.4121 827.92 54.3561L834.22 47.8091C835.437 48.9424 836.896 49.8971 838.595 50.6731C840.294 51.4491 842.109 51.8374 844.04 51.8381C845.507 51.8381 846.86 51.5984 848.1 51.1191C849.34 50.6398 850.337 49.8731 851.09 48.8191C851.845 47.7664 852.223 46.2538 852.223 44.2811V42.1411C851.3 43.8618 849.925 45.1521 848.1 46.0121C846.275 46.8721 844.311 47.3041 842.21 47.3081L842.205 47.3091ZM846.486 37.8661C847.073 37.8661 847.629 37.7924 848.154 37.6451C848.679 37.4978 849.172 37.2871 849.633 37.0131C850.094 36.7391 850.545 36.3808 850.986 35.9381C851.427 35.4954 851.836 35.0004 852.214 34.4531V28.5081C851.836 27.4961 851.311 26.6214 850.64 25.8841C849.969 25.1468 849.235 24.5778 848.44 24.1771C847.64 23.7771 846.822 23.5771 845.985 23.5771C845.148 23.5771 844.361 23.7668 843.624 24.1461C842.891 24.5254 842.251 25.0628 841.704 25.7581C841.157 26.4534 840.738 27.2424 840.447 28.1251C840.153 29.0104 840.006 29.9591 840.006 30.9711C840.006 31.9831 840.163 32.9104 840.478 33.7531C840.793 34.5958 841.244 35.3228 841.832 35.9341C842.42 36.5454 843.112 37.0198 843.909 37.3571C844.707 37.6964 845.568 37.8661 846.491 37.8661H846.486Z" fill="#2F455C"/>
</svg>
