<svg width="314" height="43" viewBox="0 0 314 43" fill="none" xmlns="http://www.w3.org/2000/svg">
<path d="M292.866 3.29004H21.3208C13.0106 3.29004 6.2738 10.0268 6.2738 18.337C6.2738 26.6473 13.0106 33.384 21.3208 33.384H292.866C301.176 33.384 307.913 26.6473 307.913 18.337C307.913 10.0268 301.176 3.29004 292.866 3.29004Z" fill="white"/>
<g filter="url(#filter0_d_1_767)">
<path d="M292.866 3.29004H21.3208C13.0106 3.29004 6.2738 10.0268 6.2738 18.337C6.2738 26.6473 13.0106 33.384 21.3208 33.384H292.866C301.176 33.384 307.913 26.6473 307.913 18.337C307.913 10.0268 301.176 3.29004 292.866 3.29004Z" fill="white"/>
</g>
<path d="M292.866 3.79004H21.3208C13.2867 3.79004 6.7738 10.303 6.7738 18.337C6.7738 26.3711 13.2867 32.884 21.3208 32.884H292.866C300.9 32.884 307.413 26.3711 307.413 18.337C307.413 10.303 300.9 3.79004 292.866 3.79004Z" stroke="#2EE8D4"/>
<defs>
<filter id="filter0_d_1_767" x="0.273804" y="0.290039" width="313.639" height="42.094" filterUnits="userSpaceOnUse" color-interpolation-filters="sRGB">
<feFlood flood-opacity="0" result="BackgroundImageFix"/>
<feColorMatrix in="SourceAlpha" type="matrix" values="0 0 0 0 0 0 0 0 0 0 0 0 0 0 0 0 0 0 127 0" result="hardAlpha"/>
<feOffset dy="3"/>
<feGaussianBlur stdDeviation="3"/>
<feColorMatrix type="matrix" values="0 0 0 0 0 0 0 0 0 0 0 0 0 0 0 0 0 0 0.161 0"/>
<feBlend mode="normal" in2="BackgroundImageFix" result="effect1_dropShadow_1_767"/>
<feBlend mode="normal" in="SourceGraphic" in2="effect1_dropShadow_1_767" result="shape"/>
</filter>
</defs>
</svg>
