<svg width="478" height="218" viewBox="0 0 478 218" fill="none" xmlns="http://www.w3.org/2000/svg">
<path d="M192.892 217.307C169.574 217.34 146.44 213.184 124.592 205.038C103.522 197.178 83.9725 185.727 66.8121 171.193C32.0695 141.835 8.64219 101.289 0.559082 56.5277L5.69109 55.6107C13.5335 99.5333 36.5942 139.291 70.8263 167.907C105.058 196.522 148.275 212.168 192.892 212.098C237.4 212.145 280.511 196.563 314.704 168.07C348.897 139.578 372 99.9842 379.982 56.1979C381.893 45.8206 387.386 36.4434 395.504 29.7025C403.622 22.9616 413.848 19.2849 424.4 19.3138H472.128V24.5267H424.4C415.07 24.4981 406.026 27.7461 398.845 33.704C391.665 39.6619 386.804 47.9515 385.111 57.1268C376.904 101.754 353.443 142.141 318.742 171.377C301.595 185.854 282.075 197.258 261.042 205.084C239.238 213.197 216.157 217.336 192.892 217.307V217.307Z" fill="#1FD0F3"/>
<path d="M454.853 43.2449L451.299 39.4309L470.13 21.9309L451.299 4.43091L454.855 0.611816L477.784 21.9348L454.853 43.2449Z" fill="#1FD0F3"/>
</svg>
