<svg width="487" height="218" viewBox="0 0 487 218" fill="none" xmlns="http://www.w3.org/2000/svg">
<path d="M196.223 217.307C170.108 217.355 144.251 212.128 120.205 201.94C96.9888 192.123 75.8967 177.897 58.0973 160.049C40.2492 142.249 26.0228 121.157 16.2063 97.9408C6.0177 73.8947 0.790797 48.0383 0.8392 21.9228H6.05319C5.99187 46.9035 10.886 71.6483 20.4522 94.7248C30.0185 117.801 44.0669 138.751 61.7843 156.362C79.3949 174.079 100.345 188.128 123.421 197.694C146.498 207.26 171.243 212.154 196.223 212.093C240.735 212.141 283.849 196.557 318.043 168.061C352.238 139.565 375.339 99.9665 383.317 56.176C385.229 45.8021 390.723 36.429 398.84 29.6923C406.958 22.9557 417.183 19.2831 427.731 19.3159H480.998V24.529H427.731C418.404 24.4966 409.361 27.7405 402.181 33.6948C395.001 39.649 390.14 47.9354 388.446 57.1078C380.244 101.74 356.784 142.134 322.081 171.375C304.935 185.854 285.414 197.26 264.381 205.088C242.574 213.201 219.49 217.339 196.223 217.307V217.307Z" fill="#48DBFB"/>
<path d="M463.724 43.2449L460.17 39.4309L479.001 21.9309L460.17 4.43091L463.726 0.611816L486.655 21.9348L463.724 43.2449Z" fill="#48DBFB"/>
</svg>
