<svg width="219" height="223" viewBox="0 0 219 223" fill="none" xmlns="http://www.w3.org/2000/svg">
<g opacity="0.5">
<path opacity="0.5" d="M0.0209961 91.9551V131.342C0.534329 134.209 1.15754 137.038 1.89087 139.83V83.467C1.16154 86.2557 0.538329 89.0851 0.0209961 91.9551Z" fill="#4A4A4A"/>
<path opacity="0.5" d="M11.4287 59.1962V164.096C12.0334 165.222 12.6568 166.336 13.2988 167.439V55.8531C12.6575 56.9558 12.034 58.0702 11.4287 59.1962Z" fill="#4A4A4A"/>
<path opacity="0.5" d="M22.8369 42.0051V181.288C23.4509 182.05 24.0747 182.803 24.708 183.548V39.7461C24.074 40.4908 23.4502 41.2438 22.8369 42.0051Z" fill="#4A4A4A"/>
<path opacity="0.5" d="M34.2441 29.835V193.462C34.8615 194.029 35.4852 194.588 36.1152 195.14V28.157C35.4852 28.7096 34.8615 29.269 34.2441 29.835Z" fill="#4A4A4A"/>
<path opacity="0.5" d="M45.6519 20.6649V202.634C46.2712 203.069 46.8949 203.498 47.5229 203.921V19.3781C46.8939 19.7991 46.2709 20.2299 45.6519 20.6649Z" fill="#4A4A4A"/>
<path opacity="0.5" d="M57.0601 13.6511V209.651C57.6811 209.982 58.3022 210.312 58.9302 210.633V12.6731C58.3022 12.9891 57.6851 13.3191 57.0601 13.6511Z" fill="#4A4A4A"/>
<path opacity="0.5" d="M68.4678 8.35999V214.94C69.0878 215.186 69.7129 215.42 70.3379 215.655V7.64514C69.7129 7.87514 69.0868 8.11399 68.4678 8.35999Z" fill="#4A4A4A"/>
<path opacity="0.5" d="M79.876 4.55493V218.744C80.498 218.914 81.1198 219.085 81.7468 219.244V4.05298C81.1198 4.21298 80.498 4.38393 79.876 4.55493Z" fill="#4A4A4A"/>
<path opacity="0.5" d="M91.2881 2.06604V221.233C91.9101 221.335 92.5333 221.432 93.158 221.524V1.77502C92.529 1.86602 91.9051 1.96504 91.2881 2.06604Z" fill="#4A4A4A"/>
<path opacity="0.5" d="M102.689 0.802124V222.502C103.312 222.539 103.935 222.57 104.56 222.596V0.707153C103.936 0.73382 103.313 0.765457 102.689 0.802124Z" fill="#4A4A4A"/>
<path opacity="0.5" d="M114.099 0.707153V222.592C114.723 222.565 115.347 222.534 115.969 222.497V0.796997C115.347 0.763664 114.723 0.73382 114.099 0.707153Z" fill="#4A4A4A"/>
<path opacity="0.5" d="M125.507 1.77502V221.524C126.132 221.433 126.755 221.336 127.377 221.233V2.06702C126.755 1.96502 126.132 1.86769 125.507 1.77502Z" fill="#4A4A4A"/>
<path opacity="0.5" d="M136.915 4.05396V219.245C137.541 219.085 138.164 218.914 138.785 218.745V4.55615C138.164 4.38415 137.541 4.21396 136.915 4.05396Z" fill="#4A4A4A"/>
<path opacity="0.5" d="M148.323 7.64502V215.654C148.948 215.42 149.573 215.184 150.194 214.939V8.36011C149.573 8.11511 148.948 7.88002 148.323 7.64502Z" fill="#4A4A4A"/>
<path opacity="0.5" d="M159.73 12.6702V210.629C160.358 210.308 160.98 209.978 161.6 209.647V13.6521C160.979 13.3201 160.358 12.9902 159.73 12.6702Z" fill="#4A4A4A"/>
<path opacity="0.5" d="M171.138 19.379V203.919C171.767 203.496 172.39 203.067 173.008 202.632V20.6661C172.393 20.2321 171.767 19.801 171.138 19.379Z" fill="#4A4A4A"/>
<path opacity="0.5" d="M182.546 28.1592V195.139C183.175 194.586 183.799 194.027 184.417 193.461V29.8372C183.802 29.2705 183.178 28.7112 182.546 28.1592Z" fill="#4A4A4A"/>
<path opacity="0.5" d="M193.954 39.746V183.546C194.587 182.801 195.211 182.048 195.824 181.287V42.005C195.211 41.2437 194.587 40.4906 193.954 39.746Z" fill="#4A4A4A"/>
<path opacity="0.5" d="M205.362 55.8541V167.444C206.004 166.341 206.628 165.226 207.233 164.1V59.2001C206.628 58.0741 206.004 56.9588 205.362 55.8541Z" fill="#4A4A4A"/>
<path opacity="0.5" d="M216.769 83.4679V139.83C217.498 137.041 218.122 134.212 218.64 131.343V91.9559C218.126 89.0859 217.502 86.2566 216.769 83.4679Z" fill="#4A4A4A"/>
</g>
</svg>
