<svg width="58" height="62" viewBox="0 0 58 62" fill="none" xmlns="http://www.w3.org/2000/svg">
<path d="M56.9079 0.269043C57.1104 0.410584 57.272 0.603163 57.3759 0.827271C57.4799 1.05138 57.5226 1.29903 57.5 1.54504C57.4893 18.4077 57.4856 35.2704 57.489 52.1331C57.5151 53.3794 57.289 54.6182 56.8242 55.7749C56.3593 56.9316 55.6655 57.9826 54.7841 58.8643C53.9028 59.746 52.8523 60.4403 51.6958 60.9056C50.5392 61.371 49.3003 61.5976 48.0539 61.572C36.3979 61.5767 24.7421 61.5767 13.0861 61.572C10.6837 61.6175 8.35803 60.7249 6.60298 59.0837C4.84794 57.4426 3.80159 55.182 3.68599 52.782C3.61299 51.739 3.91996 51.412 4.97896 51.411H14.302V50.583C14.302 40.3057 14.302 30.0283 14.302 19.751C14.2901 19.473 14.3144 19.1947 14.374 18.923C14.4179 18.7239 14.5362 18.5492 14.7045 18.4343C14.8729 18.3195 15.0787 18.2733 15.28 18.3051C15.4835 18.3022 15.6807 18.377 15.831 18.5143C15.9813 18.6516 16.0736 18.8411 16.0891 19.0441C16.1162 19.3018 16.1257 19.5611 16.1171 19.8201C16.1171 30.0774 16.1171 40.3347 16.1171 50.592V51.41H16.8969C20.7089 51.41 24.521 51.41 28.333 51.41C28.571 51.3983 28.8095 51.4212 29.041 51.478C29.2373 51.5285 29.4078 51.6505 29.5188 51.8202C29.6298 51.9898 29.6734 52.1949 29.6411 52.395C29.6389 52.5979 29.5607 52.7926 29.4221 52.9407C29.2834 53.0888 29.0943 53.1796 28.892 53.1951C28.6538 53.2186 28.4142 53.2259 28.175 53.217H5.55391C5.69241 54.6074 6.24694 55.9236 7.14498 56.994C7.80874 57.8229 8.64411 58.4983 9.59346 58.974C10.5428 59.4497 11.5837 59.7145 12.645 59.75C12.924 59.766 13.2031 59.7631 13.4831 59.7631H42.696C41.68 58.9761 40.8312 57.9944 40.1992 56.8754C39.5671 55.7564 39.1646 54.5224 39.0151 53.246C38.8011 53.236 38.5911 53.218 38.3801 53.218C36.7434 53.218 35.1066 53.218 33.4699 53.218C33.3109 53.218 33.1499 53.2231 32.9909 53.2111C32.8759 53.2144 32.7613 53.1946 32.654 53.1531C32.5467 53.1115 32.4487 53.049 32.3659 52.9691C32.2831 52.8892 32.2172 52.7935 32.1718 52.6877C32.1265 52.582 32.1028 52.4681 32.102 52.353C32.0917 52.2324 32.1069 52.111 32.1467 51.9967C32.1865 51.8824 32.25 51.7778 32.333 51.6897C32.4159 51.6016 32.5165 51.5319 32.6281 51.4852C32.7398 51.4386 32.8599 51.4161 32.9809 51.4191C35.2762 51.3997 37.5718 51.3997 39.8671 51.4191C40.4751 51.4191 40.758 51.7761 40.79 52.5071C40.8039 53.4782 41.015 54.4365 41.4104 55.3236C41.8057 56.2108 42.3772 57.0083 43.09 57.668C44.096 58.701 45.3948 59.4004 46.811 59.6715C48.2272 59.9426 49.6926 59.7725 51.009 59.1841C52.3847 58.6623 53.5683 57.7326 54.4011 56.5197C55.2339 55.3067 55.6764 53.8683 55.6691 52.397C55.6811 52.178 55.6691 51.958 55.6691 51.739V2.12305H16.1071V2.79199C16.1071 6.32533 16.1071 9.85863 16.1071 13.392C16.1071 13.611 16.169 13.887 16.062 14.037C15.8801 14.3409 15.6125 14.5845 15.2929 14.7371C15.1955 14.7648 15.0935 14.7721 14.9931 14.7584C14.8927 14.7448 14.7964 14.7105 14.7099 14.6577C14.6235 14.6049 14.5489 14.5347 14.4909 14.4517C14.4329 14.3686 14.3927 14.2744 14.373 14.175C14.3126 13.9649 14.2855 13.7466 14.2929 13.5281C14.2929 9.53708 14.293 5.54605 14.281 1.55505C14.2592 1.30897 14.3017 1.0614 14.404 0.836548C14.5064 0.6117 14.6651 0.417166 14.8649 0.271973L56.9079 0.269043Z" fill="#2F455C"/>
<path d="M9.35696 10.154C9.66469 10.1542 9.96905 10.2194 10.2498 10.3455C10.5305 10.4715 10.7812 10.6555 10.9859 10.8853C11.1905 11.1151 11.3443 11.3857 11.437 11.6791C11.5298 11.9725 11.5593 12.2822 11.524 12.5879C11.524 15.9393 11.524 19.2902 11.524 22.6409C11.5732 23.2244 11.4179 23.8068 11.0845 24.2881C10.7511 24.7695 10.2605 25.1199 9.69705 25.279C9.31005 25.417 9.35794 25.6529 9.35794 25.9239C9.35794 30.6709 9.36914 35.418 9.33914 40.165C9.32673 40.6739 9.18622 41.1715 8.93094 41.612C8.00394 43.193 7.01204 44.7359 6.04104 46.2919C5.39104 47.3329 4.69199 47.331 4.08499 46.284C3.15599 44.684 2.21597 43.0839 1.31497 41.4639C1.12378 41.1198 1.01917 40.7345 1.01004 40.341C0.994038 29.4503 0.990695 18.56 1.00003 7.66996C0.950208 6.70122 1.27142 5.74988 1.89822 5.00956C2.52503 4.26925 3.41035 3.7956 4.37405 3.68498C6.69105 3.35098 8.66499 4.39697 9.15799 6.37797C9.31564 7.33856 9.38255 8.31183 9.35794 9.28495C9.36894 9.56195 9.35696 9.83997 9.35696 10.154ZM5.08597 44.3899C5.84897 43.1669 6.57905 42.0279 7.27005 40.8649C7.43653 40.578 7.52758 40.2536 7.53494 39.9219C7.55594 37.4509 7.54795 34.98 7.54495 32.509C7.54495 32.3 7.52809 32.0899 7.51809 31.8819H2.85794C2.83682 31.97 2.82217 32.0597 2.81399 32.1499C2.81399 34.8206 2.81399 37.4909 2.81399 40.1609C2.80917 40.3192 2.84362 40.4762 2.91409 40.618C3.61009 41.846 4.32397 43.0659 5.08597 44.3909V44.3899ZM2.85208 16.1269V26.3269H7.65213C7.53613 25.7899 7.58396 25.1839 7.30496 24.8929C6.98465 24.5811 6.73273 24.2062 6.56521 23.7918C6.3977 23.3774 6.31836 22.9326 6.33206 22.4859C6.35606 20.5729 6.33994 18.6599 6.33694 16.7469C6.33694 16.5389 6.31403 16.3299 6.30203 16.1269H2.85208ZM2.83914 14.2869C4.21014 14.2869 5.52314 14.2869 6.83914 14.2869C7.86814 14.2869 8.15113 14.5709 8.15213 15.6009C8.15213 17.9319 8.15213 20.2629 8.15213 22.5939C8.15213 23.2389 8.43011 23.5939 8.91311 23.6039C9.39611 23.6139 9.71316 23.2319 9.71316 22.6219C9.71316 19.2749 9.71295 15.9269 9.72195 12.5799C9.72195 12.1369 9.5571 11.988 9.1221 11.992C7.1301 12.007 5.13707 11.9979 3.14407 12.0009C3.04135 12.0079 2.93925 12.0213 2.83816 12.0409L2.83914 14.2869ZM7.54397 10.17C7.54397 9.24796 7.56197 8.3769 7.54397 7.5059C7.55248 7.05312 7.4064 6.61102 7.12991 6.25236C6.85342 5.8937 6.46302 5.63987 6.02298 5.53288C5.49216 5.34036 4.91206 5.33214 4.376 5.50956C3.83995 5.68698 3.3793 6.03972 3.06814 6.5109C2.98866 6.626 2.93627 6.75765 2.91507 6.89591C2.90307 7.97991 2.90799 9.06496 2.90799 10.17H7.54397ZM2.84402 29.9569H7.49515V28.232H2.84402V29.9569Z" fill="#2F455C"/>
<path d="M35.8979 7.91C36.418 7.23251 37.1247 6.72155 37.9309 6.43966C38.7371 6.15777 39.6081 6.11715 40.437 6.32296C41.0321 6.45851 41.5926 6.71619 42.083 7.07955C42.5734 7.44291 42.9832 7.90406 43.2861 8.43392C43.5891 8.96378 43.7786 9.55073 43.843 10.1577C43.9074 10.7646 43.8452 11.3784 43.6601 11.96C43.2317 13.4631 42.4574 14.8448 41.3992 15.995C39.8672 17.695 38.2169 19.286 36.6059 20.913C36.5267 21.0114 36.4278 21.0919 36.3154 21.1495C36.203 21.2071 36.0797 21.2402 35.9536 21.247C35.8275 21.2538 35.7014 21.2341 35.5835 21.1889C35.4655 21.1438 35.3584 21.0742 35.269 20.9849C32.8002 19.0177 30.6832 16.6458 29.008 13.9701C28.1787 12.7792 27.8223 11.3223 28.008 9.88302C28.1237 9.06577 28.4762 8.30025 29.0222 7.68124C29.5682 7.06222 30.2837 6.61681 31.0801 6.39999C31.8729 6.13624 32.7258 6.11085 33.5329 6.32699C34.3401 6.54313 35.0661 6.99138 35.6211 7.61605C35.7031 7.70505 35.7839 7.792 35.8979 7.91ZM35.8979 19.1519C38.1109 17.0769 40.2981 15.041 41.6191 12.28C41.8037 11.8824 41.9345 11.4621 42.008 11.03C42.0669 10.67 42.0491 10.3017 41.9558 9.94906C41.8625 9.59644 41.6957 9.26748 41.4665 8.98373C41.2373 8.69997 40.9508 8.46784 40.6257 8.30245C40.3006 8.13707 39.9444 8.04217 39.5801 8.02401C39.2257 7.99825 38.8697 8.04559 38.5344 8.16305C38.1991 8.2805 37.8914 8.4655 37.6306 8.70675C37.3698 8.94799 37.1613 9.24024 37.0181 9.56539C36.8748 9.89054 36.8 10.2417 36.7981 10.597C36.8017 10.7166 36.7813 10.8357 36.7383 10.9474C36.6953 11.059 36.6305 11.1611 36.5476 11.2474C36.4647 11.3337 36.3657 11.4027 36.2558 11.4502C36.146 11.4977 36.0276 11.5227 35.9079 11.524C35.7885 11.5256 35.67 11.5035 35.5591 11.4591C35.4482 11.4146 35.347 11.3486 35.2617 11.265C35.1764 11.1813 35.1084 11.0817 35.0618 10.9716C35.0151 10.8616 34.9908 10.7435 34.99 10.624C34.985 10.565 34.99 10.504 34.99 10.445C34.9472 9.82245 34.682 9.236 34.2427 8.79281C33.8033 8.34962 33.2193 8.07918 32.5972 8.03097C31.9655 7.97098 31.3337 8.14505 30.8218 8.51998C30.3099 8.89492 29.9534 9.44469 29.8201 10.065C29.6639 11.0005 29.8711 11.9602 30.3992 12.748C31.8681 15.171 33.7257 17.3356 35.8979 19.155V19.1519Z" fill="#2F455C"/>
<path d="M35.9041 31.4683H49.429C50.408 31.4683 50.821 31.7423 50.814 32.3823C50.807 33.0223 50.3921 33.2823 49.4141 33.2823H22.3631C22.2631 33.2823 22.163 33.2823 22.063 33.2823C21.363 33.2613 20.9721 32.9313 20.9761 32.3613C20.9801 31.7913 21.3581 31.4693 22.0811 31.4683C26.6858 31.465 31.2934 31.465 35.9041 31.4683Z" fill="#2F455C"/>
<path d="M35.8744 27.2251H22.4083C22.2083 27.2326 22.0079 27.2297 21.8082 27.2162C21.585 27.2133 21.3721 27.1219 21.2162 26.9622C21.0602 26.8025 20.9738 26.5874 20.9762 26.3642C20.9683 26.2493 20.9832 26.134 21.0199 26.0248C21.0566 25.9156 21.1144 25.8148 21.19 25.7279C21.2657 25.6411 21.3579 25.57 21.461 25.5187C21.5642 25.4675 21.6765 25.4371 21.7914 25.4292C21.9503 25.4157 22.1098 25.4124 22.2691 25.4192H49.5003C49.6794 25.4066 49.8592 25.412 50.0372 25.4352C50.2598 25.4553 50.4657 25.5622 50.61 25.7329C50.7543 25.9036 50.8254 26.1243 50.8082 26.3472C50.813 26.4577 50.7958 26.568 50.7574 26.6717C50.719 26.7754 50.6602 26.8704 50.5846 26.9511C50.5089 27.0318 50.4178 27.0965 50.3167 27.1415C50.2157 27.1865 50.1068 27.2109 49.9962 27.2132C49.7966 27.2288 49.5964 27.2324 49.3963 27.2242L35.8744 27.2251Z" fill="#2F455C"/>
<path d="M28.8253 39.3182C26.5703 39.3182 24.3142 39.3182 22.0592 39.3182C21.3592 39.3182 20.9662 38.9762 20.9732 38.4072C20.9802 37.8382 21.3731 37.5151 22.0821 37.5151C26.6155 37.5151 31.1465 37.5151 35.6751 37.5151C36.5611 37.5151 37.0591 38.1922 36.6751 38.8582C36.5676 39.0271 36.4134 39.1612 36.231 39.2439C36.0487 39.3266 35.8462 39.3546 35.6483 39.3242C33.3763 39.3142 31.1013 39.3182 28.8253 39.3182Z" fill="#2F455C"/>
<path d="M25.733 47.1921C26.95 47.1921 28.1671 47.1921 29.3851 47.1921C30.0931 47.1921 30.4969 47.5181 30.5079 48.0711C30.5199 48.6441 30.0951 48.9981 29.3641 48.9991C26.9494 49.0031 24.5346 49.0031 22.1199 48.9991C21.3719 48.9991 20.9689 48.6662 20.9739 48.0802C20.9789 47.4942 21.3739 47.1931 22.1409 47.1901C23.3379 47.1891 24.535 47.1921 25.733 47.1921Z" fill="#2F455C"/>
<path d="M46.071 47.1921C47.288 47.1921 48.5049 47.1921 49.7219 47.1921C50.4329 47.1921 50.822 47.5191 50.822 48.0921C50.822 48.6651 50.422 49.0011 49.73 49.0021C47.276 49.0075 44.8222 49.0075 42.3689 49.0021C41.6859 49.0021 41.284 48.634 41.3 48.068C41.315 47.521 41.693 47.2011 42.364 47.1971C43.594 47.1861 44.831 47.1921 46.071 47.1921Z" fill="#2F455C"/>
</svg>
