<svg width="104" height="99" viewBox="0 0 104 99" fill="none" xmlns="http://www.w3.org/2000/svg">
<path d="M74.7099 73.59L49.6819 98.62L24.4219 73.36L5.73692 54.675L1.00293 49.9409V0.730957L49.2969 48.463L49.5249 48.6909L74.7099 73.59Z" fill="url(#paint0_linear_1_694)"/>
<path d="M98.1399 0.730957V49.937L49.4619 98.62L24.4299 73.59L49.6949 48.614L98.1399 0.730957Z" fill="url(#paint1_linear_1_694)"/>
<g filter="url(#filter0_d_1_694)">
<path d="M98.1349 0.731934V38.2129C91.4149 46.0949 77.2979 51.3289 49.6909 48.6129C49.6019 48.6079 49.513 48.6019 49.424 48.5909L98.1349 0.731934Z" fill="url(#paint2_linear_1_694)"/>
</g>
<g filter="url(#filter1_d_1_694)">
<path d="M49.7139 48.507L49.5249 48.696L24.4249 73.361L5.73987 54.676C13.6329 49.297 27.0889 46.304 49.3009 48.468L49.4509 48.485C49.5359 48.49 49.6249 48.496 49.7139 48.507Z" fill="url(#paint3_linear_1_694)"/>
</g>
<defs>
<filter id="filter0_d_1_694" x="44.424" y="0.731934" width="58.7111" height="59.6059" filterUnits="userSpaceOnUse" color-interpolation-filters="sRGB">
<feFlood flood-opacity="0" result="BackgroundImageFix"/>
<feColorMatrix in="SourceAlpha" type="matrix" values="0 0 0 0 0 0 0 0 0 0 0 0 0 0 0 0 0 0 127 0" result="hardAlpha"/>
<feOffset dy="6"/>
<feGaussianBlur stdDeviation="2.5"/>
<feColorMatrix type="matrix" values="0 0 0 0 0 0 0 0 0 0 0 0 0 0 0 0 0 0 0.102 0"/>
<feBlend mode="normal" in2="BackgroundImageFix" result="effect1_dropShadow_1_694"/>
<feBlend mode="normal" in="SourceGraphic" in2="effect1_dropShadow_1_694" result="shape"/>
</filter>
<filter id="filter1_d_1_694" x="0.739868" y="31.7589" width="53.974" height="41.6021" filterUnits="userSpaceOnUse" color-interpolation-filters="sRGB">
<feFlood flood-opacity="0" result="BackgroundImageFix"/>
<feColorMatrix in="SourceAlpha" type="matrix" values="0 0 0 0 0 0 0 0 0 0 0 0 0 0 0 0 0 0 127 0" result="hardAlpha"/>
<feOffset dy="-11"/>
<feGaussianBlur stdDeviation="2.5"/>
<feColorMatrix type="matrix" values="0 0 0 0 0 0 0 0 0 0 0 0 0 0 0 0 0 0 0.102 0"/>
<feBlend mode="normal" in2="BackgroundImageFix" result="effect1_dropShadow_1_694"/>
<feBlend mode="normal" in="SourceGraphic" in2="effect1_dropShadow_1_694" result="shape"/>
</filter>
<linearGradient id="paint0_linear_1_694" x1="0.708102" y1="49.4797" x2="74.8581" y2="49.7572" gradientUnits="userSpaceOnUse">
<stop stop-color="#1DCCF8"/>
<stop offset="1" stop-color="#35F3C4"/>
</linearGradient>
<linearGradient id="paint1_linear_1_694" x1="24.5774" y1="49.3818" x2="98.1407" y2="49.6593" gradientUnits="userSpaceOnUse">
<stop stop-color="#1DCCF8"/>
<stop offset="1" stop-color="#35F3C4"/>
</linearGradient>
<linearGradient id="paint2_linear_1_694" x1="49.424" y1="25.0349" x2="98.1349" y2="25.0349" gradientUnits="userSpaceOnUse">
<stop stop-color="#1DCCF8"/>
<stop offset="1" stop-color="#35F3C4"/>
</linearGradient>
<linearGradient id="paint3_linear_1_694" x1="5.73987" y1="60.56" x2="49.7139" y2="60.56" gradientUnits="userSpaceOnUse">
<stop stop-color="#1DCCF8"/>
<stop offset="1" stop-color="#35F3C4"/>
</linearGradient>
</defs>
</svg>
