<svg width="444" height="56" viewBox="0 0 444 56" fill="none" xmlns="http://www.w3.org/2000/svg">
<path d="M416 3.66266H28C16.1259 3.66266 6.5 13.2885 6.5 25.1627C6.5 37.0368 16.1259 46.6627 28 46.6627H416C427.874 46.6627 437.5 37.0368 437.5 25.1627C437.5 13.2885 427.874 3.66266 416 3.66266Z" fill="white"/>
<g filter="url(#filter0_d_1_1986)">
<path d="M416 3.6626H28C16.1259 3.6626 6.5 13.2885 6.5 25.1626C6.5 37.0367 16.1259 46.6626 28 46.6626H416C427.874 46.6626 437.5 37.0367 437.5 25.1626C437.5 13.2885 427.874 3.6626 416 3.6626Z" fill="white"/>
</g>
<path d="M416 4.16266H28C16.402 4.16266 7 13.5647 7 25.1627C7 36.7606 16.402 46.1627 28 46.1627H416C427.598 46.1627 437 36.7606 437 25.1627C437 13.5647 427.598 4.16266 416 4.16266Z" stroke="#2EE8D4"/>
<defs>
<filter id="filter0_d_1_1986" x="0.5" y="0.662598" width="443" height="55" filterUnits="userSpaceOnUse" color-interpolation-filters="sRGB">
<feFlood flood-opacity="0" result="BackgroundImageFix"/>
<feColorMatrix in="SourceAlpha" type="matrix" values="0 0 0 0 0 0 0 0 0 0 0 0 0 0 0 0 0 0 127 0" result="hardAlpha"/>
<feOffset dy="3"/>
<feGaussianBlur stdDeviation="3"/>
<feColorMatrix type="matrix" values="0 0 0 0 0 0 0 0 0 0 0 0 0 0 0 0 0 0 0.161 0"/>
<feBlend mode="normal" in2="BackgroundImageFix" result="effect1_dropShadow_1_1986"/>
<feBlend mode="normal" in="SourceGraphic" in2="effect1_dropShadow_1_1986" result="shape"/>
</filter>
</defs>
</svg>
