<svg width="193" height="150" viewBox="0 0 193 150" fill="none" xmlns="http://www.w3.org/2000/svg">
<path d="M5.87183 5.45888C4.04283 5.42088 2.18789 5.40894 0.358887 5.42494L0.317871 0.21083C2.19487 0.19583 4.09988 0.210963 5.97888 0.246963L5.87183 5.45888Z" fill="#727272"/>
<path d="M180.305 127.263C179.027 124.003 177.638 120.733 176.178 117.543L180.919 115.374C182.419 118.652 183.845 122.011 185.159 125.361L180.305 127.263ZM168.123 101.893C166.378 98.8538 164.523 95.8219 162.611 92.8799L166.982 90.0388C168.946 93.0598 170.851 96.1739 172.644 99.2959L168.123 101.893ZM152.348 78.5728C150.175 75.8198 147.898 73.0888 145.577 70.4578L149.487 67.0098C151.87 69.7098 154.21 72.5158 156.44 75.3438L152.348 78.5728ZM133.339 57.793C130.788 55.383 128.139 53.0119 125.46 50.7459L128.828 46.7669C131.578 49.0939 134.3 51.5279 136.919 54.0029L133.339 57.793ZM111.511 39.9929C108.636 37.9789 105.668 36.0188 102.689 34.1668L105.441 29.7388C108.501 31.6388 111.549 33.6539 114.502 35.7229L111.511 39.9929ZM87.3187 25.5659C84.1787 23.9939 80.9548 22.49 77.7368 21.096L79.8098 16.3118C83.1168 17.7438 86.4278 19.2888 89.6538 20.9048L87.3187 25.5659ZM61.2657 14.8438C57.9287 13.7528 54.5177 12.7439 51.1267 11.8369L52.4697 6.79884C55.9537 7.72784 59.4588 8.76693 62.8878 9.88893L61.2657 14.8438ZM33.9108 8.09474C30.4548 7.51074 26.9358 7.01484 23.4478 6.62184L24.0317 1.44093C27.6137 1.84093 31.2318 2.35385 34.7808 2.95485L33.9108 8.09474Z" fill="#727272"/>
<path d="M187.422 149.275C186.965 147.501 186.477 145.712 185.972 143.958L190.981 142.514C191.501 144.314 192.002 146.153 192.471 147.976L187.422 149.275Z" fill="#727272"/>
</svg>
