<svg width="62" height="145" viewBox="0 0 62 145" fill="none" xmlns="http://www.w3.org/2000/svg">
<path d="M58.737 116.68C60.3342 116.68 61.629 115.385 61.629 113.788C61.629 112.191 60.3342 110.896 58.737 110.896C57.1398 110.896 55.845 112.191 55.845 113.788C55.845 115.385 57.1398 116.68 58.737 116.68Z" fill="#4A4A4A"/>
<path d="M58.737 144.223C60.3342 144.223 61.629 142.928 61.629 141.331C61.629 139.734 60.3342 138.439 58.737 138.439C57.1398 138.439 55.845 139.734 55.845 141.331C55.845 142.928 57.1398 144.223 58.737 144.223Z" fill="#4A4A4A"/>
<path d="M31.195 6.50898C32.7922 6.50898 34.087 5.21418 34.087 3.61698C34.087 2.01977 32.7922 0.724976 31.195 0.724976C29.5978 0.724976 28.303 2.01977 28.303 3.61698C28.303 5.21418 29.5978 6.50898 31.195 6.50898Z" fill="#4A4A4A"/>
<path d="M31.195 34.0519C32.7922 34.0519 34.087 32.7572 34.087 31.1599C34.087 29.5627 32.7922 28.2679 31.195 28.2679C29.5978 28.2679 28.303 29.5627 28.303 31.1599C28.303 32.7572 29.5978 34.0519 31.195 34.0519Z" fill="#4A4A4A"/>
<path d="M31.195 61.5939C32.7922 61.5939 34.087 60.2991 34.087 58.7019C34.087 57.1047 32.7922 55.8099 31.195 55.8099C29.5978 55.8099 28.303 57.1047 28.303 58.7019C28.303 60.2991 29.5978 61.5939 31.195 61.5939Z" fill="#4A4A4A"/>
<path d="M31.195 89.137C32.7922 89.137 34.087 87.8422 34.087 86.245C34.087 84.6478 32.7922 83.353 31.195 83.353C29.5978 83.353 28.303 84.6478 28.303 86.245C28.303 87.8422 29.5978 89.137 31.195 89.137Z" fill="#4A4A4A"/>
<path d="M31.195 116.68C32.7922 116.68 34.087 115.385 34.087 113.788C34.087 112.191 32.7922 110.896 31.195 110.896C29.5978 110.896 28.303 112.191 28.303 113.788C28.303 115.385 29.5978 116.68 31.195 116.68Z" fill="#4A4A4A"/>
<path d="M31.195 144.223C32.7922 144.223 34.087 142.928 34.087 141.331C34.087 139.734 32.7922 138.439 31.195 138.439C29.5978 138.439 28.303 139.734 28.303 141.331C28.303 142.928 29.5978 144.223 31.195 144.223Z" fill="#4A4A4A"/>
<path d="M3.65201 61.5939C5.24922 61.5939 6.54401 60.2991 6.54401 58.7019C6.54401 57.1047 5.24922 55.8099 3.65201 55.8099C2.0548 55.8099 0.76001 57.1047 0.76001 58.7019C0.76001 60.2991 2.0548 61.5939 3.65201 61.5939Z" fill="#4A4A4A"/>
<path d="M3.65201 89.137C5.24922 89.137 6.54401 87.8422 6.54401 86.245C6.54401 84.6478 5.24922 83.353 3.65201 83.353C2.0548 83.353 0.76001 84.6478 0.76001 86.245C0.76001 87.8422 2.0548 89.137 3.65201 89.137Z" fill="#4A4A4A"/>
<path d="M3.65201 116.68C5.24922 116.68 6.54401 115.385 6.54401 113.788C6.54401 112.191 5.24922 110.896 3.65201 110.896C2.0548 110.896 0.76001 112.191 0.76001 113.788C0.76001 115.385 2.0548 116.68 3.65201 116.68Z" fill="#4A4A4A"/>
<path d="M3.65201 144.223C5.24922 144.223 6.54401 142.928 6.54401 141.331C6.54401 139.734 5.24922 138.439 3.65201 138.439C2.0548 138.439 0.76001 139.734 0.76001 141.331C0.76001 142.928 2.0548 144.223 3.65201 144.223Z" fill="#4A4A4A"/>
</svg>
