<svg width="443" height="56" viewBox="0 0 443 56" fill="none" xmlns="http://www.w3.org/2000/svg">
<path d="M415.5 3.96484H27.5C15.6259 3.96484 6 13.5907 6 25.4648C6 37.339 15.6259 46.9648 27.5 46.9648H415.5C427.374 46.9648 437 37.339 437 25.4648C437 13.5907 427.374 3.96484 415.5 3.96484Z" fill="white"/>
<g filter="url(#filter0_d_1_1964)">
<path d="M415.5 3.96973H27.5C15.6259 3.96973 6 13.5956 6 25.4697C6 37.3438 15.6259 46.9697 27.5 46.9697H415.5C427.374 46.9697 437 37.3438 437 25.4697C437 13.5956 427.374 3.96973 415.5 3.96973Z" fill="white"/>
</g>
<path d="M415.5 4.46484H27.5C15.902 4.46484 6.5 13.8669 6.5 25.4648C6.5 37.0628 15.902 46.4648 27.5 46.4648H415.5C427.098 46.4648 436.5 37.0628 436.5 25.4648C436.5 13.8669 427.098 4.46484 415.5 4.46484Z" stroke="#2EE8D4"/>
<defs>
<filter id="filter0_d_1_1964" x="0" y="0.969727" width="443" height="55" filterUnits="userSpaceOnUse" color-interpolation-filters="sRGB">
<feFlood flood-opacity="0" result="BackgroundImageFix"/>
<feColorMatrix in="SourceAlpha" type="matrix" values="0 0 0 0 0 0 0 0 0 0 0 0 0 0 0 0 0 0 127 0" result="hardAlpha"/>
<feOffset dy="3"/>
<feGaussianBlur stdDeviation="3"/>
<feColorMatrix type="matrix" values="0 0 0 0 0 0 0 0 0 0 0 0 0 0 0 0 0 0 0.161 0"/>
<feBlend mode="normal" in2="BackgroundImageFix" result="effect1_dropShadow_1_1964"/>
<feBlend mode="normal" in="SourceGraphic" in2="effect1_dropShadow_1_1964" result="shape"/>
</filter>
</defs>
</svg>
