<svg width="63" height="69" viewBox="0 0 63 69" fill="none" xmlns="http://www.w3.org/2000/svg">
<path d="M21.662 68.5804C21.502 68.4119 21.4063 68.1924 21.3916 67.9604C21.377 67.7285 21.4444 67.4987 21.582 67.3114C21.9851 66.5021 22.6043 65.8202 23.371 65.3411C24.1377 64.8619 25.0219 64.6042 25.9259 64.5964C26.7619 64.5614 27.6011 64.5903 28.5101 64.5903C28.5101 62.9083 28.5181 61.2964 28.4941 59.6844C28.4941 59.5614 28.294 59.3844 28.146 59.3354C27.9502 59.2983 27.7498 59.2922 27.552 59.3174C20.411 59.3174 13.2699 59.3064 6.12895 59.3324C5.80331 59.3565 5.47728 59.293 5.18449 59.1484C4.8917 59.0039 4.64292 58.7835 4.46403 58.5104C3.41603 57.0804 2.28201 55.7103 1.22001 54.2933C1.02001 54.0273 0.813043 53.5414 0.927043 53.3274C1.04104 53.1134 1.54705 52.9963 1.88505 52.9853C3.09705 52.9463 4.311 52.9703 5.585 52.9703V52.1704C5.585 48.8657 5.585 45.5614 5.585 42.2574C5.53773 41.234 5.73897 40.2143 6.17155 39.2856C6.60413 38.3569 7.25518 37.5468 8.06901 36.9244C8.9502 36.2058 10.0342 35.7808 11.169 35.7093C11.706 35.6853 11.8691 35.4904 11.8691 34.9454C11.8421 32.3064 11.847 29.6674 11.859 27.0284C11.7721 25.8882 12.0918 24.754 12.7614 23.827C13.431 22.9 14.4072 22.2401 15.517 21.9643C16.077 21.8329 16.6508 21.7698 17.226 21.7764C18.797 21.7524 20.369 21.7684 21.986 21.7684V16.2294C20.032 15.5054 19.479 14.7014 19.477 12.5924C19.477 11.9491 19.477 11.306 19.477 10.6633C19.477 8.40832 19.915 7.74244 22.016 6.85644C22.016 6.65644 22.016 6.44043 22.016 6.22143C22.025 5.15743 22.328 4.96442 23.329 5.38842C23.8066 5.62117 24.2971 5.82649 24.798 6.00341C25.1218 6.09613 25.4652 6.09613 25.789 6.00341C26.356 5.82541 26.889 5.53532 27.443 5.31432C28.183 5.01932 28.532 5.26034 28.555 6.06334C28.563 6.32834 28.555 6.59335 28.555 6.89635L28.985 7.05138C29.5937 7.24217 30.1253 7.62261 30.5022 8.1372C30.8792 8.65178 31.0817 9.2735 31.08 9.91137C31.108 10.9974 31.117 12.0854 31.08 13.1714C31.0886 13.8914 30.8433 14.5914 30.3872 15.1486C29.9312 15.7057 29.2934 16.0845 28.586 16.2184V21.7294H35.44V21.0124C34.053 20.6764 32.694 20.3814 31.356 20.0124C30.315 19.7254 30.261 19.5414 30.679 18.5454C31.8257 15.8121 32.972 13.0761 34.118 10.3374C34.218 10.0944 34.308 9.84538 34.401 9.60338C34.344 9.56538 34.3121 9.52933 34.2751 9.52233C32.7621 9.22233 32.7411 9.17938 33.3171 7.77038C33.6521 6.95038 33.9751 6.12544 34.3171 5.30944C34.6644 4.65132 34.7912 3.89896 34.679 3.16332C34.6471 2.84216 34.679 2.51789 34.7729 2.2091C34.8667 1.90031 35.0207 1.61313 35.2259 1.364C35.431 1.11488 35.6834 0.908737 35.9684 0.757437C36.2535 0.606137 36.5657 0.512715 36.887 0.482412C38.23 0.308412 39.7541 1.29043 39.6871 2.60143C39.5951 4.49443 40.528 5.99338 41.134 7.62438C41.715 9.18838 41.755 9.17338 40.101 9.57738C40.183 9.80138 40.255 10.0224 40.344 10.2364C41.502 13.0364 42.6614 15.8391 43.8221 18.6444C44.1711 19.4884 44.079 19.7443 43.181 19.9913C41.819 20.3623 40.4399 20.6683 39.0039 21.0173V21.7844H39.71C41.972 21.7844 44.235 21.7704 46.496 21.7844C47.6256 21.7138 48.7441 22.0425 49.6558 22.7132C50.5675 23.384 51.2142 24.3539 51.483 25.4534C51.6154 26.0131 51.6773 26.5872 51.667 27.1623C51.6857 29.779 51.6857 32.3961 51.667 35.0134C51.667 35.4364 51.747 35.6684 52.224 35.6974C53.8444 35.8331 55.3483 36.5944 56.4172 37.8198C57.486 39.0452 58.0357 40.6386 57.95 42.2624C57.922 45.5444 57.944 48.8274 57.944 52.1094V52.9953C59.116 52.9953 60.244 52.9764 61.362 53.0044C61.817 53.0154 62.484 52.7644 62.627 53.3794C62.706 53.7194 62.375 54.2194 62.117 54.5614C61.077 55.9424 59.971 57.2744 58.938 58.6614C58.7842 58.8865 58.5739 59.0673 58.3282 59.1854C58.0824 59.3035 57.8099 59.3548 57.538 59.3343C50.3307 59.3183 43.123 59.315 35.915 59.3243H35.035V64.5984C35.909 64.5984 36.766 64.5684 37.62 64.6044C38.5242 64.6114 39.4088 64.8691 40.1753 65.3487C40.9419 65.8284 41.5603 66.5113 41.962 67.3214C42.0995 67.5086 42.1664 67.7383 42.1507 67.9701C42.1349 68.2018 42.0376 68.4205 41.876 68.5874L21.662 68.5804ZM41.5039 41.7804C41.9307 43.0938 42.6689 44.2845 43.6552 45.2511C44.6415 46.2177 45.8469 46.9314 47.1686 47.3315C48.4904 47.7317 49.8892 47.8064 51.246 47.5492C52.6028 47.292 53.8774 46.7105 54.961 45.8544C56.168 44.8954 57.061 43.8223 56.716 42.1423C56.6847 41.9006 56.6691 41.6571 56.669 41.4133C56.576 40.2435 56.0677 39.1455 55.2358 38.3179C54.4039 37.4902 53.3033 36.9874 52.133 36.9004C51.824 36.8784 51.513 36.8634 51.203 36.8634C38.253 36.8634 25.3029 36.8607 12.3529 36.8553C10.9456 36.7774 9.56212 37.2428 8.48796 38.1554C7.76459 38.9119 7.23923 39.8353 6.95854 40.8436C6.67785 41.8519 6.6505 42.914 6.87895 43.9354C6.9439 44.0753 7.03038 44.2041 7.13505 44.3174C8.14059 45.6239 9.49548 46.6189 11.043 47.1874C12.1176 47.573 13.2586 47.7393 14.3986 47.6764C15.5386 47.6134 16.6543 47.3225 17.6799 46.8208C18.7054 46.3191 19.6199 45.6169 20.3693 44.7556C21.1187 43.8943 21.6879 42.8914 22.043 41.8064C20.82 40.7914 20.593 39.6143 21.443 38.6883C21.6165 38.5005 21.8259 38.3495 22.0588 38.244C22.2917 38.1385 22.5433 38.0809 22.7989 38.0745C23.0545 38.068 23.3088 38.1129 23.5467 38.2065C23.7846 38.3001 24.0013 38.4405 24.184 38.6194C25.093 39.5544 25 40.8623 23.669 41.8393C24.2314 43.5484 25.3198 45.0358 26.7786 46.0889C28.2374 47.1419 29.992 47.7067 31.7912 47.7024C33.5904 47.6981 35.3421 47.1249 36.7958 46.0648C38.2496 45.0047 39.3309 43.5121 39.8851 41.8004C38.6491 40.7844 38.433 39.5484 39.334 38.6324C39.5236 38.4454 39.7494 38.2991 39.9977 38.2027C40.246 38.1064 40.5115 38.062 40.7776 38.0723C41.0438 38.0825 41.3049 38.1471 41.5451 38.2622C41.7853 38.3773 41.9993 38.5403 42.174 38.7413C42.97 39.6953 42.7129 40.9004 41.5039 41.7834V41.7804ZM6.87895 52.8894H56.743V45.9894C55.6292 47.1268 54.2572 47.9784 52.7436 48.4717C51.23 48.9649 49.6197 49.0852 48.0496 48.8224C46.4795 48.5595 44.9963 47.9212 43.7259 46.9619C42.4555 46.0026 41.4355 44.7505 40.753 43.3124C39.9388 44.9912 38.6684 46.4068 37.0872 47.3973C35.506 48.3878 33.6779 48.9132 31.8121 48.9132C29.9462 48.9132 28.118 48.3878 26.5368 47.3973C24.9556 46.4068 23.6852 44.9912 22.871 43.3124C22.1878 44.7495 21.1682 46.0008 19.8987 46.9602C18.6292 47.9196 17.1472 48.5588 15.5782 48.8237C14.0091 49.0886 12.3993 48.9714 10.8852 48.482C9.37104 47.9927 7.99722 47.1456 6.88005 46.0124L6.87895 52.8894ZM31.789 23.0273H26.599C23.383 23.0273 20.1669 23.0153 16.9519 23.0273C16.1005 22.9533 15.2518 23.1974 14.5697 23.7125C13.8877 24.2276 13.4207 24.9771 13.259 25.8164C13.0103 26.6373 13.0456 27.518 13.359 28.3164C13.8834 29.0661 14.5686 29.6891 15.3648 30.1398C16.161 30.5904 17.0478 30.8574 17.9605 30.921C18.8731 30.9847 19.7885 30.8435 20.6396 30.5077C21.4906 30.1719 22.2556 29.65 22.8789 28.9803C23.4679 28.1622 23.9897 27.2978 24.439 26.3954C24.597 26.1434 24.888 25.7953 25.106 25.8083C25.324 25.8213 25.544 26.2003 25.753 26.4283C25.793 26.4723 25.786 26.5554 25.809 26.6174C26.1635 27.7844 26.8628 28.8167 27.815 29.5788C28.7672 30.341 29.9277 30.7972 31.144 30.8874C32.3296 31.0465 33.5357 30.8455 34.6056 30.3105C35.6756 29.7756 36.5599 28.9314 37.144 27.8874C37.467 27.3684 37.6221 26.7464 37.9161 26.2064C37.9806 26.0988 38.0675 26.0062 38.1711 25.9353C38.2746 25.8644 38.3923 25.8167 38.516 25.7954C38.69 25.7844 38.904 26.0274 39.058 26.1954C39.1396 26.3271 39.1965 26.4724 39.226 26.6244C39.5211 27.5296 40.0187 28.3555 40.6811 29.0394C41.3434 29.7233 42.153 30.2472 43.0483 30.5712C43.9435 30.8951 44.9008 31.0107 45.8475 30.909C46.7941 30.8074 47.705 30.4911 48.511 29.9844C49.3107 29.6098 49.9375 28.9448 50.2641 28.1244C50.5907 27.304 50.5924 26.39 50.269 25.5683C50.0249 24.7767 49.5166 24.0928 48.829 23.6308C48.1414 23.1689 47.3161 22.957 46.491 23.0304C41.591 23.0251 36.6903 23.0251 31.789 23.0304V23.0273ZM13.148 35.5614H50.388V30.0754C47.5359 28.1609 44.0968 27.3211 40.6833 27.7057C37.2698 28.0903 34.1037 29.6743 31.7491 32.1754C31.256 30.9777 30.4204 29.9522 29.347 29.2273C28.2736 28.5024 27.0101 28.1104 25.7149 28.1005C24.4197 28.0905 23.1503 28.463 22.066 29.1714C20.9816 29.8797 20.1304 30.8924 19.6191 32.0824C18.4597 32.2787 17.2705 32.2007 16.1468 31.8546C15.023 31.5085 13.996 30.9039 13.148 30.0893V35.5614ZM4.76396 56.7413C4.91643 57.16 5.19929 57.5187 5.57084 57.7646C5.94239 58.0105 6.3831 58.1307 6.82804 58.1074C23.548 58.0634 40.268 58.0531 56.988 58.0764C57.3897 58.1118 57.7899 57.9936 58.108 57.7457C58.426 57.4978 58.6382 57.1385 58.7019 56.7403H47.92C47.699 56.7403 47.429 56.8044 47.267 56.7024C47.1537 56.6367 47.0548 56.5489 46.9762 56.4441C46.8977 56.3393 46.8411 56.2196 46.81 56.0924C46.797 55.9204 47.066 55.6663 47.268 55.5583C47.4811 55.4987 47.7047 55.4864 47.923 55.5223H58.9001C59.3078 55.5811 59.7225 55.4803 60.0578 55.241C60.3931 55.0016 60.6231 54.6421 60.7 54.2374H2.79997C2.95478 54.6625 3.24802 55.0232 3.63249 55.2617C4.01695 55.5002 4.47033 55.6025 4.91996 55.5524C15.143 55.5024 25.3661 55.5214 35.5881 55.5264C36.0741 55.5264 36.7421 55.3764 36.7181 56.1614C36.6961 56.8824 36.0601 56.7394 35.5931 56.7394C25.5931 56.7434 15.5931 56.7434 5.59306 56.7394L4.76396 56.7413ZM42.564 18.8944C42.519 18.7544 42.4929 18.6483 42.4519 18.5483C40.9989 15.0293 39.5339 11.5144 38.1029 7.98644C37.9099 7.51044 37.596 7.53838 37.214 7.52538C37.0346 7.48593 36.8469 7.5155 36.6883 7.60814C36.5297 7.70079 36.4117 7.84973 36.358 8.02538C35.01 11.3484 33.625 14.6564 32.252 17.9684C32.129 18.2684 32.0099 18.5623 31.8789 18.8863C35.354 20.0035 39.0911 20.0084 42.569 18.9004L42.564 18.8944ZM23.257 13.1943C23.986 13.1943 24.625 13.1943 25.264 13.1943C25.676 13.1943 26.048 13.2764 26.058 13.7794C26.069 14.3164 25.688 14.4214 25.245 14.4204C24.608 14.4204 23.971 14.4204 23.314 14.4204V21.7374H24.6871V20.9853C24.6871 19.6333 24.6871 18.2817 24.6871 16.9304C24.6871 16.5134 24.787 16.1514 25.287 16.1484C25.787 16.1454 25.912 16.4883 25.912 16.9133C25.912 17.7553 25.912 18.5973 25.912 19.4393C25.912 20.2073 25.912 20.974 25.912 21.7394H27.337V20.9954C27.337 17.8927 27.337 14.79 27.337 11.6874C27.3035 11.469 27.3175 11.246 27.378 11.0334C27.478 10.8334 27.73 10.5564 27.899 10.5674C28.1561 10.6302 28.3792 10.7896 28.522 11.0124C28.622 11.1464 28.565 11.3974 28.565 11.5964C28.565 12.6764 28.565 13.7554 28.565 14.8494C29.3 14.6494 29.754 14.2914 29.793 13.5874C29.8648 12.242 29.8628 10.8935 29.787 9.54833C29.7606 9.23307 29.6289 8.93586 29.413 8.70458C29.1971 8.4733 28.9097 8.3215 28.597 8.27343C28.587 8.48743 28.5851 8.64142 28.5721 8.79442C28.5181 9.42742 28.1829 9.64439 27.5769 9.43639C27.4281 9.39184 27.2854 9.32902 27.152 9.24938C26.6063 8.8794 25.9623 8.68105 25.303 8.6798C24.6437 8.67855 23.9991 8.87451 23.4519 9.24242C22.3779 9.82942 22.108 9.61143 22.019 8.40343C22.019 8.37243 21.969 8.34436 21.839 8.20336C21.539 8.50936 21.082 8.76538 20.985 9.11938C20.553 10.7236 20.5484 12.4129 20.972 14.0194C21.065 14.3834 21.545 14.6504 21.846 14.9614L22.031 14.8274C22.031 13.6584 22.031 12.4904 22.031 11.3214C22.031 10.8994 22.138 10.5454 22.631 10.5404C23.124 10.5354 23.255 10.8743 23.252 11.3033C23.26 11.9003 23.263 12.4934 23.263 13.1924L23.257 13.1943ZM23.073 67.3094H40.4731C40.1279 66.8289 39.6687 66.4415 39.1369 66.1821C38.6051 65.9228 38.0171 65.7995 37.4259 65.8234C33.6579 65.8014 29.8897 65.8014 26.121 65.8234C25.5308 65.8009 24.9442 65.9247 24.4135 66.1838C23.8828 66.4429 23.4244 66.8292 23.079 67.3083L23.073 67.3094ZM33.738 59.3564H29.772V64.5394H33.738V59.3564ZM37.257 1.70238C36.9103 1.70423 36.5773 1.83757 36.3252 2.07555C36.0732 2.31353 35.9208 2.63838 35.899 2.98437C35.8938 3.16173 35.9237 3.33835 35.987 3.50414C36.0502 3.66994 36.1455 3.82169 36.2675 3.95055C36.3895 4.07941 36.5357 4.1829 36.6978 4.25512C36.8599 4.32734 37.0346 4.3668 37.212 4.37133C37.5589 4.3771 37.8944 4.24702 38.1466 4.00878C38.3989 3.77054 38.548 3.44312 38.5621 3.09643C38.5747 2.73909 38.445 2.39127 38.2015 2.12951C37.9579 1.86774 37.6203 1.71346 37.263 1.70043L37.257 1.70238ZM37.934 6.29638C38.61 6.20238 38.899 6.60336 39.087 7.15636C39.1836 7.4731 39.3147 7.77829 39.4779 8.0664C39.5599 8.2004 39.7781 8.24844 39.9421 8.33544L40.028 8.17736L38.774 5.16234C38.299 5.40034 37.65 5.42342 37.94 6.29442L37.934 6.29638ZM34.434 8.22741C34.924 8.48241 34.977 8.12733 35.116 7.85033C35.453 7.18233 35.441 6.19233 36.55 6.27233C36.839 5.43333 36.199 5.39735 35.696 5.17235L34.434 8.22741ZM22.693 40.7744H23.005C23.178 40.5204 23.4581 40.2824 23.4991 40.0094C23.5197 39.9166 23.516 39.82 23.4887 39.729C23.4614 39.638 23.4111 39.5555 23.3428 39.4894C23.2745 39.4233 23.1904 39.3758 23.0986 39.3514C23.0067 39.3271 22.9101 39.3267 22.818 39.3503C22.6709 39.4054 22.5394 39.4955 22.4349 39.6128C22.3303 39.73 22.256 39.871 22.2181 40.0234C22.1931 40.2494 22.523 40.5194 22.696 40.7714L22.693 40.7744ZM40.425 40.7634L40.732 40.7864C40.932 40.5474 41.243 40.3343 41.303 40.0643C41.3284 39.9727 41.3304 39.8763 41.309 39.7837C41.2876 39.6911 41.2434 39.6051 41.1805 39.5339C41.1175 39.4627 41.0377 39.4084 40.9484 39.3758C40.8591 39.3433 40.763 39.3335 40.669 39.3474C40.517 39.3898 40.3777 39.4688 40.2632 39.5774C40.1487 39.686 40.0624 39.8208 40.012 39.9703C39.97 40.2003 40.277 40.4944 40.428 40.7604L40.425 40.7634ZM25.813 7.35436L27.256 7.94738V6.73839L25.813 7.35436ZM23.2961 7.95434L24.781 7.31737L23.2961 6.73034V7.95434ZM37.722 20.9803H36.741V21.7104H37.722V20.9803Z" fill="#2F455C"/>
<path d="M22.7261 3.02319C22.7308 2.34035 23.0049 1.68702 23.4888 1.2052C23.9727 0.723378 24.6272 0.452024 25.3101 0.450195C25.8219 0.450003 26.3222 0.601773 26.7477 0.886231C27.1732 1.17069 27.5047 1.57507 27.7001 2.0481C27.8955 2.52113 27.9462 3.0415 27.8456 3.54334C27.745 4.04517 27.4977 4.50581 27.135 4.86694C26.7724 5.22808 26.3106 5.47343 25.8084 5.5719C25.3061 5.67036 24.7859 5.61751 24.3137 5.42004C23.8416 5.22258 23.4386 4.88947 23.1559 4.46277C22.8733 4.03607 22.7237 3.53501 22.7261 3.02319V3.02319ZM26.631 3.01624C26.6232 2.66947 26.4823 2.33899 26.2375 2.09326C25.9927 1.84753 25.6628 1.70532 25.3161 1.69617C24.9586 1.70703 24.6188 1.85433 24.3665 2.10779C24.1141 2.36124 23.9683 2.70167 23.959 3.0592C23.975 3.40572 24.1212 3.7335 24.3683 3.97693C24.6154 4.22035 24.9453 4.36148 25.292 4.37219C25.4694 4.37261 25.6451 4.33774 25.8089 4.26953C25.9726 4.20132 26.1212 4.1012 26.2459 3.97498C26.3705 3.84875 26.4687 3.69891 26.5348 3.5343C26.601 3.3697 26.6337 3.19361 26.631 3.01624V3.01624Z" fill="#2F455C"/>
<path d="M38.5542 18.8323H37.9881C37.5751 18.8323 37.2382 18.6262 37.2992 18.2252C37.3492 18.084 37.4322 17.9568 37.5412 17.854C37.6503 17.7512 37.7822 17.6759 37.9261 17.6343C38.6331 17.4863 39.3641 17.4522 40.0861 17.3712C40.5171 17.3222 40.9091 17.4713 40.8861 17.9143C40.846 18.0679 40.7693 18.2094 40.6626 18.3268C40.5558 18.4442 40.4222 18.5339 40.2732 18.5883C39.7071 18.7127 39.1325 18.7943 38.5542 18.8323V18.8323Z" fill="#2F455C"/>
</svg>
