<svg width="123" height="53" viewBox="0 0 123 53" fill="none" xmlns="http://www.w3.org/2000/svg">
<path d="M120.415 52.129C121.783 52.129 122.892 51.0201 122.892 49.652C122.892 48.284 121.783 47.175 120.415 47.175C119.047 47.175 117.938 48.284 117.938 49.652C117.938 51.0201 119.047 52.129 120.415 52.129Z" fill="#4A4A4A"/>
<path d="M96.8271 52.129C98.1951 52.129 99.3041 51.0201 99.3041 49.652C99.3041 48.284 98.1951 47.175 96.8271 47.175C95.4591 47.175 94.3501 48.284 94.3501 49.652C94.3501 51.0201 95.4591 52.129 96.8271 52.129Z" fill="#4A4A4A"/>
<path d="M73.2402 52.129C74.6082 52.129 75.7172 51.0201 75.7172 49.652C75.7172 48.284 74.6082 47.175 73.2402 47.175C71.8722 47.175 70.7632 48.284 70.7632 49.652C70.7632 51.0201 71.8722 52.129 73.2402 52.129Z" fill="#4A4A4A"/>
<path d="M49.6518 52.129C51.0198 52.129 52.1288 51.0201 52.1288 49.652C52.1288 48.284 51.0198 47.175 49.6518 47.175C48.2838 47.175 47.1748 48.284 47.1748 49.652C47.1748 51.0201 48.2838 52.129 49.6518 52.129Z" fill="#4A4A4A"/>
<path d="M26.0639 52.129C27.4319 52.129 28.5409 51.0201 28.5409 49.652C28.5409 48.284 27.4319 47.175 26.0639 47.175C24.6959 47.175 23.5869 48.284 23.5869 49.652C23.5869 51.0201 24.6959 52.129 26.0639 52.129Z" fill="#4A4A4A"/>
<path d="M2.477 52.129C3.84501 52.129 4.954 51.0201 4.954 49.652C4.954 48.284 3.84501 47.175 2.477 47.175C1.10899 47.175 0 48.284 0 49.652C0 51.0201 1.10899 52.129 2.477 52.129Z" fill="#4A4A4A"/>
<path d="M120.415 28.5419C121.783 28.5419 122.892 27.4329 122.892 26.0649C122.892 24.6969 121.783 23.5879 120.415 23.5879C119.047 23.5879 117.938 24.6969 117.938 26.0649C117.938 27.4329 119.047 28.5419 120.415 28.5419Z" fill="#4A4A4A"/>
<path d="M96.8271 28.5419C98.1951 28.5419 99.3041 27.4329 99.3041 26.0649C99.3041 24.6969 98.1951 23.5879 96.8271 23.5879C95.4591 23.5879 94.3501 24.6969 94.3501 26.0649C94.3501 27.4329 95.4591 28.5419 96.8271 28.5419Z" fill="#4A4A4A"/>
<path d="M73.2402 28.5419C74.6082 28.5419 75.7172 27.4329 75.7172 26.0649C75.7172 24.6969 74.6082 23.5879 73.2402 23.5879C71.8722 23.5879 70.7632 24.6969 70.7632 26.0649C70.7632 27.4329 71.8722 28.5419 73.2402 28.5419Z" fill="#4A4A4A"/>
<path d="M49.6518 28.5419C51.0198 28.5419 52.1288 27.4329 52.1288 26.0649C52.1288 24.6969 51.0198 23.5879 49.6518 23.5879C48.2838 23.5879 47.1748 24.6969 47.1748 26.0649C47.1748 27.4329 48.2838 28.5419 49.6518 28.5419Z" fill="#4A4A4A"/>
<path d="M26.0639 28.5419C27.4319 28.5419 28.5409 27.4329 28.5409 26.0649C28.5409 24.6969 27.4319 23.5879 26.0639 23.5879C24.6959 23.5879 23.5869 24.6969 23.5869 26.0649C23.5869 27.4329 24.6959 28.5419 26.0639 28.5419Z" fill="#4A4A4A"/>
<path d="M2.477 28.5419C3.84501 28.5419 4.954 27.4329 4.954 26.0649C4.954 24.6969 3.84501 23.5879 2.477 23.5879C1.10899 23.5879 0 24.6969 0 26.0649C0 27.4329 1.10899 28.5419 2.477 28.5419Z" fill="#4A4A4A"/>
<path d="M120.415 4.954C121.783 4.954 122.892 3.84501 122.892 2.477C122.892 1.10899 121.783 0 120.415 0C119.047 0 117.938 1.10899 117.938 2.477C117.938 3.84501 119.047 4.954 120.415 4.954Z" fill="#4A4A4A"/>
<path d="M96.8271 4.954C98.1951 4.954 99.3041 3.84501 99.3041 2.477C99.3041 1.10899 98.1951 0 96.8271 0C95.4591 0 94.3501 1.10899 94.3501 2.477C94.3501 3.84501 95.4591 4.954 96.8271 4.954Z" fill="#4A4A4A"/>
<path d="M73.2402 4.954C74.6082 4.954 75.7172 3.84501 75.7172 2.477C75.7172 1.10899 74.6082 0 73.2402 0C71.8722 0 70.7632 1.10899 70.7632 2.477C70.7632 3.84501 71.8722 4.954 73.2402 4.954Z" fill="#4A4A4A"/>
<path d="M49.6518 4.954C51.0198 4.954 52.1288 3.84501 52.1288 2.477C52.1288 1.10899 51.0198 0 49.6518 0C48.2838 0 47.1748 1.10899 47.1748 2.477C47.1748 3.84501 48.2838 4.954 49.6518 4.954Z" fill="#4A4A4A"/>
<path d="M26.0639 4.954C27.4319 4.954 28.5409 3.84501 28.5409 2.477C28.5409 1.10899 27.4319 0 26.0639 0C24.6959 0 23.5869 1.10899 23.5869 2.477C23.5869 3.84501 24.6959 4.954 26.0639 4.954Z" fill="#4A4A4A"/>
<path d="M2.477 4.954C3.84501 4.954 4.954 3.84501 4.954 2.477C4.954 1.10899 3.84501 0 2.477 0C1.10899 0 0 1.10899 0 2.477C0 3.84501 1.10899 4.954 2.477 4.954Z" fill="#4A4A4A"/>
</svg>
