<svg width="480" height="218" viewBox="0 0 480 218" fill="none" xmlns="http://www.w3.org/2000/svg">
<path d="M191.744 217.307C146.756 217.312 103.143 201.793 68.2703 173.37C33.3972 144.948 9.3997 105.362 0.329102 61.2977L5.43707 60.2528C23.4371 148.236 101.794 212.094 191.744 212.094C236.251 212.141 279.362 196.56 313.554 168.069C347.747 139.578 370.85 99.9858 378.834 56.2008C380.745 45.8235 386.238 36.4463 394.356 29.7055C402.474 22.9646 412.7 19.2879 423.252 19.3168H473.352V24.5299H423.252C413.922 24.5013 404.878 27.749 397.697 33.7069C390.517 39.6648 385.656 47.9544 383.963 57.1298C375.757 102.114 352.019 142.79 316.89 172.062C281.761 201.335 237.471 217.346 191.744 217.303V217.307Z" fill="#1FCFF7"/>
<path d="M456.081 43.2449L452.526 39.4309L471.357 21.9309L452.526 4.43091L456.082 0.611816L479.011 21.9348L456.081 43.2449Z" fill="#1FCFF7"/>
</svg>
