<svg width="64" height="64" viewBox="0 0 64 64" fill="none" xmlns="http://www.w3.org/2000/svg">
<path d="M0.502136 1.62375C0.641113 1.41087 0.835811 1.24017 1.065 1.13016C1.29419 1.02014 1.54916 0.975036 1.80219 0.999754C14.6975 1.01042 27.5928 1.01342 40.4882 1.00876C41.5032 1.00876 41.8022 1.30876 41.8102 2.32876C41.8102 2.93876 41.8102 3.54876 41.8102 4.22876C42.4462 4.14776 43.0102 4.08076 43.5692 4.00476C44.3972 3.89276 44.8121 4.20475 44.9191 5.02575C45.0381 5.93975 45.1752 6.85177 45.2672 7.76877C45.3022 8.11377 45.3952 8.26077 45.7672 8.29477C46.7462 8.38277 47.7192 8.52677 48.6962 8.63977C49.6032 8.73977 49.9231 9.13174 49.8141 10.0317C49.1371 15.6237 48.4332 21.2138 47.8052 26.8118C47.7737 27.7322 47.8499 28.6531 48.0322 29.5558C48.7548 35.2225 49.4851 40.8891 50.2231 46.5558C50.6818 50.1111 51.1408 53.6661 51.6002 57.2208C51.7262 58.1908 51.4752 58.5547 50.5172 58.6797C48.4862 58.9457 46.4542 59.2067 44.4172 59.4457C44.0102 59.4937 43.8062 59.5978 43.7802 60.0598C43.7392 60.8148 43.6242 61.5667 43.5162 62.3177C43.3922 63.1787 43.0311 63.4687 42.1841 63.3677C37.6281 62.8217 33.0781 62.2188 28.5151 61.7448C27.2708 61.6795 26.0231 61.7533 24.7952 61.9648C20.5262 62.4908 16.2632 63.0648 11.9952 63.6138C11.1342 63.7248 10.7951 63.4597 10.6581 62.5807C10.5288 61.7307 10.4211 60.8774 10.3351 60.0208C10.3403 59.9456 10.3295 59.8702 10.3035 59.7995C10.2774 59.7288 10.2367 59.6644 10.184 59.6106C10.1313 59.5568 10.0678 59.5147 9.99768 59.4871C9.92756 59.4596 9.85241 59.4472 9.77716 59.4507C7.70016 59.2207 5.62719 58.9628 3.55219 58.7148C2.68619 58.6148 2.38916 58.2148 2.50616 57.3328C2.55616 56.9518 2.59314 56.5698 2.64014 56.1498C1.86014 56.0498 0.999178 56.3388 0.495178 55.5128V12.9438C0.826178 12.5698 1.16214 12.2048 1.73914 12.4318C2.31614 12.6588 2.34515 13.1317 2.34515 13.6517C2.34515 26.8951 2.34515 40.1384 2.34515 53.3818V54.2258H39.9061V2.89175H2.34515V6.45575C2.34515 7.13275 2.33415 7.80877 2.34515 8.48477C2.35615 9.01077 2.27716 9.49078 1.71716 9.69378C1.15716 9.89678 0.793141 9.55375 0.494141 9.12875L0.502136 1.62375ZM41.8132 9.68475V10.6088C41.8132 25.2694 41.8132 39.9298 41.8132 54.5898C41.8132 55.8898 41.5782 56.1227 40.2642 56.1227H4.54718L4.43317 56.9617L41.7592 61.4528C43.8082 44.4188 45.8501 27.4447 47.9001 10.4147L41.8132 9.68475ZM46.9042 35.0518L46.7961 35.0858L44.0842 57.6378L49.7042 56.9158L46.9042 35.0518ZM19.6321 60.7708L19.6401 60.6567L12.1661 59.7568L12.4142 61.6478C12.5137 61.6595 12.614 61.6638 12.7142 61.6608C15.0182 61.3654 17.3238 61.0688 19.6312 60.7708H19.6321ZM43.1691 5.97577C41.7851 5.98577 41.7851 5.98577 41.8141 7.30377C41.8271 7.90377 42.0632 7.99676 43.4302 7.94076L43.1691 5.97577Z" fill="#2F455C"/>
<path d="M16.2692 37.0317C16.2318 36.5621 16.2391 36.0899 16.2912 35.6217C16.3706 35.2581 16.5565 34.9263 16.8252 34.6687C17.0042 34.5017 17.2962 34.4948 17.2582 34.1328C17.2202 33.7708 17.3282 33.3917 16.8892 33.1207C15.6678 32.3506 14.6953 31.2434 14.0892 29.9327C13.4023 28.4991 13.1716 26.8894 13.428 25.3205C13.6844 23.7516 14.4156 22.2991 15.5232 21.1588C16.6286 20.0175 18.0544 19.2387 19.6119 18.9254C21.1695 18.612 22.7855 18.7788 24.2462 19.4038C25.6962 20.0284 26.9222 21.079 27.7615 22.4163C28.6009 23.7535 29.014 25.3143 28.9462 26.8917C28.9095 28.137 28.5704 29.3546 27.9582 30.4396C27.346 31.5246 26.4791 32.4444 25.4322 33.1198C25.2926 33.1994 25.1775 33.3158 25.0995 33.4564C25.0215 33.5969 24.9836 33.7561 24.9899 33.9168C24.9962 34.0774 25.0464 34.2332 25.1352 34.3672C25.2239 34.5012 25.3478 34.6082 25.4932 34.6767C25.6275 34.7754 25.7401 34.9006 25.8241 35.0446C25.908 35.1885 25.9615 35.3482 25.9812 35.5137C26.037 36.6603 26.0276 37.8092 25.9532 38.9547C25.8493 39.8729 25.4107 40.7207 24.7211 41.3358C24.0314 41.9509 23.1393 42.2901 22.2152 42.2887C20.9747 42.4964 19.7012 42.3708 18.5252 41.9248C17.8306 41.6043 17.2461 41.0858 16.8453 40.4342C16.4444 39.7827 16.245 39.0272 16.2722 38.2627C16.2622 37.8517 16.2692 37.4407 16.2692 37.0317ZM20.1792 28.4837C19.4962 28.4837 18.8442 28.5068 18.1942 28.4768C18.0757 28.4797 17.9577 28.4591 17.8472 28.4163C17.7366 28.3735 17.6355 28.3093 17.5499 28.2274C17.4642 28.1454 17.3955 28.0473 17.3479 27.9387C17.3002 27.8302 17.2745 27.7133 17.2722 27.5947C17.2755 27.3569 17.3685 27.129 17.5326 26.9568C17.6967 26.7845 17.9198 26.6806 18.1572 26.6657C18.2995 26.6482 18.4428 26.6412 18.5862 26.6447C20.2875 26.6447 21.9875 26.6447 23.6862 26.6447C23.911 26.64 24.1355 26.6642 24.3542 26.7167C24.5581 26.7596 24.738 26.8787 24.8571 27.0496C24.9762 27.2206 25.0256 27.4306 24.9952 27.6367C24.9992 27.8344 24.9299 28.0265 24.8006 28.1761C24.6714 28.3257 24.4914 28.4221 24.2952 28.4467C24.0112 28.4851 23.7246 28.5005 23.4382 28.4927C22.9962 28.4987 22.5532 28.4927 22.0972 28.4927V34.4927H23.2302C23.052 33.8928 23.0935 33.2489 23.3473 32.6769C23.6012 32.1048 24.0507 31.6421 24.6152 31.3717C25.5855 30.7672 26.3385 29.8699 26.7653 28.8093C27.1921 27.7487 27.2705 26.5798 26.9892 25.4717C26.7961 24.2958 26.2426 23.2088 25.4052 22.361C24.5678 21.5131 23.4877 20.9463 22.3142 20.7387C21.4076 20.5639 20.4728 20.6009 19.5829 20.8469C18.6929 21.0928 17.8718 21.541 17.1836 22.1566C16.4954 22.7721 15.9587 23.5383 15.6153 24.3954C15.272 25.2525 15.1313 26.1773 15.2042 27.0977C15.2827 28.0934 15.6132 29.0527 16.1646 29.8854C16.716 30.7181 17.4702 31.3968 18.3562 31.8577C18.6018 31.9614 18.8074 32.1416 18.9423 32.3715C19.0773 32.6014 19.1344 32.8688 19.1052 33.1337C19.0732 33.5767 19.0992 34.0237 19.0992 34.4987H20.1772L20.1792 28.4837ZM18.1622 36.4337C18.1276 37.1945 18.1329 37.9565 18.1782 38.7167C18.2089 39.1631 18.4028 39.5826 18.723 39.8952C19.0432 40.2078 19.4672 40.3917 19.9142 40.4118C20.7687 40.4799 21.6276 40.4745 22.4812 40.3958C22.8567 40.3791 23.2153 40.2349 23.4979 39.9872C23.7806 39.7394 23.9704 39.4028 24.0362 39.0327C24.1442 38.1704 24.1953 37.3018 24.1892 36.4327L18.1622 36.4337Z" fill="#2F455C"/>
<path d="M15.4523 15.4297C15.687 15.5819 15.8985 15.7672 16.0803 15.9798C16.4088 16.4711 16.7063 16.9824 16.9713 17.5108C17.0444 17.6165 17.0947 17.7363 17.1189 17.8625C17.1432 17.9887 17.1409 18.1186 17.1122 18.2439C17.0835 18.3692 17.0291 18.4871 16.9523 18.5902C16.8755 18.6933 16.7781 18.7793 16.6663 18.8427C16.5538 18.9034 16.43 18.9403 16.3027 18.9513C16.1754 18.9623 16.0471 18.947 15.9259 18.9066C15.8046 18.8661 15.693 18.8012 15.5978 18.716C15.5025 18.6307 15.4258 18.5268 15.3723 18.4107C15.0321 17.8782 14.7191 17.3288 14.4343 16.7647C14.1203 16.1097 14.5753 15.4087 15.4523 15.4297Z" fill="#2F455C"/>
<path d="M22.0451 15.7336C22.0451 16.1006 22.0721 16.4686 22.0381 16.8336C22.032 17.041 21.9468 17.2383 21.7999 17.3848C21.653 17.5314 21.4556 17.6161 21.2481 17.6216C21.1422 17.6479 21.0319 17.6513 20.9246 17.6316C20.8173 17.6118 20.7155 17.5694 20.6259 17.5071C20.5364 17.4448 20.4611 17.3641 20.4053 17.2704C20.3494 17.1766 20.3143 17.072 20.3021 16.9636C20.2346 16.1557 20.2346 15.3436 20.3021 14.5356C20.313 14.4271 20.3467 14.3221 20.4011 14.2275C20.4554 14.1329 20.5292 14.0508 20.6175 13.9868C20.7058 13.9228 20.8067 13.8782 20.9135 13.8559C21.0203 13.8336 21.1306 13.8342 21.2371 13.8576C21.456 13.8621 21.6642 13.9527 21.8166 14.1098C21.969 14.2669 22.0533 14.4778 22.0511 14.6966C22.0711 15.0416 22.0511 15.3886 22.0511 15.7356L22.0451 15.7336Z" fill="#2F455C"/>
<path d="M12.7611 22.6357C12.5485 22.5856 12.3402 22.5187 12.1381 22.4357C11.5691 22.1197 10.9941 21.8097 10.4491 21.4557C10.3432 21.402 10.2497 21.3268 10.1744 21.235C10.0992 21.1431 10.044 21.0366 10.0122 20.9222C9.98036 20.8078 9.97278 20.688 9.98982 20.5705C10.0069 20.453 10.0482 20.3404 10.1112 20.2397C10.164 20.1341 10.2377 20.0402 10.3278 19.9639C10.4179 19.8875 10.5226 19.8301 10.6354 19.7953C10.7483 19.7604 10.8671 19.7487 10.9846 19.761C11.1021 19.7733 11.2159 19.8093 11.3191 19.8667C11.9461 20.159 12.5419 20.5141 13.0971 20.9267C13.2247 21.0541 13.3215 21.209 13.3799 21.3796C13.4383 21.5502 13.4569 21.7319 13.4342 21.9108C13.3722 22.2028 12.9741 22.4227 12.7611 22.6357Z" fill="#2F455C"/>
<path d="M32.303 20.8768C32.1739 21.1024 32.0083 21.3052 31.813 21.4767C31.3035 21.8196 30.7735 22.1309 30.2259 22.4088C30.1193 22.4814 29.9987 22.5309 29.8718 22.554C29.7449 22.577 29.6145 22.5732 29.4892 22.5428C29.3638 22.5123 29.2463 22.4559 29.1441 22.3772C29.0419 22.2985 28.9574 22.1992 28.896 22.0858C28.8359 21.9776 28.7985 21.8584 28.7862 21.7353C28.7739 21.6122 28.7869 21.4879 28.8244 21.37C28.8618 21.2521 28.923 21.1431 29.0041 21.0497C29.0852 20.9563 29.1845 20.8804 29.2959 20.8268C29.8302 20.484 30.3816 20.1686 30.948 19.8818C31.62 19.5548 32.318 19.9878 32.303 20.8768Z" fill="#2F455C"/>
<path d="M28.043 16.1737C27.9974 16.3887 27.9339 16.5995 27.853 16.8037C27.539 17.3747 27.2259 17.9467 26.8779 18.4967C26.7631 18.7052 26.5704 18.8597 26.3419 18.9264C26.1135 18.9931 25.8679 18.9666 25.6589 18.8528C25.5534 18.7995 25.4595 18.7257 25.3828 18.6357C25.3061 18.5456 25.2482 18.4412 25.2125 18.3285C25.1767 18.2158 25.1638 18.0971 25.1746 17.9793C25.1853 17.8616 25.2194 17.7471 25.275 17.6427C25.5652 17.0145 25.919 16.4178 26.3309 15.8618C26.4575 15.733 26.6117 15.6348 26.7818 15.5745C26.9519 15.5142 27.1336 15.4934 27.3129 15.5138C27.6059 15.5718 27.827 15.9667 28.043 16.1737Z" fill="#2F455C"/>
<path d="M10.2753 27.4777C9.9088 27.4953 9.54162 27.493 9.17535 27.4708C9.06723 27.4639 8.96148 27.4357 8.86432 27.3878C8.76716 27.3398 8.68048 27.2731 8.60925 27.1915C8.53802 27.1098 8.48372 27.0149 8.4494 26.9121C8.41508 26.8093 8.40142 26.7008 8.4093 26.5927C8.39698 26.4898 8.40545 26.3855 8.4342 26.286C8.46296 26.1864 8.51143 26.0936 8.57672 26.0131C8.642 25.9326 8.72278 25.8661 8.81427 25.8174C8.90576 25.7687 9.00608 25.7389 9.10931 25.7297C9.899 25.6742 10.6916 25.6742 11.4813 25.7297C11.5897 25.7384 11.695 25.7698 11.7905 25.8218C11.886 25.8738 11.9695 25.9453 12.0355 26.0317C12.1015 26.1181 12.1486 26.2174 12.1738 26.3232C12.1989 26.429 12.2015 26.5389 12.1813 26.6458C12.1874 26.8538 12.1121 27.056 11.9716 27.2095C11.831 27.3629 11.6361 27.4556 11.4283 27.4677C11.0445 27.4916 10.6596 27.495 10.2753 27.4777V27.4777Z" fill="#2F455C"/>
<path d="M32.0041 27.4897C31.6561 27.4897 31.3042 27.5127 30.9612 27.4897C30.8472 27.4913 30.7341 27.4694 30.629 27.4253C30.5239 27.3812 30.4291 27.316 30.3503 27.2336C30.2716 27.1512 30.2107 27.0534 30.1714 26.9465C30.1322 26.8395 30.1154 26.7255 30.1221 26.6117C30.1066 26.5034 30.1141 26.393 30.144 26.2877C30.1739 26.1824 30.2257 26.0846 30.2958 26.0006C30.366 25.9166 30.4529 25.8483 30.5512 25.8001C30.6494 25.7519 30.7568 25.7248 30.8661 25.7207C31.6201 25.6734 32.3762 25.6734 33.1301 25.7207C33.2395 25.7242 33.3469 25.7507 33.4454 25.7983C33.5439 25.8459 33.6313 25.9136 33.702 25.9971C33.7727 26.0806 33.8251 26.178 33.8558 26.283C33.8864 26.388 33.8947 26.4983 33.8801 26.6067C33.8878 26.7205 33.872 26.8346 33.8335 26.9419C33.7951 27.0492 33.7348 27.1474 33.6566 27.2303C33.5784 27.3132 33.4839 27.379 33.379 27.4237C33.2741 27.4683 33.1611 27.4908 33.0472 27.4897C32.7022 27.5127 32.3521 27.4897 32.0041 27.4897Z" fill="#2F455C"/>
<path d="M32.3042 32.3758C32.3235 32.5403 32.298 32.7069 32.2304 32.8582C32.1629 33.0094 32.0558 33.1396 31.9205 33.2351C31.7852 33.3306 31.6266 33.3879 31.4615 33.4008C31.2964 33.4138 31.1308 33.382 30.9823 33.3087C30.3595 33.0016 29.7581 32.6528 29.1822 32.2647C29.0835 32.2073 28.9977 32.1303 28.93 32.0383C28.8624 31.9463 28.8144 31.8414 28.789 31.7301C28.7636 31.6188 28.7613 31.5034 28.7823 31.3912C28.8034 31.279 28.8472 31.1723 28.9112 31.0777C28.9562 30.9779 29.0211 30.8883 29.1018 30.8143C29.1825 30.7403 29.2774 30.6835 29.3808 30.6473C29.4841 30.6111 29.5937 30.5963 29.703 30.6037C29.8122 30.6112 29.9188 30.6408 30.0163 30.6908C30.6945 31.0232 31.3478 31.4042 31.9712 31.8308C32.1652 31.9578 32.2412 32.2588 32.3042 32.3758Z" fill="#2F455C"/>
<path d="M13.5209 31.6976C13.423 31.9101 13.284 32.1011 13.1119 32.2596C12.535 32.6481 11.9338 32.9992 11.312 33.3107C11.207 33.3667 11.0918 33.401 10.9733 33.4115C10.8548 33.4221 10.7354 33.4087 10.6222 33.3721C10.509 33.3355 10.4044 33.2765 10.3145 33.1986C10.2246 33.1207 10.1513 33.0255 10.0989 32.9186C10.0401 32.8208 10.0018 32.712 9.98633 32.5989C9.97083 32.4858 9.97843 32.3708 10.0087 32.2607C10.039 32.1507 10.0914 32.0479 10.1626 31.9587C10.2338 31.8694 10.3223 31.7956 10.4229 31.7416C10.9845 31.3665 11.5694 31.0275 12.174 30.7266C12.3269 30.6493 12.4981 30.6155 12.6689 30.6288C12.8398 30.6422 13.0037 30.7023 13.1427 30.8025C13.2817 30.9027 13.3906 31.0392 13.4573 31.1971C13.524 31.3549 13.546 31.5281 13.5209 31.6976V31.6976Z" fill="#2F455C"/>
<path d="M55.74 35.6457C55.74 29.4964 55.7434 23.3471 55.75 17.1977C55.7548 16.7711 55.8322 16.3483 55.979 15.9477C56.834 13.6027 57.719 11.2688 58.593 8.93075C58.636 8.81575 58.648 8.66474 58.73 8.59274C59.006 8.35174 59.28 8.02077 59.605 7.94577C60.046 7.84577 60.362 8.18875 60.519 8.60775C61.4897 11.1938 62.4564 13.7814 63.419 16.3708C63.4877 16.6059 63.5154 16.8512 63.501 17.0957C63.5044 29.3531 63.5044 41.6104 63.501 53.8678C63.5459 54.3053 63.4926 54.7472 63.3449 55.1615C63.1972 55.5757 62.9589 55.9518 62.6474 56.2622C62.3359 56.5727 61.959 56.8097 61.5443 56.956C61.1295 57.1022 60.6874 57.1541 60.25 57.1078C59.84 57.1078 59.43 57.1078 59.02 57.1078C58.5784 57.1601 58.1306 57.112 57.7102 56.9669C57.2897 56.8219 56.9075 56.5838 56.592 56.2703C56.2766 55.9568 56.0359 55.5761 55.8882 55.1566C55.7405 54.7371 55.6896 54.2897 55.739 53.8477C55.7377 47.7804 55.738 41.7131 55.74 35.6457ZM57.64 17.6737V50.2907H61.61V17.6737H57.64ZM57.588 52.2057C57.588 52.8807 57.575 53.4927 57.588 54.1057C57.5749 54.2557 57.594 54.4067 57.644 54.5487C57.694 54.6907 57.7737 54.8204 57.8778 54.9291C57.9819 55.0378 58.1081 55.1229 58.2478 55.1789C58.3876 55.2349 58.5376 55.2604 58.688 55.2537C59.301 55.2847 59.918 55.2827 60.531 55.2537C60.6657 55.2637 60.801 55.2467 60.929 55.2039C61.0571 55.1612 61.1754 55.0934 61.2771 55.0046C61.3787 54.9158 61.4618 54.8077 61.5213 54.6865C61.5809 54.5653 61.6158 54.4335 61.624 54.2987C61.671 53.6127 61.635 52.9208 61.635 52.2068L57.588 52.2057ZM61.217 15.7608L59.617 11.4757L58.017 15.7608H61.217Z" fill="#2F455C"/>
</svg>
