<svg width="332" height="336" viewBox="0 0 332 336" fill="none" xmlns="http://www.w3.org/2000/svg">
<g style="mix-blend-mode:screen" opacity="0.5">
<g style="mix-blend-mode:screen" opacity="0.5">
<path d="M0.487793 138.101V197.685C1.26513 202.026 2.20854 206.305 3.31787 210.524V125.262C2.21387 129.48 1.27046 133.76 0.487793 138.101Z" fill="#4A4A4A"/>
</g>
<g style="mix-blend-mode:screen" opacity="0.5">
<path d="M17.7446 88.5452V247.245C18.6593 248.949 19.6027 250.635 20.5747 252.302V83.488C19.6027 85.156 18.6593 86.8418 17.7446 88.5452Z" fill="#4A4A4A"/>
</g>
<g style="mix-blend-mode:screen" opacity="0.5">
<path d="M35.002 62.5402V273.249C35.9306 274.401 36.8735 275.54 37.8308 276.667V59.118C36.8728 60.2474 35.93 61.3882 35.002 62.5402Z" fill="#4A4A4A"/>
</g>
<g style="mix-blend-mode:screen" opacity="0.5">
<path d="M52.2598 44.13V291.658C53.1931 292.515 54.1363 293.362 55.0896 294.196V41.5961C54.1369 42.4294 53.1938 43.274 52.2598 44.13Z" fill="#4A4A4A"/>
</g>
<g style="mix-blend-mode:screen" opacity="0.5">
<path d="M69.52 30.2561V305.531C70.4574 306.188 71.4005 306.837 72.3491 307.478V28.3101C71.3965 28.9487 70.4534 29.5974 69.52 30.2561Z" fill="#4A4A4A"/>
</g>
<g style="mix-blend-mode:screen" opacity="0.5">
<path d="M86.7739 19.6481V316.142C87.7129 316.642 88.6538 317.142 89.6028 317.627V18.1581C88.6538 18.6471 87.7149 19.1461 86.7739 19.6481Z" fill="#4A4A4A"/>
</g>
<g style="mix-blend-mode:screen" opacity="0.5">
<path d="M104.031 11.642V324.147C104.969 324.519 105.915 324.874 106.861 325.229V10.5599C105.91 10.9149 104.969 11.271 104.031 11.642Z" fill="#4A4A4A"/>
</g>
<g style="mix-blend-mode:screen" opacity="0.5">
<path d="M121.288 5.88708V329.904C122.229 330.162 123.17 330.42 124.117 330.663V5.12805C123.17 5.37005 122.229 5.62808 121.288 5.88708Z" fill="#4A4A4A"/>
</g>
<g style="mix-blend-mode:screen" opacity="0.5">
<path d="M138.546 2.12195V333.669C139.487 333.822 140.43 333.969 141.376 334.108V1.68201C140.43 1.82001 139.487 1.96661 138.546 2.12195Z" fill="#4A4A4A"/>
</g>
<g style="mix-blend-mode:screen" opacity="0.5">
<path d="M155.803 0.208984V335.581C156.744 335.636 157.687 335.684 158.633 335.724V0.0661621C157.687 0.105495 156.744 0.152984 155.803 0.208984Z" fill="#4A4A4A"/>
</g>
<g style="mix-blend-mode:screen" opacity="0.5">
<path d="M173.06 0.0661621V335.723C174.005 335.683 174.948 335.635 175.889 335.58V0.208984C174.948 0.153651 174.005 0.106162 173.06 0.0661621Z" fill="#4A4A4A"/>
</g>
<g style="mix-blend-mode:screen" opacity="0.5">
<path d="M190.318 1.68201V334.108C191.264 333.97 192.207 333.823 193.148 333.668V2.12219C192.207 1.96886 191.263 1.82201 190.318 1.68201Z" fill="#4A4A4A"/>
</g>
<g style="mix-blend-mode:screen" opacity="0.5">
<path d="M207.575 5.12903V330.661C208.523 330.419 209.464 330.161 210.405 329.902V5.88708C209.464 5.62908 208.522 5.37103 207.575 5.12903Z" fill="#4A4A4A"/>
</g>
<g style="mix-blend-mode:screen" opacity="0.5">
<path d="M224.833 10.5609V325.228C225.779 324.874 226.725 324.517 227.662 324.146V11.6461C226.724 11.2721 225.777 10.9159 224.833 10.5609Z" fill="#4A4A4A"/>
</g>
<g style="mix-blend-mode:screen" opacity="0.5">
<path d="M242.089 18.163V317.626C243.039 317.142 243.98 316.642 244.919 316.14V19.649C243.979 19.147 243.038 18.648 242.089 18.163Z" fill="#4A4A4A"/>
</g>
<g style="mix-blend-mode:screen" opacity="0.5">
<path d="M259.346 28.312V307.478C260.297 306.839 261.24 306.19 262.176 305.531V30.2581C261.236 29.6014 260.293 28.9527 259.346 28.312Z" fill="#4A4A4A"/>
</g>
<g style="mix-blend-mode:screen" opacity="0.5">
<path d="M276.604 41.593V294.193C277.556 293.358 278.499 292.512 279.433 291.655V44.1311C278.499 43.2744 277.556 42.4284 276.604 41.593Z" fill="#4A4A4A"/>
</g>
<g style="mix-blend-mode:screen" opacity="0.5">
<path d="M293.858 59.123V276.665C294.816 275.539 295.759 274.4 296.687 273.247V62.541C295.761 61.391 294.818 60.2517 293.858 59.123Z" fill="#4A4A4A"/>
</g>
<g style="mix-blend-mode:screen" opacity="0.5">
<path d="M311.119 83.4889V252.297C312.09 250.63 313.033 248.944 313.949 247.239V88.547C313.033 86.8423 312.09 85.1562 311.119 83.4889Z" fill="#4A4A4A"/>
</g>
<g style="mix-blend-mode:screen" opacity="0.5">
<path d="M328.376 125.263V210.524C329.479 206.306 330.422 202.026 331.205 197.685V138.102C330.428 133.761 329.485 129.482 328.376 125.263Z" fill="#4A4A4A"/>
</g>
</g>
</svg>
