<svg width="54" height="54" viewBox="0 0 54 54" fill="none" xmlns="http://www.w3.org/2000/svg">
<path d="M39.8088 38.3956C41.5862 36.9802 43.8484 36.3195 46.1081 36.5557C48.3679 36.7919 50.4445 37.9062 51.8908 39.6586C53.2426 41.3119 53.9355 43.4066 53.8364 45.5399C53.7372 47.6732 52.8531 49.6947 51.3538 51.2156C49.8598 52.7137 47.8696 53.6138 45.758 53.7462C43.6464 53.8786 41.5592 53.2343 39.8898 51.9346C38.993 51.2244 38.245 50.3443 37.6887 49.3448C37.1324 48.3452 36.7787 47.2457 36.6478 46.1093C36.5169 44.9729 36.6114 43.8217 36.926 42.7218C37.2405 41.622 37.7689 40.595 38.4808 39.6996L34.3508 35.5726C32.7816 36.8986 30.8805 37.7717 28.8521 38.0981C26.8237 38.4244 24.7447 38.1915 22.8388 37.4245L21.0228 41.0386C21.7849 41.574 22.4136 42.2775 22.8602 43.0947C23.3069 43.912 23.5596 44.821 23.5988 45.7516C23.6807 47.169 23.2422 48.5676 22.3658 49.6846C21.5041 50.82 20.2689 51.6145 18.8783 51.9278C17.4877 52.241 16.0311 52.0529 14.7658 51.3965C13.4922 50.7348 12.4945 49.6429 11.9501 48.3149C11.4058 46.9868 11.35 45.5088 11.7928 44.1435C12.8358 41.0025 15.5208 39.6265 19.4978 40.2245L21.2288 36.7726C20.2461 35.9414 19.3163 35.0496 18.4448 34.1025C17.6722 33.0451 16.9655 31.941 16.3288 30.7966L8.9888 32.7696C8.5888 35.6696 7.1988 37.2285 4.92079 37.3595C3.93486 37.4174 2.95913 37.1336 2.15802 36.556C1.35691 35.9783 0.779393 35.1422 0.522795 34.1885C0.264893 33.2235 0.352658 32.1987 0.770885 31.2916C1.18911 30.3844 1.91146 29.6521 2.8128 29.2215C4.8568 28.2475 6.8638 28.9035 8.5128 31.1105L16.0128 29.0906C15.7078 24.6116 15.9758 23.6136 18.5068 19.7256L14.3778 15.5986C12.5865 17.0259 10.3049 17.6899 8.02739 17.4465C5.74991 17.2032 3.66007 16.0722 2.2108 14.2986C0.88096 12.6521 0.198805 10.5764 0.292735 8.46202C0.386664 6.34769 1.2502 4.34057 2.7208 2.81853C4.20316 1.29472 6.19352 0.368389 8.31389 0.21538C10.4343 0.0623704 12.537 0.693384 14.2228 1.98857C15.1314 2.69797 15.8905 3.58033 16.4562 4.5847C17.0219 5.58908 17.3831 6.69554 17.5188 7.84026C17.6546 8.98498 17.5622 10.1452 17.2471 11.2541C16.9319 12.3629 16.4003 13.3983 15.6828 14.3005L19.8118 18.4175C21.4385 17.0457 23.4199 16.1617 25.5275 15.8677C27.635 15.5736 29.7827 15.8814 31.7228 16.7555L33.3558 13.7925C32.7149 13.2791 32.2044 12.6215 31.8657 11.8735C31.527 11.1254 31.3698 10.3079 31.4068 9.48754C31.4466 8.26966 31.9266 7.10752 32.7578 6.21654C33.5768 5.31733 34.6861 4.73497 35.8913 4.57152C37.0966 4.40807 38.3209 4.67395 39.3498 5.32256C40.3842 5.97882 41.1542 6.97875 41.5244 8.14653C41.8946 9.31432 41.8413 10.5752 41.3738 11.7076C40.8565 12.9244 39.8993 13.9014 38.6933 14.4434C37.4873 14.9854 36.1212 15.0527 34.8678 14.6316L34.0548 16.1105L33.2308 17.6105C34.601 18.5236 35.7602 19.719 36.6308 21.1166C37.4868 22.5213 38.0343 24.092 38.2368 25.7245L47.0018 25.4006C47.0578 25.2426 47.1088 25.0955 47.1628 24.9485C47.4319 24.2062 47.9485 23.5793 48.6257 23.1731C49.3028 22.767 50.0992 22.6065 50.8808 22.7186C51.6802 22.839 52.412 23.2362 52.9485 23.8409C53.485 24.4456 53.7923 25.2195 53.8168 26.0276C53.8335 26.8072 53.5855 27.5694 53.1134 28.19C52.6412 28.8106 51.9726 29.2528 51.2168 29.4446C50.4412 29.6385 49.6221 29.5541 48.9025 29.2059C48.1828 28.8578 47.6081 28.268 47.2788 27.5395C47.1578 27.2765 47.0598 27.1085 46.7078 27.1235C43.9758 27.2445 41.2438 27.3405 38.5078 27.4455C38.4377 27.4563 38.3685 27.4723 38.3008 27.4936C38.1814 29.9713 37.2518 32.3413 35.6548 34.2395L39.8088 38.3956ZM27.0488 17.5005C24.5372 17.5114 22.1319 18.5152 20.3577 20.2929C18.5836 22.0706 17.5846 24.478 17.5788 26.9895C17.5808 29.5011 18.5749 31.9101 20.3446 33.6921C22.1143 35.4742 24.5164 36.485 27.0278 36.5046C29.5395 36.514 31.953 35.5299 33.742 33.7669C35.531 32.0039 36.5504 29.6051 36.5778 27.0936C36.5901 25.8357 36.3525 24.588 35.8788 23.4228C35.4051 22.2575 34.7047 21.1979 33.8182 20.3055C32.9317 19.4131 31.8769 18.7056 30.7148 18.2241C29.5528 17.7426 28.3067 17.4966 27.0488 17.5005V17.5005ZM17.5668 50.3255C18.7045 50.3267 19.7968 49.8794 20.6069 49.0807C21.4171 48.2819 21.8798 47.1961 21.8948 46.0585C21.9001 45.4859 21.7918 44.918 21.5761 44.3876C21.3604 43.8572 21.0417 43.3748 20.6383 42.9684C20.235 42.562 19.755 42.2396 19.2263 42.0199C18.6975 41.8002 18.1304 41.6876 17.5578 41.6885C16.4192 41.6946 15.329 42.1495 14.5239 42.9546C13.7188 43.7597 13.2638 44.85 13.2578 45.9886C13.2557 46.5565 13.3655 47.1192 13.581 47.6446C13.7965 48.1701 14.1135 48.6479 14.5138 49.0508C14.914 49.4536 15.3898 49.7737 15.9138 49.9926C16.4378 50.2115 16.9999 50.3249 17.5678 50.3265L17.5668 50.3255ZM11.5098 8.65752C12.3209 9.13396 12.9917 9.81624 13.4544 10.6352C13.9171 11.4542 14.1553 12.3809 14.1448 13.3215C15.3318 11.9662 15.9369 10.1977 15.8291 8.39928C15.7213 6.60086 14.9092 4.91738 13.5688 3.71355C12.8755 3.08883 12.0628 2.61096 11.1799 2.3087C10.2969 2.00645 9.36188 1.88605 8.43116 1.95482C7.50043 2.02359 6.59326 2.2801 5.7643 2.70885C4.93535 3.1376 4.20178 3.72973 3.6078 4.44957C2.56174 5.68791 1.99941 7.26307 2.02478 8.8839C2.05015 10.5047 2.6615 12.0615 3.7458 13.2665C3.74053 12.3286 3.98311 11.4059 4.44897 10.5918C4.91484 9.77777 5.58746 9.10118 6.3988 8.63054C5.1358 6.85854 5.2128 5.03053 6.5668 3.74553C7.17454 3.17207 7.96914 2.8377 8.80406 2.80406C9.63897 2.77043 10.4579 3.03982 11.1098 3.56255C12.6148 4.76555 12.7628 6.54952 11.5098 8.65752ZM42.6548 44.9426C41.4248 42.8646 41.5408 41.1425 42.9698 39.9205C43.59 39.3884 44.3787 39.0932 45.1959 39.0874C46.0131 39.0815 46.806 39.3654 47.4338 39.8885C48.0826 40.4188 48.5104 41.1718 48.6338 42.0005C48.7136 42.5223 48.6759 43.0553 48.5235 43.5607C48.3711 44.066 48.1078 44.5309 47.7528 44.9216C48.5731 45.398 49.2524 46.0833 49.7218 46.9076C50.1911 47.732 50.4337 48.666 50.4248 49.6145C51.0218 48.9314 51.4774 48.1366 51.7651 47.2761C52.0528 46.4157 52.1669 45.5067 52.1009 44.6018C52.0349 43.6969 51.79 42.8142 51.3804 42.0046C50.9708 41.1951 50.4047 40.4748 49.7148 39.8855C49.0064 39.2783 48.1824 38.8207 47.2924 38.5406C46.4024 38.2604 45.4649 38.1634 44.5364 38.2555C43.6079 38.3475 42.7076 38.6267 41.89 39.0762C41.0723 39.5256 40.3541 40.136 39.7788 40.8705C37.2678 44.0845 38.4028 48.1285 40.0238 49.5425C40.0187 48.6119 40.2593 47.6965 40.7212 46.8886C41.1832 46.0807 41.8502 45.4092 42.6548 44.9416V44.9426ZM40.0338 9.73357C40.0346 9.27907 39.9458 8.82884 39.7725 8.40868C39.5992 7.98852 39.3448 7.60663 39.0239 7.28484C38.7029 6.96304 38.3217 6.70769 37.902 6.53331C37.4823 6.35893 37.0323 6.26893 36.5778 6.26854C36.1231 6.26959 35.6731 6.36027 35.2535 6.53539C34.834 6.7105 34.453 6.96664 34.1325 7.28911C33.812 7.61158 33.5582 7.99408 33.3856 8.41472C33.213 8.83537 33.1251 9.28586 33.1268 9.74053C33.1328 10.6489 33.4957 11.5186 34.1372 12.1618C34.7787 12.805 35.6474 13.1702 36.5558 13.1786C37.0104 13.1808 37.461 13.0934 37.8818 12.9215C38.3026 12.7496 38.6855 12.4964 39.0084 12.1765C39.3314 11.8566 39.5882 11.4762 39.7641 11.0571C39.9401 10.6379 40.0317 10.1882 40.0338 9.73357V9.73357ZM7.2108 33.0676C7.21158 32.7256 7.14492 32.3869 7.01461 32.0707C6.8843 31.7546 6.69291 31.4673 6.4514 31.2252C6.20989 30.9831 5.923 30.7911 5.60716 30.66C5.29132 30.529 4.95274 30.4615 4.6108 30.4615C3.92987 30.4673 3.27837 30.7399 2.79631 31.2208C2.31425 31.7018 2.0401 32.3526 2.0328 33.0336C2.03201 33.3755 2.09867 33.7142 2.22898 34.0304C2.35929 34.3465 2.55068 34.6338 2.79219 34.8759C3.0337 35.118 3.32059 35.31 3.63643 35.4411C3.95227 35.5721 4.29085 35.6396 4.6328 35.6396C5.31372 35.6338 5.96522 35.3612 6.44728 34.8802C6.92934 34.3993 7.20349 33.7485 7.2108 33.0676V33.0676ZM12.2398 12.2886C12.054 11.5372 11.6161 10.8724 10.999 10.4052C10.382 9.93798 9.62335 9.69663 8.8498 9.72154C8.10748 9.73476 7.39053 9.99397 6.81141 10.4585C6.23228 10.9231 5.82372 11.5668 5.6498 12.2886H12.2398ZM48.5058 48.5676C48.3161 47.7935 47.8579 47.1118 47.2128 46.6438C46.5677 46.1758 45.7775 45.9517 44.9828 46.0115C44.2639 46.0493 43.5775 46.3231 43.0299 46.7904C42.4824 47.2577 42.1041 47.8925 41.9538 48.5965H48.3038C48.3716 48.5929 48.4391 48.5845 48.5058 48.5715V48.5676ZM40.7558 50.3475C41.9789 51.4334 43.5577 52.0331 45.1933 52.0331C46.8289 52.0331 48.4077 51.4334 49.6308 50.3475H40.7558ZM4.5408 14.0726C6.8708 16.3986 11.3078 16.2316 13.3268 14.0726H4.5408ZM10.6648 6.26555C10.6625 5.81086 10.4814 5.37533 10.1607 5.05297C9.84005 4.7306 9.40547 4.54725 8.9508 4.54253C8.72111 4.54184 8.49358 4.58691 8.28147 4.67504C8.06937 4.76316 7.87692 4.89265 7.71534 5.05589C7.55377 5.21914 7.4263 5.4129 7.34036 5.6259C7.25443 5.83891 7.21174 6.06689 7.2148 6.29656C7.22372 6.75156 7.41116 7.18482 7.73668 7.50286C8.0622 7.82089 8.4997 7.99823 8.95479 7.99657C9.40992 7.98976 9.84418 7.80454 10.1642 7.48082C10.4841 7.1571 10.6643 6.72072 10.6658 6.26555H10.6648ZM45.2148 44.2785C45.6689 44.276 46.1039 44.0959 46.4268 43.7767C46.7498 43.4575 46.935 43.0245 46.9428 42.5705C46.9452 42.1151 46.7682 41.6771 46.45 41.3512C46.1319 41.0254 45.6981 40.838 45.2428 40.8296C45.0132 40.8264 44.7853 40.8689 44.5723 40.9546C44.3593 41.0404 44.1655 41.1677 44.0022 41.329C43.8389 41.4904 43.7093 41.6826 43.6209 41.8946C43.5326 42.1065 43.4874 42.3339 43.4878 42.5635C43.4925 43.019 43.6764 43.4543 43.9996 43.7753C44.3228 44.0962 44.7593 44.277 45.2148 44.2785V44.2785ZM52.1248 26.1166C52.1162 25.6627 51.9298 25.2303 51.6057 24.9124C51.2816 24.5945 50.8458 24.4165 50.3918 24.4166C49.9374 24.42 49.5026 24.6021 49.1815 24.9236C48.8603 25.2451 48.6787 25.6802 48.6758 26.1346C48.6758 26.3643 48.7214 26.5917 48.8102 26.8036C48.8989 27.0156 49.0289 27.2077 49.1926 27.3689C49.3563 27.5301 49.5504 27.6571 49.7637 27.7425C49.977 27.828 50.2051 27.8701 50.4348 27.8666C50.8896 27.855 51.3216 27.665 51.6375 27.3375C51.9533 27.0101 52.1277 26.5715 52.1228 26.1166H52.1248Z" fill="#2F455C"/>
<path d="M29.1838 27.3757C29.3408 27.4437 29.4838 27.4978 29.6208 27.5668C30.6337 28.0302 31.4973 28.7669 32.1146 29.6941C32.7318 30.6214 33.0782 31.7024 33.1148 32.8157C33.1658 33.5747 32.8238 33.9158 32.0628 33.9158C28.7348 33.9191 25.4072 33.9191 22.0798 33.9158C21.3238 33.9158 20.9918 33.5767 21.0438 32.8047C21.0802 31.7273 21.4078 30.6799 21.9919 29.7738C22.576 28.8677 23.3946 28.1368 24.3608 27.6587C24.5498 27.5587 24.7498 27.4767 25.0188 27.3517C24.2887 26.9466 23.6897 26.3409 23.2928 25.6062C22.8958 24.8715 22.7175 24.0385 22.7788 23.2057C22.8111 22.6375 22.9598 22.0819 23.2156 21.5734C23.4713 21.0649 23.8288 20.6144 24.2658 20.2497C25.1277 19.5079 26.2476 19.1362 27.3821 19.2156C28.5165 19.295 29.5737 19.8191 30.3238 20.6737C32.0918 22.6687 31.6908 25.0867 29.1838 27.3757ZM31.2588 32.1637C31.0722 31.1725 30.5365 30.2811 29.7488 29.651C28.9612 29.021 27.9738 28.6941 26.9658 28.7297C25.9976 28.7477 25.0652 29.0992 24.3259 29.7248C23.5867 30.3504 23.0858 31.2118 22.9078 32.1637H31.2588ZM29.6668 23.5307C29.6636 23.1889 29.5929 22.851 29.4589 22.5365C29.3249 22.222 29.1302 21.9369 28.8859 21.6977C28.6416 21.4586 28.3526 21.2699 28.0353 21.1426C27.718 21.0153 27.3787 20.9518 27.0368 20.9557C26.3567 20.9699 25.7092 21.25 25.2332 21.7361C24.7572 22.2221 24.4907 22.8754 24.4908 23.5557C24.494 23.8976 24.5645 24.2355 24.6984 24.55C24.8323 24.8646 25.0269 25.1497 25.2711 25.389C25.5153 25.6283 25.8043 25.817 26.1215 25.9445C26.4387 26.0719 26.778 26.1355 27.1198 26.1317C27.8 26.1176 28.4475 25.8374 28.9235 25.3514C29.3995 24.8653 29.666 24.212 29.6658 23.5317L29.6668 23.5307Z" fill="#2F455C"/>
</svg>
