<svg width="193" height="150" viewBox="0 0 193 150" fill="none" xmlns="http://www.w3.org/2000/svg">
<path d="M5.99783 5.45888C4.16783 5.42088 2.31283 5.40894 0.484833 5.42494L0.443848 0.21083C2.32085 0.19583 4.22583 0.210963 6.10483 0.246963L5.99783 5.45888Z" fill="#727272"/>
<path d="M180.431 127.263C179.153 124.003 177.765 120.733 176.304 117.543L181.045 115.374C182.545 118.652 183.971 122.011 185.284 125.361L180.431 127.263ZM168.249 101.893C166.504 98.8538 164.649 95.8219 162.737 92.8799L167.108 90.0388C169.072 93.0598 170.977 96.1739 172.77 99.2959L168.249 101.893ZM152.474 78.5728C150.301 75.8198 148.024 73.0888 145.703 70.4578L149.613 67.0098C151.996 69.7098 154.335 72.5158 156.566 75.3438L152.474 78.5728ZM133.465 57.793C130.914 55.383 128.265 53.0119 125.586 50.7459L128.954 46.7669C131.703 49.0939 134.426 51.5279 137.045 54.0029L133.465 57.793ZM111.636 39.9929C108.761 37.9789 105.793 36.0188 102.814 34.1668L105.566 29.7388C108.626 31.6388 111.674 33.6539 114.627 35.7229L111.636 39.9929ZM87.4437 25.5659C84.3037 23.9939 81.0797 22.49 77.8607 21.096L79.9337 16.3118C83.2407 17.7438 86.5517 19.2888 89.7767 20.9048L87.4437 25.5659ZM61.3917 14.8438C58.0547 13.7528 54.6437 12.7439 51.2527 11.8369L52.5957 6.79884C56.0797 7.72784 59.5847 8.76693 63.0127 9.88893L61.3917 14.8438ZM34.0367 8.09474C30.5807 7.51074 27.0607 7.01484 23.5737 6.62184L24.1577 1.44093C27.7397 1.84093 31.3577 2.35385 34.9067 2.95485L34.0367 8.09474Z" fill="#727272"/>
<path d="M187.548 149.275C187.091 147.501 186.603 145.712 186.098 143.958L191.107 142.514C191.627 144.314 192.127 146.153 192.597 147.976L187.548 149.275Z" fill="#727272"/>
</svg>
