<svg width="65" height="66" viewBox="0 0 65 66" fill="none" xmlns="http://www.w3.org/2000/svg">
<path d="M14.1319 65.6221C13.903 65.4936 13.7181 65.2992 13.6014 65.064C13.4848 64.8289 13.4417 64.564 13.4779 64.304C13.5089 62.916 13.4779 61.5271 13.4889 60.1381C13.5164 58.3176 13.005 56.5296 12.0189 54.999C11.6559 54.433 11.2899 53.8681 10.9499 53.2871C10.8756 53.1845 10.8229 53.068 10.7949 52.9445C10.7668 52.8211 10.7641 52.6932 10.7868 52.5687C10.8095 52.4441 10.8572 52.3255 10.927 52.2199C10.9968 52.1142 11.0872 52.0238 11.1929 51.954C11.3039 51.8834 11.4281 51.8361 11.5579 51.8151C11.6878 51.794 11.8206 51.7996 11.9482 51.8315C12.0758 51.8634 12.1956 51.9209 12.3002 52.0006C12.4049 52.0803 12.4922 52.1805 12.5569 52.295C14.5414 54.7907 15.5495 57.9234 15.3929 61.108C15.3329 61.945 15.3839 62.789 15.3839 63.679H26.0939C26.0939 62.616 26.1039 61.569 26.0939 60.522C26.0729 58.9389 26.4298 57.3736 27.1349 55.9561C29.2909 51.5561 28.5046 47.7504 24.7759 44.5391C24.0982 43.9416 23.361 43.4151 22.5759 42.968C21.8107 42.5337 21.1326 41.9614 20.5759 41.28C19.1149 39.567 17.6289 37.8801 16.1509 36.1801C15.9947 35.9537 15.793 35.7624 15.5585 35.6186C15.3241 35.4748 15.0622 35.3815 14.7897 35.3448C14.5171 35.3081 14.2398 35.3287 13.9757 35.4053C13.7116 35.482 13.4665 35.6131 13.2559 35.79C13.0514 35.9724 12.8865 36.1949 12.7715 36.4437C12.6565 36.6925 12.5938 36.9623 12.5875 37.2363C12.5811 37.5103 12.6311 37.7827 12.7344 38.0366C12.8377 38.2904 12.9921 38.5203 13.1879 38.712C14.7633 40.5787 16.3402 42.4411 17.9189 44.2991C17.9999 44.3991 18.0869 44.4881 18.1619 44.5891C18.2544 44.6838 18.3258 44.7968 18.3716 44.921C18.4175 45.0451 18.4367 45.1775 18.428 45.3096C18.4194 45.4416 18.383 45.5704 18.3213 45.6874C18.2596 45.8045 18.1739 45.9073 18.0699 45.9891C17.9711 46.0685 17.8573 46.127 17.7352 46.1611C17.6132 46.1953 17.4854 46.2043 17.3598 46.1876C17.2342 46.171 17.1132 46.1291 17.0043 46.0643C16.8953 45.9996 16.8006 45.9134 16.7259 45.811C15.3949 44.264 14.1339 42.6541 12.7459 41.1611C11.5548 39.8574 10.7161 38.2713 10.3089 36.553C9.2089 32.368 7.98992 28.215 6.81592 24.053C6.76394 23.746 6.65143 23.4523 6.48499 23.1891C6.31856 22.9259 6.10149 22.6983 5.84638 22.5197C5.59127 22.341 5.30325 22.2149 4.99897 22.1485C4.69469 22.0821 4.38025 22.0769 4.07392 22.1331C3.76196 22.1875 3.46444 22.3052 3.19971 22.4789C2.93499 22.6527 2.70866 22.8789 2.53467 23.1434C2.36069 23.408 2.24271 23.7054 2.18805 24.0173C2.1334 24.3293 2.14326 24.6491 2.21692 24.957C3.13192 29.037 4.12792 33.099 4.96692 37.194C5.61253 40.482 6.92479 43.6028 8.82288 46.3641C9.42288 47.2281 9.95892 48.1331 10.4959 49.0361C10.566 49.1363 10.614 49.2501 10.6368 49.3702C10.6597 49.4904 10.6568 49.614 10.6285 49.7329C10.6001 49.8518 10.547 49.9634 10.4724 50.0603C10.3979 50.1572 10.3036 50.2372 10.1959 50.295C10.1065 50.372 10.0014 50.4286 9.88795 50.461C9.77449 50.4934 9.6554 50.5008 9.53882 50.4826C9.42225 50.4644 9.311 50.4212 9.21277 50.3558C9.11455 50.2905 9.03169 50.2046 8.96992 50.1041C7.08592 47.0781 4.85393 44.225 3.91993 40.704C3.22593 38.086 2.65191 35.435 2.04291 32.795C1.47191 30.318 0.895907 27.841 0.373907 25.353C0.131922 24.317 0.293427 23.2277 0.825567 22.3065C1.35771 21.3852 2.22056 20.7011 3.2389 20.3931C4.26277 20.0651 5.37342 20.1423 6.34211 20.6086C7.3108 21.075 8.0638 21.8951 8.44593 22.9L8.59192 23.244C8.74392 23.054 8.85291 22.9151 8.96491 22.7781C9.4283 22.199 10.0581 21.7759 10.7694 21.5658C11.4806 21.3557 12.2392 21.3687 12.9429 21.603C13.6583 21.8375 14.2818 22.2914 14.7246 22.9003C15.1675 23.5092 15.4072 24.2422 15.4099 24.9951C15.4279 27.8141 15.4149 30.633 15.4149 33.532C16.8639 33.832 17.6339 35.007 18.5309 36.025C19.2399 36.825 19.9529 37.6321 20.6379 38.4581C21.7553 39.845 23.0847 41.0467 24.5769 42.019C27.2031 43.5674 29.1223 46.0785 29.9269 49.019C30.5544 51.4728 30.2483 54.0722 29.0679 56.3131C28.3096 57.7741 27.9404 59.4058 27.9959 61.051C28.0359 62.101 27.9829 63.151 28.0109 64.207C28.0484 64.4767 28.0113 64.7514 27.9036 65.0014C27.7958 65.2514 27.6216 65.4671 27.3999 65.6251L14.1319 65.6221ZM11.7199 34.494C12.1698 34.2017 12.6373 33.9375 13.1199 33.7031C13.2487 33.6697 13.3607 33.5901 13.4345 33.4794C13.5082 33.3688 13.5387 33.2347 13.5199 33.103C13.5039 32.01 13.5139 30.9161 13.5139 29.8231C13.5139 28.2231 13.5269 26.623 13.5049 25.03C13.5087 24.5939 13.3448 24.173 13.047 23.8543C12.7492 23.5357 12.3403 23.3437 11.9049 23.3181C11.4803 23.2717 11.0544 23.3943 10.7193 23.6592C10.3842 23.9241 10.1668 24.3102 10.1139 24.7341C9.92238 26.4051 10.0089 28.0963 10.3699 29.7391C10.8499 31.3211 11.2739 32.922 11.7219 34.494H11.7199Z" fill="#2F455C"/>
<path d="M64.8879 25.0842L63.3709 31.5842C63.2949 31.9112 63.2259 32.2412 63.1389 32.5652C63.1228 32.701 63.078 32.8319 63.0077 32.9493C62.9374 33.0666 62.843 33.1677 62.7308 33.246C62.6186 33.3243 62.4912 33.378 62.3568 33.4035C62.2224 33.429 62.084 33.4259 61.9509 33.3942C61.8238 33.359 61.7052 33.2979 61.6027 33.2148C61.5001 33.1318 61.4159 33.0284 61.3551 32.9113C61.2942 32.7942 61.2582 32.6658 61.2493 32.5342C61.2403 32.4025 61.2586 32.2704 61.3029 32.1462C61.8179 29.8462 62.3479 27.5582 62.8599 25.2612C62.971 24.9485 63.0153 24.616 62.9899 24.2851C62.9645 23.9542 62.87 23.6323 62.7126 23.3402C62.5551 23.0481 62.3382 22.7923 62.0758 22.5892C61.8133 22.3861 61.5112 22.2403 61.189 22.1611C59.845 21.8341 58.742 22.5822 58.312 24.1132C57.012 28.7232 55.7389 33.3392 54.3959 37.9352C54.1558 38.7127 53.7696 39.4373 53.2579 40.0702C51.7879 41.9102 50.2329 43.6821 48.7119 45.4811C48.6439 45.5611 48.576 45.6412 48.505 45.7192C48.016 46.2582 47.4589 46.3451 47.0259 45.9521C46.5929 45.5591 46.6029 45.0442 47.0559 44.5012C47.7019 43.7252 48.356 42.9571 49.01 42.1861C49.9893 41.0308 50.9686 39.8755 51.9479 38.7201C52.1434 38.5283 52.2976 38.2984 52.401 38.0448C52.5044 37.7911 52.5548 37.519 52.5492 37.2452C52.5436 36.9713 52.4821 36.7015 52.3684 36.4523C52.2546 36.2031 52.0911 35.9798 51.8879 35.7961C51.6783 35.6186 51.4338 35.4868 51.1702 35.4092C50.9066 35.3317 50.6298 35.3102 50.3574 35.3459C50.085 35.3817 49.823 35.4741 49.5884 35.6171C49.3538 35.76 49.1516 35.9504 48.9949 36.1761C47.3229 38.0951 45.66 40.0221 43.976 41.9311C43.7259 42.2114 43.4309 42.448 43.103 42.6312C41.4489 43.5183 39.9806 44.715 38.778 46.1562C37.7177 47.333 37.0362 48.8018 36.8222 50.3713C36.6081 51.9408 36.8715 53.5384 37.578 54.9562C38.6984 57.3164 39.2004 59.9226 39.0369 62.5301C39.0169 62.9031 39.0369 63.2782 39.0369 63.6912H49.747C49.747 62.9592 49.753 62.2321 49.747 61.5041C49.6195 59.928 49.7819 58.3418 50.226 56.8242C50.5904 55.7971 51.0528 54.8075 51.6069 53.8691C53.3329 51.0321 55.0809 48.2051 56.9149 45.4371C58.6391 42.6888 59.8005 39.6257 60.3319 36.4252C60.3599 36.2812 60.394 36.1371 60.432 35.9961C60.4525 35.876 60.4972 35.7613 60.5634 35.6589C60.6296 35.5566 60.716 35.4687 60.8171 35.4007C60.9183 35.3328 61.0323 35.286 61.152 35.2634C61.2718 35.2408 61.3949 35.2428 61.5139 35.2692C61.6408 35.2844 61.7628 35.3271 61.8715 35.3942C61.9802 35.4613 62.073 35.5512 62.1435 35.6578C62.214 35.7643 62.2605 35.8849 62.2797 36.0112C62.299 36.1375 62.2905 36.2665 62.255 36.3892C61.998 37.6442 61.717 38.8951 61.395 40.1351C60.8282 42.2272 59.9381 44.2178 58.757 46.0351C56.901 48.9651 55.075 51.9141 53.205 54.8351C52.1509 56.4464 51.6046 58.337 51.637 60.2621C51.654 61.6081 51.619 62.9561 51.65 64.3011C51.6861 64.5613 51.643 64.8262 51.5263 65.0615C51.4097 65.2968 51.2248 65.4915 50.9959 65.6202H37.7379C37.5165 65.4619 37.3426 65.2462 37.2349 64.9963C37.1272 64.7463 37.0899 64.4717 37.127 64.2021C37.1946 62.8567 37.185 61.5085 37.098 60.1642C37.0381 59.0558 36.7764 57.9677 36.3259 56.9532C33.4649 51.3362 35.0209 46.0591 40.0789 42.3041C40.1593 42.2359 40.246 42.1757 40.338 42.1241C42.302 41.1891 43.593 39.5171 44.955 37.9241C45.692 37.0591 46.462 36.2242 47.189 35.3492C47.7996 34.4714 48.6948 33.8316 49.723 33.5381C49.723 31.3791 49.723 29.2551 49.723 27.1321C49.723 26.4581 49.718 25.7852 49.723 25.1122C49.7067 24.3386 49.9383 23.5801 50.384 22.9477C50.8297 22.3152 51.466 21.842 52.2 21.5972C52.9348 21.3536 53.7283 21.3516 54.4644 21.5915C55.2005 21.8313 55.8406 22.3005 56.291 22.9302C56.354 23.0132 56.4149 23.0972 56.5059 23.2212C56.5689 23.1351 56.6254 23.0445 56.6749 22.9501C56.9913 22.1071 57.5662 21.3857 58.3173 20.8891C59.0685 20.3925 59.9573 20.1461 60.8569 20.1852C61.7674 20.2383 62.637 20.5812 63.3386 21.1637C64.0403 21.7463 64.5373 22.538 64.757 23.4231C64.7918 23.5179 64.8339 23.6099 64.8829 23.6982L64.8879 25.0842ZM53.4119 34.4692C53.5509 33.9932 53.695 33.4692 53.856 32.9542C54.8072 30.412 55.2212 27.7003 55.072 24.9902C55.0573 24.534 54.8631 24.1021 54.5316 23.7884C54.2001 23.4748 53.7582 23.3047 53.302 23.3152C52.8544 23.3215 52.4275 23.5047 52.1146 23.8247C51.8017 24.1447 51.6282 24.5756 51.632 25.0231C51.613 27.7351 51.619 30.4472 51.632 33.1592C51.6395 33.2534 51.667 33.345 51.7127 33.4277C51.7584 33.5105 51.8212 33.5826 51.8969 33.6392C52.3749 33.9362 52.8819 34.1841 53.4119 34.4701V34.4692Z" fill="#2F455C"/>
<path d="M44.8447 27.2452C44.8856 28.2008 44.688 29.1516 44.2697 30.0117C43.8515 30.8719 43.2258 31.6145 42.449 32.1725C41.6722 32.7305 40.7687 33.0865 39.8201 33.2083C38.8714 33.3301 37.9074 33.2139 37.0148 32.8702C36.4418 32.6702 35.8917 32.3993 35.3347 32.1533C34.4555 31.7408 33.4951 31.5301 32.5239 31.5366C31.5528 31.5432 30.5953 31.7669 29.7218 32.1912C28.5393 32.8431 27.2157 33.1967 25.8657 33.2213C21.7287 33.0513 19.2658 29.3122 20.6408 25.2822C21.0245 24.1354 21.7474 23.1322 22.7138 22.4053C23.894 21.58 24.7487 20.3681 25.1298 18.9793C25.1537 18.8988 25.1872 18.8216 25.2297 18.7493C25.3322 18.5267 25.5181 18.3533 25.7473 18.2665C25.9764 18.1797 26.2305 18.1864 26.4547 18.2852C26.5651 18.3254 26.6664 18.3873 26.7525 18.4672C26.8385 18.5471 26.9078 18.6434 26.9561 18.7505C27.0043 18.8576 27.0307 18.9733 27.0335 19.0907C27.0364 19.2081 27.0157 19.325 26.9727 19.4343C26.6309 20.9212 25.8149 22.2566 24.6478 23.2393C24.21 23.5678 23.8003 23.932 23.4227 24.3283C22.9001 24.8549 22.5197 25.5056 22.317 26.2193C22.1143 26.933 22.096 27.6865 22.2637 28.4092C22.3788 28.9191 22.5982 29.3995 22.9082 29.8203C23.2181 30.2411 23.6118 30.5932 24.0646 30.8543C24.5173 31.1153 25.0193 31.2798 25.5387 31.3373C26.0582 31.3948 26.5839 31.344 27.0828 31.1882C27.7061 31.0008 28.3133 30.7637 28.8988 30.4793C30.0508 29.9281 31.312 29.643 32.5891 29.6451C33.8662 29.6472 35.1265 29.9364 36.2767 30.4913C36.9497 30.8336 37.6634 31.0889 38.4008 31.2512C39.1362 31.4268 39.9079 31.3705 40.6101 31.0902C41.3122 30.8098 41.9105 30.319 42.3228 29.6853C42.7608 29.0198 42.9955 28.2412 42.9982 27.4445C43.0008 26.6478 42.7714 25.8676 42.3378 25.1992C41.9534 24.5723 41.4539 24.0237 40.8657 23.5823C39.7034 22.6713 38.8282 21.4447 38.3447 20.0493C37.9738 18.978 37.4537 17.9643 36.7998 17.0383C36.3592 16.4182 35.7885 15.9018 35.1276 15.5252C34.4668 15.1485 33.7316 14.9208 32.9736 14.8577C32.2155 14.7947 31.4528 14.8979 30.7388 15.1602C30.0248 15.4225 29.3767 15.8375 28.8397 16.3762C28.5912 16.6177 28.2629 16.76 27.9168 16.7763C27.7596 16.7426 27.6115 16.6759 27.4821 16.5806C27.3528 16.4852 27.2453 16.3634 27.1668 16.2233C27.0793 16.0298 27.0605 15.8122 27.1134 15.6066C27.1663 15.4009 27.2878 15.2195 27.4578 15.0922C28.169 14.3726 29.0243 13.8115 29.9677 13.4457C30.911 13.08 31.921 12.9179 32.9315 12.97C33.9419 13.0221 34.9299 13.2874 35.8306 13.7482C36.7313 14.2091 37.5243 14.8552 38.1577 15.6442C39.1187 16.9245 39.8577 18.3571 40.3438 19.8823C40.59 20.601 41.0344 21.2353 41.6257 21.7122C42.0007 22.0172 42.3638 22.3383 42.7258 22.6613C43.3867 23.229 43.9179 23.932 44.2835 24.7229C44.6491 25.5138 44.8405 26.374 44.8447 27.2452V27.2452Z" fill="#2F455C"/>
<path d="M31.2951 7.57716C31.3216 8.81163 30.9985 10.0284 30.3631 11.0872C29.8556 11.9508 29.0316 12.5829 28.066 12.8494C27.1004 13.116 26.0689 12.9961 25.1902 12.5152C24.2504 12.0108 23.4446 11.2893 22.8399 10.4108C22.2351 9.53226 21.8489 8.52208 21.7132 7.46419C21.4369 6.11504 21.6013 4.71284 22.1822 3.46419C22.4086 2.89333 22.7643 2.38268 23.2213 1.97237C23.6783 1.56206 24.2241 1.26325 24.8159 1.09932C25.4078 0.935392 26.0296 0.910798 26.6326 1.02754C27.2355 1.14429 27.8032 1.39917 28.2911 1.77217C29.2156 2.43293 29.97 3.30375 30.4922 4.31294C31.0145 5.32214 31.2896 6.44086 31.2951 7.57716V7.57716ZM23.3722 6.15016L23.4612 6.18715C23.5092 6.56115 23.5311 6.94116 23.6111 7.30916C23.7204 7.99608 23.9718 8.65266 24.3492 9.23689C24.7267 9.82113 25.2219 10.3202 25.8031 10.7022C26.0505 10.885 26.3363 11.0092 26.6387 11.0653C26.9412 11.1214 27.2524 11.108 27.5489 11.0261C27.8454 10.9442 28.1195 10.796 28.3502 10.5926C28.581 10.3892 28.7626 10.136 28.8811 9.85219C29.1326 9.36849 29.2884 8.84085 29.3401 8.29817C29.4766 7.3343 29.3389 6.35147 28.9428 5.46224C28.5466 4.573 27.908 3.8133 27.1001 3.27016C26.8537 3.07462 26.5646 2.93998 26.2564 2.87715C25.9481 2.81433 25.6294 2.82515 25.3261 2.90865C25.0228 2.99214 24.7435 3.14601 24.5108 3.35774C24.2782 3.56947 24.0988 3.83304 23.9872 4.12715C23.729 4.78416 23.5233 5.46063 23.3722 6.15016V6.15016Z" fill="#2F455C"/>
<path d="M43.5519 6.06927C43.5637 7.08944 43.3704 8.10161 42.9834 9.04559C42.5963 9.98956 42.0235 10.8461 41.2989 11.5643C38.6729 14.0833 35.0639 13.1253 34.1189 9.62231C33.7559 8.3933 33.7306 7.08918 34.0457 5.84704C34.3609 4.6049 35.0049 3.47058 35.9099 2.56329C36.4344 1.89361 37.1514 1.40053 37.9644 1.15026C38.7774 0.899994 39.6475 0.904503 40.4579 1.16326C41.2557 1.44712 41.9568 1.95111 42.4801 2.61688C43.0034 3.28264 43.3275 4.08299 43.4149 4.92529C43.4999 5.34429 43.5169 5.76327 43.5519 6.06927ZM41.6639 5.98925C41.5998 5.53334 41.505 5.08233 41.3799 4.63928C41.3001 4.2361 41.1095 3.86312 40.8296 3.56219C40.5496 3.26126 40.1914 3.04426 39.7951 2.93554C39.3987 2.82682 38.9799 2.83071 38.5857 2.94671C38.1914 3.06271 37.8372 3.28625 37.5628 3.59228C36.7854 4.30538 36.2262 5.22427 35.9499 6.24236C35.6736 7.26045 35.6916 8.33603 36.0019 9.34429C36.0876 9.74647 36.2837 10.1168 36.5682 10.4138C36.8527 10.7107 37.2143 10.9225 37.6124 11.0254C38.0105 11.1283 38.4295 11.1182 38.8222 10.9963C39.215 10.8744 39.5659 10.6455 39.8358 10.3353C40.4269 9.77878 40.8946 9.1044 41.2087 8.35577C41.5227 7.60713 41.6761 6.8009 41.6588 5.98925H41.6639Z" fill="#2F455C"/>
<path d="M51.1601 14.9169C51.157 16.1875 50.7905 17.4308 50.1039 18.4999C49.4173 19.569 48.4392 20.4195 47.2851 20.9509C46.7206 21.2583 46.0864 21.4149 45.4437 21.4057C44.8011 21.3964 44.1716 21.2216 43.6162 20.8981C43.0608 20.5746 42.5982 20.1134 42.2731 19.5589C41.9479 19.0045 41.7712 18.3756 41.7601 17.7329C41.6472 16.2985 41.9951 14.8656 42.753 13.6425C43.5109 12.4195 44.6393 11.4703 45.9741 10.9329C46.5284 10.7073 47.1287 10.6179 47.7247 10.6721C48.3207 10.7264 48.895 10.9227 49.3995 11.2446C49.904 11.5665 50.3239 12.0047 50.6242 12.5224C50.9244 13.04 51.0962 13.6222 51.1251 14.2199C51.1471 14.4539 51.1491 14.6859 51.1601 14.9169ZM49.2731 15.1389C49.2561 14.0699 49.1021 13.2669 48.2881 12.8039C47.9206 12.6113 47.5048 12.5309 47.092 12.5725C46.6792 12.6141 46.2877 12.7759 45.9661 13.0379C45.188 13.4927 44.5566 14.1609 44.1463 14.9633C43.7361 15.7658 43.5642 16.6689 43.6511 17.5659C43.6342 17.9147 43.7154 18.2612 43.8854 18.5662C44.0554 18.8713 44.3075 19.1225 44.613 19.2916C44.9186 19.4606 45.2654 19.5408 45.6141 19.5228C45.9628 19.5048 46.2995 19.3895 46.5861 19.1899C47.354 18.815 48.0079 18.2419 48.4803 17.5297C48.9527 16.8176 49.2264 15.9922 49.2731 15.1389V15.1389Z" fill="#2F455C"/>
<path d="M23.4078 17.0769C23.4478 19.4329 22.1148 21.1429 20.0078 21.3419C19.4431 21.383 18.8758 21.3151 18.3367 21.1419C16.8596 20.5898 15.6255 19.5326 14.8533 18.1576C14.081 16.7826 13.8205 15.1786 14.1178 13.6299C14.2198 13.1058 14.4348 12.6102 14.7478 12.1776C15.0607 11.745 15.4641 11.3857 15.9299 11.1248C16.3958 10.8638 16.9129 10.7075 17.4453 10.6666C17.9776 10.6257 18.5125 10.7012 19.0128 10.8879C20.2796 11.3627 21.3753 12.2059 22.1586 13.309C22.9419 14.412 23.377 15.7244 23.4078 17.0769V17.0769ZM15.8627 14.8849C15.8786 15.8244 16.1631 16.7398 16.6827 17.5227C17.2023 18.3056 17.9352 18.9234 18.7948 19.3029C19.0706 19.4396 19.3762 19.5053 19.6839 19.4941C19.9916 19.483 20.2916 19.3952 20.5568 19.2388C20.822 19.0825 21.0441 18.8624 21.2028 18.5986C21.3615 18.3348 21.4519 18.0355 21.4658 17.7279C21.5586 16.7929 21.3848 15.8507 20.9645 15.0103C20.5442 14.1699 19.8946 13.4655 19.0908 12.9789C17.3338 11.9949 15.8657 12.8609 15.8657 14.8859L15.8627 14.8849Z" fill="#2F455C"/>
</svg>
