<svg width="387" height="196" viewBox="0 0 387 196" fill="none" xmlns="http://www.w3.org/2000/svg">
<path d="M6.05322 195.922H0.839228C0.788894 169.796 6.01191 143.928 16.1953 119.869C26.0024 96.6544 40.2224 75.5645 58.0663 57.7689C75.8618 39.925 96.9518 25.7049 120.166 15.8978C144.226 5.7149 170.093 0.492331 196.219 0.542843C218.714 0.513765 241.044 4.37987 262.219 11.9698C282.641 19.2973 301.695 29.9876 318.591 43.5988C335.379 57.0894 349.828 73.256 361.356 91.4479C373.083 109.917 381.6 130.237 386.546 151.548L381.468 152.727C361.368 66.1909 285.194 5.7528 196.224 5.7528C91.3632 5.7518 6.05322 91.0618 6.05322 195.922Z" fill="#20D1F3"/>
</svg>
