<svg width="315" height="43" viewBox="0 0 315 43" fill="none" xmlns="http://www.w3.org/2000/svg">
<path d="M293.159 3.89703H21.6138C13.3036 3.89703 6.56683 10.6338 6.56683 18.944C6.56683 27.2543 13.3036 33.991 21.6138 33.991H293.159C301.469 33.991 308.206 27.2543 308.206 18.944C308.206 10.6338 301.469 3.89703 293.159 3.89703Z" fill="white"/>
<g filter="url(#filter0_d_1_800)">
<path d="M293.159 3.89703H21.6138C13.3036 3.89703 6.56683 10.6338 6.56683 18.944C6.56683 27.2543 13.3036 33.991 21.6138 33.991H293.159C301.469 33.991 308.206 27.2543 308.206 18.944C308.206 10.6338 301.469 3.89703 293.159 3.89703Z" fill="white"/>
</g>
<path d="M293.159 4.39703H21.6138C13.5797 4.39703 7.06683 10.9099 7.06683 18.944C7.06683 26.9781 13.5797 33.491 21.6138 33.491H293.159C301.193 33.491 307.706 26.9781 307.706 18.944C307.706 10.9099 301.193 4.39703 293.159 4.39703Z" stroke="#2EE8D4"/>
<defs>
<filter id="filter0_d_1_800" x="0.566833" y="0.897034" width="313.639" height="42.094" filterUnits="userSpaceOnUse" color-interpolation-filters="sRGB">
<feFlood flood-opacity="0" result="BackgroundImageFix"/>
<feColorMatrix in="SourceAlpha" type="matrix" values="0 0 0 0 0 0 0 0 0 0 0 0 0 0 0 0 0 0 127 0" result="hardAlpha"/>
<feOffset dy="3"/>
<feGaussianBlur stdDeviation="3"/>
<feColorMatrix type="matrix" values="0 0 0 0 0 0 0 0 0 0 0 0 0 0 0 0 0 0 0.161 0"/>
<feBlend mode="normal" in2="BackgroundImageFix" result="effect1_dropShadow_1_800"/>
<feBlend mode="normal" in="SourceGraphic" in2="effect1_dropShadow_1_800" result="shape"/>
</filter>
</defs>
</svg>
