<svg width="315" height="43" viewBox="0 0 315 43" fill="none" xmlns="http://www.w3.org/2000/svg">
<path d="M293.159 3.29004H21.6138C13.3036 3.29004 6.56683 10.0268 6.56683 18.337C6.56683 26.6473 13.3036 33.384 21.6138 33.384H293.159C301.469 33.384 308.206 26.6473 308.206 18.337C308.206 10.0268 301.469 3.29004 293.159 3.29004Z" fill="white"/>
<g filter="url(#filter0_d_1_789)">
<path d="M293.159 3.29004H21.6138C13.3036 3.29004 6.56683 10.0268 6.56683 18.337C6.56683 26.6473 13.3036 33.384 21.6138 33.384H293.159C301.469 33.384 308.206 26.6473 308.206 18.337C308.206 10.0268 301.469 3.29004 293.159 3.29004Z" fill="white"/>
</g>
<path d="M293.159 3.79004H21.6138C13.5797 3.79004 7.06683 10.303 7.06683 18.337C7.06683 26.3711 13.5797 32.884 21.6138 32.884H293.159C301.193 32.884 307.706 26.3711 307.706 18.337C307.706 10.303 301.193 3.79004 293.159 3.79004Z" stroke="#2EE8D4"/>
<defs>
<filter id="filter0_d_1_789" x="0.566833" y="0.290039" width="313.639" height="42.094" filterUnits="userSpaceOnUse" color-interpolation-filters="sRGB">
<feFlood flood-opacity="0" result="BackgroundImageFix"/>
<feColorMatrix in="SourceAlpha" type="matrix" values="0 0 0 0 0 0 0 0 0 0 0 0 0 0 0 0 0 0 127 0" result="hardAlpha"/>
<feOffset dy="3"/>
<feGaussianBlur stdDeviation="3"/>
<feColorMatrix type="matrix" values="0 0 0 0 0 0 0 0 0 0 0 0 0 0 0 0 0 0 0.161 0"/>
<feBlend mode="normal" in2="BackgroundImageFix" result="effect1_dropShadow_1_789"/>
<feBlend mode="normal" in="SourceGraphic" in2="effect1_dropShadow_1_789" result="shape"/>
</filter>
</defs>
</svg>
