<svg width="58" height="57" viewBox="0 0 58 57" fill="none" xmlns="http://www.w3.org/2000/svg">
<path d="M44.1231 0.199966C46.4771 1.16897 47.1111 2.45196 46.4881 4.98596C46.4711 5.05596 46.4621 5.12896 46.4401 5.25296C48.2393 5.88481 49.7971 7.06127 50.8971 8.61896C52.0012 10.186 52.6098 12.0483 52.6441 13.965C52.8011 14.001 52.9441 14.029 53.0771 14.065C53.6907 14.2173 54.2378 14.5659 54.6349 15.0579C55.0321 15.5498 55.2576 16.158 55.2771 16.79C55.2959 17.0289 55.2959 17.269 55.2771 17.508C55.201 17.8096 55.2379 18.1287 55.3809 18.405C55.5238 18.6813 55.7629 18.8958 56.0531 19.008C56.4753 19.232 56.8183 19.5806 57.0353 20.0065C57.2524 20.4323 57.333 20.9147 57.2661 21.388C57.2505 21.8714 57.0969 22.3403 56.8235 22.7393C56.5501 23.1383 56.1683 23.4508 55.7231 23.64C55.5793 23.6834 55.4555 23.7763 55.3735 23.9022C55.2915 24.0281 55.2567 24.1789 55.2751 24.328C55.2864 33.23 55.2864 42.1323 55.2751 51.035C55.2542 51.1755 55.2847 51.3189 55.3609 51.4388C55.4371 51.5587 55.554 51.6472 55.6901 51.688C56.2425 51.9353 56.6902 52.3691 56.9548 52.9134C57.2193 53.4578 57.2839 54.0778 57.1371 54.665C57.0412 55.263 56.7366 55.8077 56.2773 56.2026C55.818 56.5974 55.2338 56.8168 54.6281 56.822C53.7441 56.84 52.8591 56.831 51.9741 56.822C51.3591 56.822 51.0121 56.522 51.0051 56.006C50.9971 55.475 51.3551 55.17 52.0051 55.166C52.8161 55.166 53.6271 55.166 54.4371 55.166C54.9261 55.166 55.3761 55.085 55.5141 54.52C55.5649 54.2638 55.5274 53.998 55.4077 53.7659C55.2881 53.5338 55.0932 53.3491 54.8551 53.242C54.5651 53.1313 54.2564 53.078 53.9461 53.085C48.0674 53.0763 42.1888 53.074 36.3101 53.078C35.5741 53.078 35.2571 52.826 35.2621 52.254C35.2462 52.0578 35.3077 51.8631 35.4335 51.7117C35.5593 51.5604 35.7393 51.4642 35.9351 51.444C36.136 51.4179 36.3388 51.4099 36.5411 51.42H53.5891V48.953H52.6481C51.1741 48.953 49.7001 48.953 48.2251 48.953C47.5641 48.953 47.2251 48.653 47.2251 48.114C47.2251 47.575 47.5551 47.3 48.2361 47.298C50.0031 47.298 51.7691 47.298 53.5801 47.298V44.754C52.5361 44.754 51.5091 44.754 50.4801 44.754C50.2861 44.7812 50.0888 44.7394 49.9225 44.636C49.7562 44.5325 49.6315 44.374 49.5701 44.188C49.5215 44.062 49.5055 43.9259 49.5237 43.7921C49.5418 43.6583 49.5935 43.5314 49.674 43.423C49.7544 43.3146 49.861 43.2283 49.9838 43.1722C50.1065 43.116 50.2415 43.0919 50.3761 43.102C51.4251 43.084 52.4761 43.102 53.5761 43.102V40.562H52.7611C51.2501 40.562 49.7391 40.562 48.2281 40.562C47.5701 40.562 47.2281 40.262 47.2281 39.721C47.2281 39.18 47.5611 38.908 48.2401 38.907C50.0071 38.907 51.7741 38.907 53.5841 38.907V36.363C52.5981 36.363 51.6261 36.363 50.6551 36.363C50.4718 36.3724 50.288 36.3563 50.1091 36.315C49.9173 36.2688 49.7513 36.1491 49.6469 35.9817C49.5425 35.8143 49.5081 35.6125 49.5511 35.42C49.5529 35.3222 49.5746 35.2257 49.6148 35.1365C49.655 35.0474 49.7129 34.9673 49.785 34.9012C49.8571 34.835 49.9419 34.7843 50.0342 34.7519C50.1266 34.7196 50.2245 34.7063 50.3221 34.713C51.2061 34.702 52.0911 34.707 52.9761 34.706H53.5981V32.168H52.9391C51.3731 32.168 49.8061 32.168 48.2391 32.168C47.5781 32.168 47.2321 31.868 47.2291 31.336C47.2261 30.804 47.5651 30.513 48.2291 30.512C49.9971 30.512 51.7651 30.512 53.5791 30.512V27.968C52.6061 27.968 51.6361 27.968 50.6661 27.968C50.4827 27.979 50.2987 27.9649 50.1191 27.926C49.9268 27.8817 49.7595 27.7641 49.6526 27.5982C49.5458 27.4324 49.5079 27.2313 49.5471 27.038C49.5471 26.9401 49.567 26.8432 49.6057 26.7533C49.6443 26.6634 49.7009 26.5822 49.7719 26.5149C49.8429 26.4475 49.9269 26.3953 50.0187 26.3615C50.1106 26.3276 50.2084 26.3128 50.3061 26.318C51.1901 26.304 52.0751 26.312 52.9601 26.311H53.6261C53.6261 25.311 53.6261 24.357 53.6261 23.405C53.6261 22.616 53.8051 22.405 54.5891 22.268C55.2631 22.146 55.6461 21.743 55.6171 21.188C55.608 21.0448 55.5697 20.905 55.5045 20.7772C55.4393 20.6494 55.3486 20.5363 55.2381 20.4449C55.1276 20.3535 54.9994 20.2856 54.8617 20.2456C54.7239 20.2055 54.5794 20.1941 54.4371 20.212C47.1211 20.2086 39.8051 20.2086 32.4891 20.212C32.3467 20.1946 32.2022 20.2067 32.0647 20.2475C31.9271 20.2883 31.7994 20.3569 31.6894 20.4491C31.5794 20.5412 31.4896 20.655 31.4254 20.7833C31.3611 20.9116 31.3239 21.0517 31.3161 21.195C31.2901 21.772 31.6971 22.171 32.4081 22.266C33.0761 22.355 33.3081 22.6 33.3081 23.28C33.3131 25.436 33.3081 27.593 33.3201 29.749C33.3138 29.9982 33.3909 30.2425 33.5391 30.443C34.5165 31.5265 35.2197 32.8286 35.5898 34.2401C35.9599 35.6516 35.9861 37.1313 35.6661 38.555C35.2822 40.6028 34.5732 42.576 33.5661 44.4C33.4078 44.7053 33.3222 45.0431 33.3161 45.387C33.2941 47.58 33.3061 49.774 33.3041 51.967C33.3041 52.785 33.1401 52.973 32.3541 53.092C31.6181 53.203 31.2091 53.624 31.2491 54.23C31.2891 54.836 31.7331 55.165 32.5171 55.165C37.2718 55.165 42.0261 55.165 46.7801 55.165C47.4801 55.165 47.8141 55.465 47.7801 56.04C47.7864 56.2365 47.7153 56.4277 47.5822 56.5724C47.4491 56.7171 47.2645 56.8039 47.0681 56.814C46.9581 56.8244 46.8475 56.8271 46.7371 56.822C41.9825 56.822 37.2281 56.822 32.4741 56.822C32.0254 56.8324 31.581 56.7312 31.1811 56.5273C30.7812 56.3234 30.4382 56.0233 30.183 55.654C29.9279 55.2847 29.7685 54.8578 29.7193 54.4116C29.6701 53.9654 29.7326 53.514 29.9011 53.098C30.0177 52.7764 30.1988 52.482 30.4331 52.2328C30.6675 51.9837 30.9503 51.785 31.2641 51.649C31.4091 51.581 31.6201 51.434 31.6231 51.32C31.6481 50.002 31.6391 48.683 31.6391 47.22C30.6795 48.3435 29.4015 49.1493 27.9741 49.531C27.9741 50.52 27.9741 51.493 27.9741 52.466C27.9741 53.609 27.9811 54.752 27.9741 55.894C27.9872 56.009 27.9754 56.1256 27.9395 56.2357C27.9037 56.3458 27.8446 56.447 27.7663 56.5323C27.688 56.6176 27.5923 56.6851 27.4856 56.7303C27.379 56.7754 27.2639 56.7971 27.1481 56.794C27.0322 56.7977 26.9169 56.7763 26.8101 56.7313C26.7032 56.6863 26.6074 56.6188 26.529 56.5333C26.4507 56.4479 26.3917 56.3465 26.3562 56.2361C26.3207 56.1258 26.3094 56.0091 26.3231 55.894C26.3161 53.794 26.3231 51.694 26.3231 49.541C25.2039 49.2908 24.1819 48.7198 23.3821 47.898C22.5971 47.081 21.8971 46.181 21.1281 45.279V45.833C21.1281 49.1503 21.1281 52.468 21.1281 55.786C21.1281 56.228 21.0391 56.591 20.5641 56.744C20.4474 56.7894 20.3217 56.8067 20.197 56.7947C20.0724 56.7826 19.9523 56.7415 19.8465 56.6746C19.7406 56.6076 19.652 56.5168 19.5876 56.4093C19.5233 56.3019 19.4851 56.1809 19.4761 56.056C19.4633 55.8896 19.4603 55.7227 19.4671 55.556C19.4671 51.04 19.4648 46.5243 19.4601 42.009C19.4563 41.6801 19.4027 41.3538 19.3011 41.041C18.4318 38.7727 18.256 36.2973 18.7961 33.929C18.8403 33.7123 18.9105 33.5018 19.0051 33.302C19.3943 32.4885 19.5567 31.5851 19.4751 30.687C19.4521 28.087 19.4671 25.487 19.4671 22.887V22.293L18.0581 21.81C17.7947 24.2781 17.0601 26.6727 15.8941 28.864C15.3394 29.8601 14.6918 30.8016 13.9601 31.676C12.9861 32.855 12.2041 33.269 10.2121 33.988V34.675C10.2121 41.6236 10.2121 48.5723 10.2121 55.521C10.2121 56.431 9.9601 56.808 9.3671 56.789C8.7741 56.77 8.55611 56.412 8.55511 55.53C8.55511 48.5813 8.55511 41.6326 8.55511 34.684V33.961C6.45801 33.3126 4.70032 31.865 3.66211 29.931C2.12077 27.538 1.13026 24.8325 0.762115 22.01C0.737299 21.8855 0.70388 21.7628 0.662109 21.643V19.873C0.705596 19.737 0.741988 19.5988 0.771118 19.459C0.961448 18.1982 1.42975 16.9955 2.14212 15.938C2.19349 15.8447 2.26372 15.7632 2.34836 15.6986C2.43299 15.634 2.53016 15.5878 2.63367 15.5628C2.73717 15.5379 2.84473 15.5348 2.94949 15.5538C3.05426 15.5727 3.1539 15.6133 3.2421 15.673C3.34067 15.7246 3.42726 15.7964 3.49619 15.8837C3.56512 15.9711 3.61485 16.072 3.64212 16.1799C3.6694 16.2877 3.67361 16.4001 3.65448 16.5098C3.63535 16.6194 3.5933 16.7237 3.5311 16.816C3.4631 16.946 3.3771 17.067 3.3031 17.194C2.53629 18.4893 2.20507 19.9964 2.35809 21.494C2.54061 23.3288 2.99561 25.1263 3.7081 26.827C4.30542 28.5 5.29427 30.0059 6.5921 31.219C6.95819 31.5881 7.3942 31.8806 7.87463 32.0793C8.35507 32.2781 8.8703 32.379 9.3902 32.3763C9.9101 32.3736 10.4242 32.2673 10.9026 32.0636C11.3809 31.8599 11.8139 31.5629 12.1761 31.19C12.8506 30.5643 13.4375 29.8505 13.9211 29.068C15.1983 26.9481 16.022 24.5863 16.3401 22.132C16.6369 20.4643 16.3317 18.7455 15.4791 17.282C14.6426 15.8091 13.3024 14.6879 11.705 14.1244C10.1077 13.5609 8.36061 13.593 6.7851 14.215C6.1851 14.432 5.7401 14.272 5.5611 13.768C5.3821 13.264 5.5811 12.868 6.1911 12.679C6.91362 12.4104 7.66674 12.2327 8.43311 12.15C9.59311 12.092 10.7611 12.213 11.9211 12.258C11.8211 11.585 11.6741 10.793 11.5811 9.99496C11.3505 8.07688 11.7649 6.1366 12.7589 4.48006C13.753 2.82352 15.2701 1.54495 17.0711 0.845963C17.8911 0.579104 18.7258 0.359742 19.5711 0.188965H21.0081C21.1297 0.228225 21.2536 0.259953 21.3791 0.283966C23.583 0.54296 25.6044 1.63487 27.0293 3.33603C28.4542 5.03719 29.1747 7.2188 29.0431 9.43396C28.806 13.2356 27.3627 16.8627 24.9231 19.788C23.9828 21.0176 22.6559 21.8948 21.1561 22.278V29.986C22.5516 28.6974 24.3239 27.8908 26.2122 27.6851C28.1004 27.4793 30.0048 27.8852 31.6451 28.843C31.6451 27.227 31.6561 25.664 31.6281 24.101C31.6281 23.954 31.4101 23.756 31.2461 23.676C30.6694 23.4166 30.2028 22.9621 29.9284 22.3924C29.654 21.8228 29.5894 21.1746 29.7461 20.562C29.8636 20.0812 30.1101 19.6415 30.459 19.2905C30.8079 18.9395 31.246 18.6903 31.7261 18.57C31.7777 17.6044 31.9075 16.6446 32.1141 15.7C32.2791 15.2485 32.5651 14.8512 32.9408 14.5514C33.3165 14.2515 33.7673 14.0608 34.2441 14C34.2635 12.0748 34.8712 10.2016 35.9857 8.63168C37.1001 7.06177 38.6681 5.87025 40.4791 5.21696C40.4651 5.12896 40.4591 5.05596 40.4421 4.98596C39.8201 2.44696 40.4421 1.18596 42.8001 0.19696L44.1231 0.199966ZM20.1071 36.988C20.4149 40.3502 21.7496 43.5363 23.9301 46.114C26.0171 48.562 28.2301 48.538 30.3671 46.124C31.7615 44.4742 32.8015 42.555 33.4221 40.486C34.0401 38.8813 34.2856 37.1573 34.1401 35.444C33.9046 33.672 33.0075 32.0548 31.629 30.9168C30.2505 29.7789 28.4926 29.2045 26.7081 29.309C22.9261 29.595 20.0761 32.668 20.1071 36.988ZM27.4571 9.13797C27.4091 8.68097 27.3821 8.33197 27.3341 7.98697C27.0979 6.34102 26.2941 4.8293 25.0616 3.7131C23.8291 2.59691 22.2453 1.94638 20.5841 1.87396C18.932 1.81485 17.3103 2.32992 15.9951 3.33156C14.6799 4.3332 13.7523 5.75954 13.3701 7.36797C13.0343 9.35517 13.2523 11.3965 14.0001 13.268C14.0647 13.3978 14.1663 13.5057 14.2921 13.578C15.2829 14.2562 16.1245 15.1301 16.7649 16.1458C17.4053 17.1615 17.8312 18.2975 18.0161 19.484C18.043 19.6587 18.13 19.8185 18.2621 19.936C18.7236 20.3402 19.2979 20.5933 19.9076 20.6611C20.5173 20.7288 21.1332 20.608 21.6721 20.315C22.2899 19.9889 22.8495 19.5628 23.3281 19.054C25.7391 16.2827 27.188 12.8053 27.4581 9.14197L27.4571 9.13797ZM35.9801 13.938H50.9581C50.9581 13.694 50.9741 13.492 50.9581 13.292C50.828 11.7682 50.2352 10.3206 49.2591 9.14331C48.283 7.96599 46.9704 7.11519 45.4971 6.70497C44.4731 6.41197 44.3601 6.10497 44.6901 5.09497C44.8884 4.4874 44.9927 3.85305 44.9991 3.21396C44.9991 2.33096 44.3991 1.85397 43.4641 1.85297C42.5291 1.85197 41.9111 2.33496 41.9291 3.21196C41.9593 3.90437 42.0827 4.58956 42.2961 5.24896C42.5371 6.04896 42.3961 6.41096 41.5961 6.66696C41.1207 6.80638 40.6548 6.97605 40.2011 7.17496C38.9223 7.77961 37.8445 8.73941 37.0963 9.93982C36.348 11.1402 35.9609 12.5306 35.9811 13.945L35.9801 13.938ZM53.6201 18.502C53.6201 18.072 53.6201 17.689 53.6201 17.302C53.6201 16.002 53.2481 15.636 51.9341 15.636C46.3508 15.636 40.7674 15.636 35.1841 15.636C34.9631 15.6299 34.7419 15.6386 34.5221 15.662C34.2785 15.6757 34.0473 15.774 33.8684 15.9399C33.6895 16.1059 33.5741 16.3291 33.5421 16.571C33.4966 17.212 33.4903 17.8552 33.5231 18.497L53.6201 18.502Z" fill="#2F455C"/>
<path d="M14.725 20.7011C14.7383 20.7979 14.7319 20.8964 14.7064 20.9908C14.6808 21.0851 14.6365 21.1733 14.5761 21.2502C14.5158 21.3271 14.4406 21.391 14.355 21.4382C14.2694 21.4855 14.1753 21.515 14.078 21.5251C13.9801 21.5554 13.8771 21.5652 13.7752 21.5539C13.6734 21.5427 13.5749 21.5106 13.486 21.4596C13.3971 21.4087 13.3196 21.34 13.2584 21.2579C13.1971 21.1757 13.1534 21.0818 13.13 20.9821C13.023 20.6311 12.961 20.2651 12.841 19.9201C12.6714 19.3731 12.3834 18.8702 11.9974 18.4471C11.6115 18.0241 11.1371 17.6912 10.608 17.4721C10.033 17.2311 9.84905 16.8451 10.053 16.3521C10.0938 16.2439 10.1572 16.1457 10.2391 16.0641C10.3209 15.9825 10.4193 15.9194 10.5276 15.8791C10.6359 15.8387 10.7516 15.822 10.8669 15.8301C10.9822 15.8382 11.0945 15.871 11.1961 15.9261C12.1564 16.3353 12.99 16.9937 13.6105 17.8333C14.2309 18.6728 14.6157 19.6629 14.725 20.7011V20.7011Z" fill="#2F455C"/>
<path d="M32.5264 36.3324C32.534 36.5262 32.4647 36.7152 32.3336 36.8581C32.2024 37.001 32.0201 37.0863 31.8264 37.0954C31.6446 37.1409 31.4524 37.1154 31.2887 37.0242C31.1251 36.933 31.0023 36.7829 30.9454 36.6044C30.9006 36.4646 30.8652 36.3219 30.8394 36.1774C30.7283 35.4736 30.4363 34.8108 29.9922 34.2537C29.548 33.6966 28.9668 33.2644 28.3054 32.9994C28.2028 32.9687 28.1079 32.9167 28.0268 32.8468C27.9457 32.7768 27.8804 32.6905 27.8351 32.5935C27.7898 32.4965 27.7654 32.391 27.7638 32.284C27.7621 32.1769 27.7831 32.0707 27.8254 31.9724C27.8497 31.8678 27.896 31.7696 27.9613 31.6844C28.0267 31.5992 28.1095 31.529 28.2042 31.4784C28.2989 31.4278 28.4033 31.3981 28.5104 31.3912C28.6176 31.3843 28.725 31.4004 28.8254 31.4384C29.8418 31.8208 30.729 32.4836 31.3841 33.3498C32.0392 34.216 32.4352 35.2502 32.5264 36.3324V36.3324Z" fill="#2F455C"/>
<path d="M21.7554 3.8392C21.8932 3.87349 22.0288 3.91623 22.1614 3.96719C23.1051 4.37284 23.9233 5.02341 24.5311 5.85154C25.1389 6.67966 25.5143 7.65523 25.6184 8.67719C25.6371 8.77372 25.6354 8.87309 25.6136 8.96896C25.5917 9.06482 25.5501 9.15506 25.4913 9.23392C25.4326 9.31279 25.3581 9.37853 25.2725 9.42696C25.1869 9.47539 25.0922 9.50544 24.9944 9.51519C24.8976 9.5476 24.7953 9.56034 24.6935 9.55265C24.5917 9.54496 24.4925 9.517 24.4016 9.47042C24.3108 9.42384 24.2302 9.35957 24.1645 9.28139C24.0989 9.20322 24.0495 9.11271 24.0194 9.01519C23.9689 8.85751 23.9298 8.69644 23.9024 8.5332C23.7904 7.84873 23.5027 7.20503 23.0675 6.665C22.6323 6.12497 22.0644 5.70709 21.4194 5.45219C21.3213 5.42354 21.2299 5.37556 21.1507 5.31107C21.0714 5.24659 21.0059 5.1669 20.9579 5.0767C20.9099 4.9865 20.8805 4.88761 20.8713 4.78585C20.8621 4.68409 20.8733 4.58153 20.9044 4.48418C20.9378 4.28873 21.0444 4.11332 21.2024 3.99354C21.3605 3.87376 21.5581 3.81858 21.7554 3.8392V3.8392Z" fill="#2F455C"/>
</svg>
