<svg width="104" height="99" viewBox="0 0 104 99" fill="none" xmlns="http://www.w3.org/2000/svg">
<path d="M74.7099 73.0939L49.6819 98.1239L24.4219 72.8639L5.73692 54.1789L1.00293 49.4449V0.234863L49.2969 47.9669L49.5249 48.1949L74.7099 73.0939Z" fill="url(#paint0_linear_1_2051)"/>
<path d="M98.1402 0.234863V49.4409L49.4622 98.1239L24.4302 73.0939L49.6952 48.1179L98.1402 0.234863Z" fill="url(#paint1_linear_1_2051)"/>
<g filter="url(#filter0_d_1_2051)">
<path d="M98.1348 0.225586V37.7066C91.4148 45.5886 77.2978 50.8226 49.6908 48.1066C49.6018 48.1016 49.5128 48.0956 49.4238 48.0846L98.1348 0.225586Z" fill="url(#paint2_linear_1_2051)"/>
</g>
<g filter="url(#filter1_d_1_2051)">
<path d="M49.7137 48.0005L49.5247 48.1895L24.4247 72.8545L5.73975 54.1695C13.6327 48.7905 27.0888 45.7975 49.3008 47.9615L49.4507 47.9785C49.5357 47.9835 49.6247 47.9895 49.7137 48.0005Z" fill="url(#paint3_linear_1_2051)"/>
</g>
<defs>
<filter id="filter0_d_1_2051" x="44.4238" y="0.225586" width="58.7109" height="59.606" filterUnits="userSpaceOnUse" color-interpolation-filters="sRGB">
<feFlood flood-opacity="0" result="BackgroundImageFix"/>
<feColorMatrix in="SourceAlpha" type="matrix" values="0 0 0 0 0 0 0 0 0 0 0 0 0 0 0 0 0 0 127 0" result="hardAlpha"/>
<feOffset dy="6"/>
<feGaussianBlur stdDeviation="2.5"/>
<feColorMatrix type="matrix" values="0 0 0 0 0 0 0 0 0 0 0 0 0 0 0 0 0 0 0.102 0"/>
<feBlend mode="normal" in2="BackgroundImageFix" result="effect1_dropShadow_1_2051"/>
<feBlend mode="normal" in="SourceGraphic" in2="effect1_dropShadow_1_2051" result="shape"/>
</filter>
<filter id="filter1_d_1_2051" x="0.739746" y="31.2524" width="53.9741" height="41.6021" filterUnits="userSpaceOnUse" color-interpolation-filters="sRGB">
<feFlood flood-opacity="0" result="BackgroundImageFix"/>
<feColorMatrix in="SourceAlpha" type="matrix" values="0 0 0 0 0 0 0 0 0 0 0 0 0 0 0 0 0 0 127 0" result="hardAlpha"/>
<feOffset dy="-11"/>
<feGaussianBlur stdDeviation="2.5"/>
<feColorMatrix type="matrix" values="0 0 0 0 0 0 0 0 0 0 0 0 0 0 0 0 0 0 0.102 0"/>
<feBlend mode="normal" in2="BackgroundImageFix" result="effect1_dropShadow_1_2051"/>
<feBlend mode="normal" in="SourceGraphic" in2="effect1_dropShadow_1_2051" result="shape"/>
</filter>
<linearGradient id="paint0_linear_1_2051" x1="0.708102" y1="48.9836" x2="74.8581" y2="49.2611" gradientUnits="userSpaceOnUse">
<stop stop-color="#1DCCF8"/>
<stop offset="1" stop-color="#35F3C4"/>
</linearGradient>
<linearGradient id="paint1_linear_1_2051" x1="24.5776" y1="48.8857" x2="98.141" y2="49.1632" gradientUnits="userSpaceOnUse">
<stop stop-color="#1DCCF8"/>
<stop offset="1" stop-color="#35F3C4"/>
</linearGradient>
<linearGradient id="paint2_linear_1_2051" x1="49.4238" y1="24.5285" x2="98.1348" y2="24.5285" gradientUnits="userSpaceOnUse">
<stop stop-color="#1DCCF8"/>
<stop offset="1" stop-color="#35F3C4"/>
</linearGradient>
<linearGradient id="paint3_linear_1_2051" x1="5.73975" y1="60.0535" x2="49.7137" y2="60.0535" gradientUnits="userSpaceOnUse">
<stop stop-color="#1DCCF8"/>
<stop offset="1" stop-color="#35F3C4"/>
</linearGradient>
</defs>
</svg>
