<svg width="68" height="64" viewBox="0 0 68 64" fill="none" xmlns="http://www.w3.org/2000/svg">
<path d="M12.0891 36.6489H46.0131C47.3451 36.6489 47.4841 36.7889 47.4841 38.1269C47.4841 44.9802 47.4841 51.8336 47.4841 58.6869C47.5391 59.8437 47.174 60.9814 46.4562 61.8901C45.7384 62.7989 44.7162 63.4175 43.5781 63.6319C43.1655 63.6998 42.7471 63.7273 42.3291 63.7139C32.7291 63.7139 23.1211 63.6709 13.5181 63.7459C12.8273 63.7678 12.1393 63.6473 11.4971 63.392C10.8548 63.1366 10.272 62.7518 9.78481 62.2616C9.29763 61.7713 8.91653 61.186 8.66524 60.5421C8.41395 59.8983 8.29784 59.2096 8.32411 58.5189C8.41411 52.2839 8.35109 46.0469 8.35109 39.8109V38.8509C7.62309 39.3129 7.00511 39.7019 6.38911 40.0949C4.90311 41.0429 4.87512 41.0369 3.94612 39.5719C3.15612 38.3269 2.35711 37.0869 1.57411 35.8359C1.19285 35.2921 0.929061 34.6748 0.799637 34.0234C0.670213 33.372 0.677979 32.7007 0.822403 32.0525C0.966826 31.4042 1.24479 30.7932 1.6385 30.2583C2.03222 29.7234 2.53303 29.2765 3.10909 28.9459C4.52709 28.0279 5.9581 27.1299 7.4471 26.1819L6.89809 25.8379C5.99887 25.2836 5.32224 24.4319 4.98573 23.4306C4.64923 22.4293 4.67414 21.3418 5.05611 20.3569C5.41669 19.3753 6.11331 18.5531 7.02235 18.0362C7.9314 17.5192 8.99413 17.3409 10.0221 17.5329C12.3531 17.9829 14.6651 18.5329 16.9851 19.0419C17.1941 19.0879 17.4051 19.1219 17.6661 19.1719C18.0661 17.4009 18.4431 15.6869 18.8261 13.9719C19.1761 12.4049 19.5121 10.8339 19.8811 9.27191C20.1325 8.10492 20.835 7.08461 21.8355 6.43332C22.8359 5.78203 24.0532 5.55256 25.2221 5.79492C26.3779 6.03719 27.3934 6.72132 28.052 7.70146C28.7107 8.68161 28.9605 9.88026 28.7481 11.0419C28.6671 11.5629 28.5571 12.0799 28.4651 12.5989C28.4581 12.6359 28.4881 12.6789 28.5191 12.7769C29.7551 11.9929 30.9801 11.2199 32.2011 10.4409C35.0211 8.64092 37.7141 9.22892 39.5091 12.0409C40.3498 13.3583 41.1888 14.6773 42.0261 15.9979C42.5551 16.8339 42.4901 17.1289 41.6591 17.6579L12.7441 36.0579C12.5121 36.2059 12.2851 36.3629 12.0561 36.5159L12.0891 36.6489ZM32.4491 62.1299H33.1661C36.2274 62.1299 39.2888 62.1299 42.3501 62.1299C42.8309 62.1791 43.3166 62.1199 43.7716 61.9568C44.2266 61.7937 44.6393 61.5308 44.9794 61.1873C45.3195 60.8439 45.5783 60.4286 45.737 59.9721C45.8956 59.5155 45.95 59.0292 45.8961 58.5489C45.8961 52.0269 45.8961 45.5049 45.8961 38.9829V38.2829H32.4481L32.4491 62.1299ZM9.97914 38.2699C9.96114 38.4529 9.93611 38.5829 9.93611 38.7119C9.93611 45.4299 9.93611 52.1479 9.93611 58.8659C9.91755 59.303 9.99071 59.739 10.1509 60.1461C10.3111 60.5532 10.5547 60.9222 10.8662 61.2293C11.1776 61.5365 11.5499 61.7751 11.9591 61.9297C12.3683 62.0843 12.8053 62.1515 13.2421 62.1269C15.3561 62.1379 17.4691 62.1269 19.5831 62.1269H20.7011V38.2699H9.97914ZM30.8041 38.2769H22.3821V62.0919H30.8041V38.2769ZM18.0751 30.7769L13.7841 24.0319C10.3841 26.1989 7.03111 28.3089 3.70711 30.4619C3.06665 30.8543 2.59666 31.4726 2.39003 32.1947C2.1834 32.9168 2.25519 33.6902 2.59114 34.3619C3.41514 35.9089 4.41812 37.3619 5.35512 38.8729L18.0751 30.7769ZM40.4751 16.5259C39.6501 15.2259 38.8751 13.9989 38.0971 12.7779C37.8818 12.3453 37.5724 11.9664 37.1914 11.6692C36.8105 11.3719 36.3677 11.1637 35.8958 11.0601C35.4238 10.9564 34.9347 10.9597 34.4642 11.0699C33.9937 11.1802 33.5539 11.3944 33.1771 11.6969C30.8725 13.1576 28.5705 14.6226 26.2711 16.0919C25.4211 16.6329 24.5711 17.1709 23.6971 17.7229L27.9871 24.4699L40.4751 16.5259ZM19.4121 29.9259L26.6471 25.3209L22.3591 18.5769L15.1241 23.1829L19.4121 29.9259ZM19.4401 18.5099C19.7041 18.3619 19.8751 18.2779 20.0401 18.1759C21.8001 17.0539 23.5311 15.8829 25.3291 14.8259C25.7521 14.6297 26.1145 14.3233 26.3784 13.9389C26.6423 13.5545 26.798 13.1062 26.8291 12.6409C26.8761 11.9889 27.1291 11.3539 27.1901 10.7009C27.2387 10.2238 27.1922 9.74186 27.0531 9.28291C26.8564 8.68138 26.464 8.16302 25.9384 7.8105C25.4128 7.45799 24.7843 7.29161 24.1531 7.33792C23.5318 7.35281 22.9326 7.57152 22.4478 7.96037C21.963 8.34923 21.6195 8.88666 21.4701 9.48992C21.1041 10.9369 20.8031 12.4009 20.4781 13.8579C20.1381 15.3719 19.8031 16.8899 19.4481 18.5079L19.4401 18.5099ZM16.2991 20.5169C14.0141 20.0169 11.9151 19.5319 9.80513 19.1069C9.07315 18.9601 8.31272 19.1013 7.68221 19.5011C7.05169 19.9008 6.59965 20.5283 6.42012 21.2529C6.2333 21.9986 6.34282 22.7878 6.72566 23.4544C7.10851 24.1211 7.73485 24.6134 8.4731 24.8279C8.68699 24.9075 8.91698 24.9341 9.14339 24.9054C9.3698 24.8766 9.58586 24.7934 9.77309 24.6629C11.6561 23.4439 13.5671 22.2689 15.4671 21.0749C15.7021 20.9259 15.9291 20.7659 16.3031 20.5159L16.2991 20.5169Z" fill="#2F455C"/>
<path d="M55.9371 27.1859C55.8371 27.7599 55.695 28.3629 55.646 28.9749C55.634 29.2608 55.7236 29.5417 55.899 29.7679C56.248 30.1899 56.714 30.5149 57.055 30.9419C57.1548 31.0609 57.2287 31.1993 57.2721 31.3484C57.3155 31.4975 57.3274 31.6539 57.3071 31.8079C57.2433 31.9486 57.1462 32.0716 57.0243 32.1664C56.9023 32.2612 56.7591 32.3249 56.607 32.3519C55.9091 32.28 55.2093 32.4692 54.6426 32.8828C54.0758 33.2964 53.6824 33.9053 53.538 34.5919C53.4659 34.7302 53.3609 34.8487 53.2322 34.937C53.1035 35.0252 52.9551 35.0805 52.8 35.0979C52.6453 35.0815 52.497 35.0273 52.3681 34.9401C52.2392 34.8529 52.1338 34.7354 52.061 34.5979C51.9169 33.9112 51.5237 33.3022 50.9572 32.8882C50.3907 32.4742 49.691 32.2846 48.993 32.3559C48.8396 32.3307 48.6946 32.2684 48.5707 32.1745C48.4468 32.0806 48.3477 31.9578 48.282 31.8169C48.25 31.6647 48.2559 31.507 48.2994 31.3577C48.3428 31.2084 48.4224 31.0721 48.5311 30.9609C49.1454 30.6017 49.6042 30.0269 49.8184 29.3483C50.0326 28.6697 49.9868 27.9356 49.69 27.2889C49.468 26.6049 50.174 26.1249 50.85 26.4329C51.369 26.6689 51.85 26.9929 52.379 27.2059C52.646 27.3052 52.9394 27.3077 53.2081 27.2129C53.7561 26.9929 54.2571 26.6569 54.7991 26.4129C54.9244 26.3504 55.0641 26.3225 55.2038 26.3319C55.3436 26.3413 55.4784 26.3877 55.5942 26.4664C55.7101 26.5451 55.8029 26.6532 55.8631 26.7797C55.9234 26.9061 55.9489 27.0463 55.9371 27.1859V27.1859ZM54.8071 31.0079C54.4212 30.7607 54.1319 30.3886 53.9875 29.9538C53.8432 29.5189 53.8525 29.0477 54.014 28.6189C53.6714 28.9189 53.2315 29.0844 52.776 29.0844C52.3206 29.0844 51.8806 28.9189 51.538 28.6189C51.7135 29.047 51.7309 29.5235 51.5871 29.9633C51.4432 30.403 51.1476 30.7772 50.753 31.0189C51.2131 30.9735 51.6739 31.0961 52.0506 31.3641C52.4272 31.6321 52.6942 32.0274 52.802 32.4769C52.8976 32.0284 53.1544 31.6307 53.5238 31.3592C53.8933 31.0877 54.3495 30.9612 54.806 31.0039L54.8071 31.0079Z" fill="#2F455C"/>
<path d="M60.5313 4.25607C60.4313 4.39307 60.3173 4.70107 60.0993 4.82207C59.4785 5.09752 58.9825 5.59416 58.7078 6.21526C58.4331 6.83637 58.3994 7.53748 58.6133 8.18206C58.6315 8.34636 58.6083 8.5126 58.5457 8.66561C58.4832 8.81863 58.3833 8.95355 58.2553 9.05807C58.0913 9.11957 57.915 9.14104 57.7411 9.12069C57.5672 9.10034 57.4006 9.03876 57.2553 8.94107C56.8086 8.46184 56.202 8.1626 55.5499 8.09978C54.8978 8.03696 54.2452 8.21491 53.7153 8.60007C53.5573 8.67503 53.3832 8.70944 53.2086 8.70018C53.034 8.69093 52.8644 8.6383 52.7153 8.54707C52.6039 8.40038 52.5289 8.22936 52.4964 8.04806C52.4638 7.86675 52.4748 7.68032 52.5283 7.50407C52.8346 6.94651 52.9276 6.2965 52.7897 5.67543C52.6519 5.05435 52.2928 4.50468 51.7793 4.12907C51.6514 3.99615 51.5578 3.8341 51.5066 3.65691C51.4554 3.47971 51.4481 3.29271 51.4853 3.11206C51.5891 2.9605 51.7281 2.83643 51.8905 2.75055C52.0528 2.66467 52.2336 2.61954 52.4173 2.61906C53.0412 2.73369 53.6854 2.61901 54.2313 2.29614C54.7773 1.97327 55.1882 1.46396 55.3883 0.862064C55.4757 0.698852 55.6017 0.559445 55.7552 0.455933C55.9087 0.352421 56.0852 0.287933 56.2693 0.268066C56.446 0.319448 56.6075 0.413291 56.7396 0.541405C56.8717 0.669519 56.9705 0.828014 57.0273 1.00307C57.0991 1.63377 57.4032 2.21512 57.8804 2.63371C58.3576 3.05229 58.9736 3.2781 59.6083 3.26707C59.7363 3.26316 59.8636 3.28661 59.9818 3.33585C60.1 3.38508 60.2064 3.45897 60.2937 3.55259C60.3811 3.6462 60.4474 3.75737 60.4884 3.87868C60.5294 4 60.544 4.12865 60.5313 4.25607V4.25607ZM54.4313 6.57706C54.8009 6.31198 55.2548 6.19136 55.7072 6.23796C56.1597 6.28457 56.5795 6.49519 56.8873 6.83007C56.9193 5.56407 56.9193 5.56407 57.9283 4.44807C57.4612 4.46825 57.0035 4.31254 56.6456 4.01168C56.2877 3.71082 56.0557 3.28669 55.9953 2.82307C55.8761 3.27148 55.5899 3.6573 55.1953 3.90144C54.8008 4.14557 54.3278 4.22952 53.8733 4.13607C54.2437 4.40834 54.5038 4.80469 54.6062 5.2528C54.7087 5.70092 54.6466 6.17092 54.4313 6.57706V6.57706Z" fill="#2F455C"/>
<path d="M65.247 19.475C65.164 19.585 65.047 19.884 64.826 20.007C64.2143 20.2775 63.7249 20.7654 63.4524 21.3762C63.1799 21.987 63.1438 22.6772 63.351 23.313C63.37 23.4872 63.3457 23.6634 63.2803 23.826C63.2149 23.9886 63.1104 24.1325 62.976 24.245C62.8112 24.3062 62.6339 24.3262 62.4596 24.3032C62.2853 24.2802 62.1193 24.2149 61.976 24.113C61.5378 23.637 60.9403 23.3382 60.2966 23.2731C59.6528 23.2081 59.0076 23.3813 58.483 23.76C58.3149 23.8379 58.13 23.8729 57.9451 23.8619C57.7601 23.8509 57.5808 23.7942 57.423 23.697C57.3161 23.5453 57.2468 23.3703 57.2211 23.1864C57.1953 23.0026 57.2138 22.8153 57.275 22.64C57.5691 22.0896 57.6553 21.4517 57.518 20.8429C57.3807 20.2341 57.0289 19.695 56.527 19.324C56.3964 19.1921 56.2995 19.0305 56.2449 18.8531C56.1902 18.6756 56.1793 18.4876 56.213 18.305C56.3153 18.152 56.4536 18.0263 56.6157 17.9391C56.7779 17.852 56.9589 17.8059 57.143 17.805C57.7778 17.9209 58.4331 17.8023 58.9869 17.4712C59.5408 17.1401 59.9555 16.619 60.154 16.005C60.2397 15.8519 60.3615 15.722 60.5087 15.6265C60.656 15.531 60.8242 15.4729 60.999 15.457C61.1687 15.4971 61.3257 15.579 61.4558 15.6951C61.5859 15.8112 61.685 15.958 61.744 16.122C61.8262 16.7851 62.1508 17.3944 62.6555 17.8324C63.1601 18.2703 63.8089 18.506 64.477 18.494C65.042 18.543 65.264 18.874 65.247 19.475ZM59.147 21.782C59.5168 21.5048 59.9753 21.3726 60.4359 21.4104C60.8965 21.4481 61.3274 21.6533 61.647 21.987C61.5212 21.5449 61.5536 21.0727 61.7387 20.6518C61.9238 20.231 62.25 19.8881 62.661 19.682C62.1987 19.6831 61.7516 19.5169 61.4023 19.2139C61.0531 18.911 60.8252 18.4919 60.761 18.034C60.6187 18.473 60.3216 18.8451 59.925 19.081C59.5285 19.3169 59.0596 19.4004 58.606 19.316C58.9821 19.5901 59.2448 19.9923 59.3447 20.4468C59.4445 20.9013 59.3746 21.3766 59.148 21.783L59.147 21.782Z" fill="#2F455C"/>
<path d="M49.0462 18.5713C50.7882 18.5954 52.5091 18.956 54.1142 19.6333C54.6062 19.8333 54.9092 20.1563 54.6912 20.7013C54.654 20.8126 54.5919 20.9141 54.5097 20.9979C54.4276 21.0818 54.3275 21.1459 54.2169 21.1853C54.1063 21.2248 53.9882 21.2387 53.8715 21.2259C53.7548 21.213 53.6425 21.1738 53.5432 21.1113C51.6422 20.2625 49.5382 19.9752 47.4792 20.2833C43.9992 20.8933 41.6242 23.0383 39.8042 25.9243C39.6752 26.1243 39.5872 26.4243 39.4042 26.5113C39.2659 26.5931 39.1128 26.6467 38.9537 26.669C38.7946 26.6913 38.6327 26.6819 38.4772 26.6413C38.2572 26.5133 38.2092 26.0783 38.1082 25.7703C38.0872 25.7073 38.1602 25.6073 38.2082 25.5323C40.1832 22.1323 42.8902 19.6763 46.8242 18.7883C47.1461 18.7149 47.4725 18.6628 47.8012 18.6323C48.2102 18.5933 48.6292 18.5893 49.0462 18.5713Z" fill="#2F455C"/>
<path d="M48.3789 16.8189C47.5609 16.6829 46.5618 16.5419 45.5788 16.3449C44.9098 16.2109 44.5989 15.7899 44.7619 15.3089C44.9619 14.7179 45.4229 14.6779 45.9459 14.8089C47.4329 15.2322 49.0017 15.2803 50.5119 14.9489C51.5565 14.6945 52.5033 14.1387 53.2346 13.3505C53.9659 12.5623 54.4493 11.5766 54.6249 10.5159C54.6689 10.3459 54.6979 10.1719 54.7479 10.0039C54.7636 9.89961 54.8015 9.79993 54.8589 9.71151C54.9164 9.62308 54.992 9.54795 55.0808 9.49114C55.1696 9.43433 55.2695 9.39714 55.3739 9.38209C55.4782 9.36704 55.5846 9.37446 55.6859 9.40386C55.7904 9.42269 55.8896 9.46353 55.977 9.52368C56.0645 9.58382 56.1381 9.66189 56.1931 9.7527C56.2481 9.8435 56.283 9.94496 56.2958 10.0503C56.3085 10.1557 56.2987 10.2626 56.2669 10.3639C55.7519 13.1869 54.1519 15.9019 50.4109 16.6019C49.8049 16.7189 49.1859 16.7379 48.3789 16.8189Z" fill="#2F455C"/>
<path d="M44.3293 28.0631C44.7673 28.1231 45.5993 28.2081 46.4183 28.3571C47.2373 28.5061 47.5533 28.8451 47.4403 29.3661C47.3273 29.8871 46.9093 30.0551 46.1053 29.8941C44.2273 29.4462 42.2551 29.6109 40.4773 30.3641C39.2424 30.9086 38.1654 31.7565 37.3463 32.8291C36.9463 33.3441 36.5053 33.4551 36.1133 33.1611C35.7213 32.8671 35.6813 32.3961 36.0853 31.8821C37.0552 30.6342 38.3096 29.6363 39.7438 28.972C41.1779 28.3076 42.7502 27.996 44.3293 28.0631V28.0631Z" fill="#2F455C"/>
<path d="M46.9401 8.46497C46.9251 8.84238 46.7642 9.19924 46.4913 9.46038C46.2184 9.72152 45.8548 9.86657 45.4771 9.86497C45.0999 9.84896 44.7434 9.68762 44.4825 9.41473C44.2215 9.14183 44.0763 8.77856 44.0772 8.40098C44.0929 8.02434 44.2536 7.66836 44.5257 7.40746C44.7978 7.14655 45.1601 7.00091 45.5371 7.00098C45.9144 7.0177 46.2708 7.17917 46.532 7.45182C46.7933 7.72447 46.9395 8.08733 46.9401 8.46497V8.46497Z" fill="#2F455C"/>
<path d="M34.2513 35.782C33.8745 35.7695 33.5172 35.6113 33.2547 35.3406C32.9922 35.07 32.8451 34.708 32.8442 34.3309C32.8559 33.9543 33.013 33.5968 33.2827 33.3335C33.5523 33.0702 33.9134 32.9216 34.2903 32.9189C34.6672 32.9333 35.0241 33.0925 35.2867 33.3633C35.5494 33.6341 35.6974 33.9957 35.7003 34.373C35.6881 34.7497 35.5303 35.107 35.2601 35.3698C34.9898 35.6326 34.6282 35.7803 34.2513 35.782Z" fill="#2F455C"/>
<path d="M33.6679 27.7472C33.6642 28.1237 33.5126 28.4837 33.2458 28.7493C32.979 29.015 32.6184 29.1651 32.2419 29.1672C31.865 29.1593 31.5066 29.003 31.2444 28.7322C30.9822 28.4614 30.8376 28.0981 30.8419 27.7212C30.8451 27.3446 30.9967 26.9845 31.2639 26.7192C31.5312 26.4538 31.8923 26.3047 32.2689 26.3042C32.6455 26.3108 33.0042 26.4663 33.2664 26.7368C33.5286 27.0072 33.673 27.3705 33.6679 27.7472V27.7472Z" fill="#2F455C"/>
<path d="M65.627 11.6123C65.4405 11.6125 65.2558 11.5759 65.0835 11.5044C64.9113 11.433 64.7549 11.3281 64.6233 11.196C64.4918 11.0638 64.3877 10.9068 64.3171 10.7342C64.2465 10.5616 64.2108 10.3768 64.2119 10.1903C64.2135 10.0037 64.2521 9.81919 64.3253 9.64756C64.3986 9.47592 64.5052 9.32051 64.6389 9.19033C64.7727 9.06014 64.9309 8.95775 65.1044 8.88909C65.2779 8.82042 65.4634 8.78684 65.65 8.79028C65.8363 8.79028 66.0208 8.82708 66.1928 8.89856C66.3649 8.97005 66.5212 9.07481 66.6527 9.20684C66.7842 9.33888 66.8883 9.49557 66.959 9.66794C67.0298 9.84031 67.0658 10.025 67.065 10.2113C67.0629 10.3978 67.024 10.5821 66.9505 10.7535C66.8771 10.925 66.7705 11.0802 66.6369 11.2104C66.5033 11.3405 66.3453 11.443 66.172 11.512C65.9987 11.581 65.8135 11.6151 65.627 11.6123V11.6123Z" fill="#2F455C"/>
<path d="M63.2562 28.6473C63.4424 28.641 63.628 28.672 63.802 28.7383C63.9761 28.8047 64.1352 28.9051 64.2699 29.0337C64.4047 29.1623 64.5124 29.3165 64.5868 29.4873C64.6612 29.6581 64.7008 29.842 64.7032 30.0283C64.7106 30.2145 64.6804 30.4002 64.6146 30.5746C64.5487 30.7489 64.4485 30.9082 64.3199 31.043C64.1913 31.1778 64.0368 31.2853 63.8657 31.3593C63.6947 31.4332 63.5106 31.472 63.3242 31.4733C63.138 31.4815 62.9519 31.452 62.7774 31.3865C62.6028 31.321 62.4433 31.2209 62.3084 31.0922C62.1735 30.9634 62.0661 30.8088 61.9925 30.6375C61.9189 30.4662 61.8807 30.2817 61.8802 30.0953C61.8721 29.909 61.9017 29.7231 61.9671 29.5485C62.0324 29.3739 62.1323 29.2143 62.2608 29.0791C62.3892 28.944 62.5435 28.8361 62.7146 28.7619C62.8856 28.6877 63.0698 28.6487 63.2562 28.6473V28.6473Z" fill="#2F455C"/>
</svg>
