<svg width="277" height="187" viewBox="0 0 277 187" fill="none" xmlns="http://www.w3.org/2000/svg">
<path d="M9.65692 180.14L9.12695 174.953L51.2269 170.653C60.3283 169.032 68.8169 164.964 75.7829 158.887C82.7489 152.809 87.9297 144.951 90.77 136.153C103.534 96.8962 128.319 62.6464 161.619 38.2498C194.918 13.8531 235.045 0.544676 276.324 0.207031L276.365 5.4209C236.167 5.6954 197.078 18.6303 164.651 42.3877C132.224 66.1451 108.108 99.5168 95.7289 137.762C92.5927 147.475 86.8682 156.149 79.1709 162.852C71.4736 169.555 62.0948 174.033 52.043 175.804L51.853 175.83L9.65692 180.14Z" fill="#34F2C6"/>
<path d="M17.4056 179.325C18.4097 175.112 15.8087 170.883 11.5962 169.879C7.38375 168.875 3.15496 171.476 2.15094 175.689C1.14692 179.901 3.74789 184.13 7.96035 185.134C12.1728 186.138 16.4016 183.537 17.4056 179.325Z" fill="#34F2C6"/>
</svg>
