<svg width="317" height="321" viewBox="0 0 317 321" fill="none" xmlns="http://www.w3.org/2000/svg">
<g opacity="0.5">
<path opacity="0.5" d="M0.537842 131.953V188.894C1.27984 193.042 2.18004 197.132 3.23804 201.164V119.684C2.1867 123.714 1.28651 127.804 0.537842 131.953Z" fill="#4A4A4A"/>
<path opacity="0.5" d="M17.03 84.595V236.251C17.904 237.88 18.8042 239.491 19.7302 241.084V79.762C18.8049 81.356 17.9047 82.967 17.03 84.595Z" fill="#4A4A4A"/>
<path opacity="0.5" d="M33.521 59.743V261.105C34.4083 262.206 35.308 263.295 36.2207 264.372V56.4771C35.308 57.5537 34.4083 58.6424 33.521 59.743Z" fill="#4A4A4A"/>
<path opacity="0.5" d="M50.0127 42.1501V278.698C50.9054 279.517 51.8056 280.326 52.7129 281.124V39.7241C51.8096 40.5235 50.9094 41.3321 50.0127 42.1501Z" fill="#4A4A4A"/>
<path opacity="0.5" d="M66.5049 28.892V291.956C67.4002 292.583 68.3004 293.203 69.2051 293.816V27.032C68.2964 27.642 67.3962 28.262 66.5049 28.892Z" fill="#4A4A4A"/>
<path opacity="0.5" d="M82.9971 18.7531V302.095C83.8971 302.575 84.7973 303.052 85.6973 303.515V17.334C84.7933 17.797 83.8941 18.2741 82.9971 18.7531Z" fill="#4A4A4A"/>
<path opacity="0.5" d="M99.488 11.103V309.746C100.388 310.1 101.288 310.441 102.188 310.779V10.0691C101.288 10.4081 100.384 10.748 99.488 11.103Z" fill="#4A4A4A"/>
<path opacity="0.5" d="M115.98 5.60193V315.245C116.88 315.492 117.78 315.739 118.68 315.97V4.87793C117.778 5.10993 116.879 5.35593 115.98 5.60193Z" fill="#4A4A4A"/>
<path opacity="0.5" d="M132.472 2.00598V318.845C133.371 318.992 134.271 319.132 135.172 319.265V1.58496C134.271 1.71696 133.371 1.85731 132.472 2.00598Z" fill="#4A4A4A"/>
<path opacity="0.5" d="M148.965 0.177979V320.672C149.866 320.725 150.766 320.771 151.665 320.809V0.0410156C150.764 0.0790156 149.864 0.124645 148.965 0.177979Z" fill="#4A4A4A"/>
<path opacity="0.5" d="M165.455 0.0410156V320.809C166.358 320.771 167.257 320.725 168.155 320.672V0.177979C167.258 0.124645 166.358 0.0790156 165.455 0.0410156Z" fill="#4A4A4A"/>
<path opacity="0.5" d="M181.947 1.58496V319.264C182.851 319.131 183.751 318.991 184.647 318.844V2.005C183.752 1.85834 182.851 1.71829 181.947 1.58496Z" fill="#4A4A4A"/>
<path opacity="0.5" d="M198.439 4.87891V315.971C199.345 315.739 200.239 315.492 201.139 315.245V5.60095C200.243 5.35695 199.345 5.10991 198.439 4.87891Z" fill="#4A4A4A"/>
<path opacity="0.5" d="M214.931 10.071V310.779C215.831 310.44 216.739 310.1 217.631 309.745V11.1051C216.739 10.7501 215.835 10.41 214.931 10.071Z" fill="#4A4A4A"/>
<path opacity="0.5" d="M231.422 17.335V303.514C232.329 303.051 233.229 302.574 234.122 302.094V18.7549C233.229 18.2749 232.329 17.802 231.422 17.335Z" fill="#4A4A4A"/>
<path opacity="0.5" d="M247.914 27.0339V293.815C248.823 293.205 249.723 292.585 250.614 291.954V28.8939C249.722 28.2659 248.823 27.6439 247.914 27.0339Z" fill="#4A4A4A"/>
<path opacity="0.5" d="M264.405 39.7258V281.126C265.316 280.326 266.217 279.517 267.105 278.7V42.1519C266.217 41.3325 265.316 40.5238 264.405 39.7258Z" fill="#4A4A4A"/>
<path opacity="0.5" d="M280.897 56.478V264.37C281.812 263.294 282.712 262.205 283.597 261.104V59.744C282.712 58.644 281.812 57.5554 280.897 56.478Z" fill="#4A4A4A"/>
<path opacity="0.5" d="M297.388 79.7631V241.083C298.316 239.489 299.216 237.878 300.088 236.25V84.5961C299.217 82.9681 298.318 81.3571 297.388 79.7631Z" fill="#4A4A4A"/>
<path opacity="0.5" d="M313.88 119.684V201.163C314.935 197.132 315.835 193.042 316.58 188.894V131.954C315.84 127.805 314.94 123.715 313.88 119.684Z" fill="#4A4A4A"/>
</g>
</svg>
