<svg width="447" height="221" viewBox="0 0 447 221" fill="none" xmlns="http://www.w3.org/2000/svg">
<g filter="url(#filter0_d_1_2163)">
<path d="M19.9041 5.02911L27.8991 23.2851L36.0831 5.02911H49.4281L34.0051 34.9291V49.7241H21.7931V34.8051L6.62207 5.02911H19.9041ZM62.3961 50.3541C59.4581 50.3541 56.8561 49.9001 54.5901 48.9921C52.3241 48.0841 50.4241 46.8354 48.8901 45.2461C47.3567 43.6574 46.2027 41.8518 45.4281 39.8291C44.6534 37.8065 44.2651 35.6808 44.2631 33.4521C44.2631 31.2234 44.6514 29.0874 45.4281 27.0441C46.2047 25.0008 47.3587 23.1951 48.8901 21.6271C50.4234 20.0591 52.3234 18.8208 54.5901 17.9121C56.8567 17.0034 59.4587 16.5494 62.3961 16.5501C65.3754 16.5501 67.9877 17.0041 70.2331 17.9121C72.4784 18.8201 74.3671 20.0584 75.8991 21.6271C77.4324 23.1951 78.5864 25.0008 79.3611 27.0441C80.1357 29.0874 80.5241 31.2234 80.5261 33.4521C80.5261 35.6808 80.1377 37.8065 79.3611 39.8291C78.5844 41.8518 77.4304 43.6574 75.8991 45.2461C74.3657 46.8348 72.4771 48.0835 70.2331 48.9921C67.9891 49.9008 65.3767 50.3548 62.3961 50.3541ZM56.5421 33.4541C56.5421 34.8648 56.7937 36.0838 57.2971 37.1111C57.8004 38.1384 58.4927 38.9248 59.3741 39.4701C60.2554 40.0141 61.2627 40.2861 62.3961 40.2861C63.5294 40.2861 64.5367 40.0141 65.4181 39.4701C66.2994 38.9261 66.9917 38.1404 67.4951 37.1131C67.9984 36.0858 68.2501 34.8668 68.2501 33.4561C68.2501 32.0454 67.9984 30.8264 67.4951 29.7991C66.9917 28.7718 66.2994 27.9861 65.4181 27.4421C64.5367 26.8981 63.5294 26.6261 62.3961 26.6261C61.2627 26.6261 60.2554 26.8981 59.3741 27.4421C58.4927 27.9861 57.8004 28.7718 57.2971 29.7991C56.7937 30.8264 56.5417 32.0438 56.5411 33.4511L56.5421 33.4541ZM84.4291 38.5541V17.0541H96.3891V35.7701C96.3891 37.1701 96.7144 38.2701 97.3651 39.0701C98.0157 39.8701 98.9074 40.2701 100.04 40.2701C100.669 40.2701 101.299 40.1904 101.929 40.0311C102.559 39.8718 103.199 39.5534 103.849 39.0761C104.5 38.5981 105.14 37.9214 105.769 37.0461V17.0531H117.73V36.5641C117.73 37.6755 117.897 38.4471 118.23 38.8791C118.563 39.3111 119.151 39.5684 119.993 39.6511V49.7241C118.944 49.9341 117.999 50.0914 117.16 50.1961C116.321 50.3008 115.587 50.3531 114.96 50.3531C112.945 50.3531 111.351 49.9795 110.176 49.2321C109.001 48.4848 108.246 47.3461 107.91 45.8161L107.658 44.6381C106.105 46.6674 104.248 48.1274 102.087 49.0181C99.9257 49.9088 97.4801 50.3541 94.7501 50.3541C91.4347 50.3541 88.8854 49.3394 87.1021 47.3101C85.3187 45.2808 84.4274 42.3604 84.4281 38.5491L84.4291 38.5541ZM147.379 26.8151C145.071 26.8151 142.971 27.0668 141.079 27.5701C139.187 28.0734 137.781 28.9128 136.861 30.0881V49.7241H124.906V17.0531H135.859V22.9071C137.034 20.6831 138.503 18.9731 140.266 17.7771C142.029 16.5811 143.895 15.9831 145.866 15.9831C146.327 15.9831 146.653 15.9831 146.842 15.9831C147.031 15.9831 147.21 16.0041 147.377 16.0461L147.379 26.8151ZM166.327 49.7291V29.4541H162.235V20.4541H166.327V16.8641C166.327 14.0941 166.831 11.6811 167.838 9.62511C168.845 7.56911 170.262 5.97445 172.087 4.84111C173.912 3.70778 176.042 3.14111 178.476 3.14111C179.903 3.14111 181.372 3.29845 182.883 3.61311C184.394 3.92778 185.989 4.39978 187.667 5.02911L185.65 14.0941C184.979 13.8421 184.223 13.6321 183.384 13.4641C182.545 13.2961 181.811 13.2121 181.184 13.2121C180.219 13.2121 179.495 13.4744 179.012 13.9991C178.529 14.5238 178.288 15.3318 178.288 16.4231V20.4521H185.527V29.4521H178.288V49.7221L166.327 49.7291ZM188.989 38.5541V17.0541H200.95V35.7701C200.95 37.1701 201.275 38.2701 201.926 39.0701C202.577 39.8701 203.468 40.2701 204.601 40.2701C205.23 40.2701 205.86 40.1904 206.49 40.0311C207.12 39.8718 207.76 39.5534 208.41 39.0761C209.061 38.5981 209.701 37.9214 210.33 37.0461V17.0531H222.29V36.5641C222.29 37.6755 222.457 38.4471 222.79 38.8791C223.123 39.3111 223.711 39.5684 224.553 39.6511V49.7241C223.504 49.9341 222.559 50.0914 221.72 50.1961C220.881 50.3008 220.147 50.3531 219.52 50.3531C217.505 50.3531 215.911 49.9795 214.736 49.2321C213.561 48.4848 212.806 47.3461 212.47 45.8161L212.218 44.6381C210.665 46.6674 208.808 48.1274 206.647 49.0181C204.486 49.9088 202.041 50.3541 199.313 50.3541C195.998 50.3541 193.448 49.3394 191.665 47.3101C189.882 45.2808 188.99 42.3604 188.989 38.5491V38.5541ZM229.215 3.77011H241.176V36.5701C241.176 37.7874 241.438 38.7208 241.963 39.3701C242.488 40.0195 243.254 40.3448 244.263 40.3461C244.766 40.3461 245.312 40.2621 245.9 40.0941C246.488 39.9261 247.034 39.6954 247.537 39.4021L249.048 48.2151C247.621 48.8864 246.016 49.4111 244.232 49.7891C242.448 50.1671 240.759 50.3561 239.164 50.3561C235.975 50.3561 233.52 49.5271 231.799 47.8691C230.078 46.2111 229.218 43.8505 229.218 40.7871L229.215 3.77011ZM251.562 3.77011H263.523V36.5701C263.523 37.7874 263.785 38.7208 264.31 39.3701C264.835 40.0195 265.601 40.3448 266.61 40.3461C267.113 40.3461 267.659 40.2621 268.247 40.0941C268.835 39.9261 269.381 39.6954 269.884 39.4021L271.395 48.2151C269.968 48.8864 268.363 49.4111 266.579 49.7891C264.795 50.1671 263.106 50.3561 261.512 50.3561C258.323 50.3561 255.868 49.5271 254.147 47.8691C252.426 46.2111 251.566 43.8505 251.566 40.7871L251.562 3.77011ZM271.769 53.0601C272.734 53.3934 273.626 53.6558 274.444 53.8471C275.262 54.0384 276.007 54.1328 276.679 54.1301C277.56 54.1301 278.294 53.9728 278.879 53.6581C279.464 53.3435 279.926 52.8625 280.264 52.2151C280.597 51.5678 280.807 50.7798 280.894 49.8511L268.87 17.0511H281.15L287.45 37.6911L292.55 17.0511H303.692L292.48 53.7801C291.851 55.9001 290.822 57.7604 289.395 59.3611C287.968 60.9618 286.268 62.2108 284.295 63.1081C282.322 64.0054 280.203 64.4541 277.937 64.4541C276.888 64.4541 275.849 64.3598 274.821 64.1711C273.793 63.9824 272.775 63.6781 271.768 63.2581L271.769 53.0601ZM8.25807 106.832C8.25807 103.613 8.87707 100.734 10.1151 98.1951C11.3531 95.6564 13.0631 93.6548 15.2451 92.1901C17.4271 90.7235 19.9241 89.9901 22.7361 89.9901C24.8761 89.9901 26.8484 90.4831 28.6531 91.4691C30.4577 92.4551 31.8217 93.8084 32.7451 95.5291V77.2121H44.7071V109.946C44.7071 111.079 44.8737 111.866 45.2071 112.307C45.5404 112.748 46.1281 113.01 46.9701 113.094V123.17C44.9134 123.589 43.2347 123.799 41.9341 123.799C39.9194 123.799 38.3247 123.421 37.1501 122.666C35.9754 121.911 35.2201 120.757 34.8841 119.204L34.6321 118.004C33.4987 120.019 31.9654 121.488 30.0321 122.411C28.0987 123.334 26.0424 123.796 23.8631 123.796C21.5964 123.796 19.5084 123.383 17.5991 122.558C15.6897 121.733 14.0321 120.566 12.6261 119.058C11.2201 117.551 10.1394 115.756 9.38407 113.672C8.62874 111.588 8.2534 109.308 8.25807 106.832ZM32.8091 110.461V104.779C32.4311 103.852 31.9171 103.036 31.2671 102.331C30.6171 101.626 29.8931 101.072 29.0951 100.67C28.2951 100.27 27.4767 100.07 26.6401 100.07C25.7587 100.07 24.9507 100.251 24.2161 100.614C23.4814 100.977 22.8414 101.48 22.2961 102.125C21.7507 102.77 21.3311 103.515 21.0371 104.362C20.7431 105.209 20.5961 106.115 20.5961 107.081C20.5961 108.089 20.7534 108.996 21.0681 109.802C21.3827 110.608 21.8337 111.303 22.4211 111.887C23.0084 112.471 23.7007 112.924 24.4981 113.247C25.2954 113.57 26.1767 113.731 27.1421 113.73C27.7294 113.73 28.2751 113.66 28.7791 113.519C29.2831 113.378 29.7657 113.178 30.2271 112.919C30.6884 112.657 31.1394 112.314 31.5801 111.891C32.0207 111.468 32.4304 110.991 32.8091 110.46V110.461ZM68.1871 123.797C65.2911 123.797 62.7101 123.353 60.4441 122.464C58.1781 121.575 56.2781 120.366 54.7441 118.837C53.2107 117.308 52.0461 115.551 51.2501 113.567C50.4541 111.583 50.0541 109.495 50.0501 107.304C50.0501 104.171 50.7424 101.296 52.1271 98.6791C53.5117 96.0624 55.5471 93.9604 58.2331 92.3731C60.9191 90.7864 64.2344 89.9931 68.1791 89.9931C72.1237 89.9931 75.4391 90.7784 78.1251 92.3491C80.8111 93.9198 82.8464 95.9865 84.2311 98.5491C85.6157 101.112 86.3081 103.901 86.3081 106.918C86.3081 107.538 86.2767 108.168 86.2141 108.809C86.1514 109.45 86.0781 110.016 85.9941 110.509H62.7731C62.8571 111.624 63.1824 112.531 63.7491 113.228C64.3157 113.925 65.0291 114.433 65.8891 114.752C66.7491 115.071 67.6407 115.23 68.5641 115.23C69.8647 115.23 71.0924 114.936 72.2471 114.349C73.4017 113.762 74.1684 112.943 74.5471 111.894L84.6821 114.794C83.8007 116.557 82.5731 118.109 80.9991 119.452C79.4251 120.795 77.5681 121.854 75.4281 122.631C73.2867 123.408 70.8731 123.796 68.1871 123.796V123.797ZM62.5211 103.338H73.4751C73.3491 102.313 73.0447 101.447 72.5621 100.738C72.0794 100.029 71.4497 99.4778 70.6731 99.0831C69.8964 98.6891 69.0047 98.4921 67.9981 98.4921C66.9914 98.4921 66.0997 98.6891 65.3231 99.0831C64.5464 99.4771 63.9167 100.029 63.4341 100.738C62.9514 101.447 62.6474 102.314 62.5221 103.337L62.5211 103.338ZM106.586 123.797C103.648 123.797 101.057 123.343 98.8121 122.435C96.5674 121.527 94.6674 120.278 93.1121 118.689C91.5594 117.1 90.3844 115.295 89.5871 113.272C88.7897 111.249 88.3897 109.124 88.3871 106.895C88.3871 103.923 89.0901 101.147 90.4961 98.5681C91.9021 95.9888 93.9584 93.9148 96.6651 92.3461C99.3717 90.7774 102.677 89.9931 106.58 89.9931C110.567 89.9931 113.924 90.8324 116.652 92.5111C119.38 94.1898 121.415 96.3511 122.758 98.9951L111.112 102.52C110.567 101.72 109.906 101.111 109.129 100.694C108.352 100.277 107.482 100.067 106.517 100.064C105.426 100.064 104.439 100.336 103.558 100.88C102.677 101.424 101.974 102.2 101.449 103.207C100.924 104.214 100.662 105.443 100.662 106.894C100.662 108.305 100.924 109.524 101.449 110.551C101.974 111.578 102.677 112.364 103.558 112.908C104.439 113.452 105.426 113.724 106.517 113.724C107.188 113.724 107.797 113.63 108.343 113.441C108.889 113.252 109.403 112.969 109.885 112.591C110.368 112.213 110.777 111.772 111.113 111.269L122.759 114.794C121.878 116.557 120.671 118.109 119.139 119.452C117.607 120.795 115.802 121.854 113.725 122.631C111.652 123.408 109.273 123.796 106.587 123.796L106.586 123.797ZM142.531 123.797C139.635 123.797 137.054 123.353 134.788 122.464C132.522 121.575 130.622 120.366 129.088 118.837C127.555 117.308 126.39 115.551 125.594 113.567C124.798 111.583 124.398 109.495 124.394 107.304C124.394 104.171 125.086 101.296 126.471 98.6791C127.856 96.0624 129.891 93.9604 132.577 92.3731C135.263 90.7864 138.578 89.9931 142.523 89.9931C146.468 89.9931 149.783 90.7784 152.469 92.3491C155.155 93.9198 157.19 95.9865 158.575 98.5491C159.96 101.112 160.652 103.901 160.652 106.918C160.652 107.538 160.621 108.168 160.558 108.809C160.495 109.45 160.422 110.016 160.338 110.509H137.118C137.202 111.624 137.527 112.531 138.094 113.228C138.661 113.925 139.374 114.433 140.234 114.752C141.094 115.071 141.986 115.23 142.909 115.23C144.21 115.23 145.437 114.936 146.592 114.349C147.747 113.762 148.513 112.943 148.892 111.894L159.027 114.794C158.146 116.557 156.918 118.109 155.344 119.452C153.77 120.795 151.913 121.854 149.773 122.631C147.632 123.408 145.218 123.796 142.532 123.796L142.531 123.797ZM136.865 103.338H147.82C147.694 102.313 147.39 101.447 146.907 100.738C146.424 100.029 145.795 99.4778 145.018 99.0831C144.241 98.6891 143.35 98.4921 142.343 98.4921C141.336 98.4921 140.445 98.6891 139.668 99.0831C138.891 99.4771 138.262 100.029 137.779 100.738C137.296 101.447 136.992 102.314 136.866 103.337L136.865 103.338ZM197.865 123.167H185.905V104.987C185.905 103.387 185.538 102.23 184.805 101.517C184.072 100.804 183.222 100.445 182.256 100.442C181.585 100.442 180.871 100.631 180.116 101.008C179.361 101.385 178.668 101.911 178.039 102.586C177.41 103.261 176.906 104.036 176.528 104.909V123.17H164.564V90.4951H175.329V95.4381C176.129 94.2381 177.136 93.2381 178.351 92.4381C179.566 91.6381 180.972 91.0294 182.569 90.6121C184.164 90.1994 185.905 89.9931 187.794 89.9931C190.061 89.9931 191.865 90.3851 193.208 91.1691C194.551 91.9531 195.558 92.9641 196.23 94.2021C196.901 95.4401 197.342 96.7298 197.552 98.0711C197.762 99.4124 197.867 100.64 197.867 101.754L197.865 123.167ZM226.885 121.278C225.794 121.739 224.629 122.169 223.391 122.568C223.082 122.668 222.771 122.762 222.459 122.849C222.147 122.936 221.834 123.018 221.519 123.095C221.204 123.171 220.888 123.241 220.571 123.305C220.254 123.369 219.935 123.427 219.615 123.48C218.335 123.69 217.086 123.795 215.869 123.795C214.064 123.795 212.407 123.497 210.896 122.901C209.385 122.305 208.179 121.318 207.276 119.941C206.374 118.564 205.923 116.703 205.923 114.36V99.4971H201.831V90.4971H205.923V80.1081H217.884V90.4951H224.368V99.4951H217.884V110.052C217.884 111.104 218.115 111.842 218.576 112.267C219.037 112.692 219.667 112.904 220.465 112.904C221.052 112.904 221.724 112.799 222.479 112.589C223.234 112.379 223.99 112.127 224.745 111.834L226.885 121.278ZM252.758 100.253C250.45 100.253 248.35 100.505 246.458 101.008C244.566 101.511 243.16 102.351 242.24 103.526V123.17H230.285V90.4951H241.238V96.3491C242.413 94.1251 243.882 92.4151 245.645 91.2191C247.408 90.0231 249.274 89.4251 251.245 89.4251C251.706 89.4251 252.032 89.4251 252.221 89.4251C252.41 89.4251 252.589 89.4461 252.756 89.4881L252.758 100.253ZM254.269 113.341C254.269 111.155 254.878 109.227 256.095 107.556C257.312 105.885 259.002 104.576 261.163 103.627C263.324 102.678 265.791 102.204 268.563 102.204C269.864 102.204 271.091 102.309 272.246 102.519C273.401 102.729 274.397 103.044 275.236 103.463V102.456C275.236 100.963 274.785 99.8558 273.883 99.1331C272.981 98.4105 271.523 98.0491 269.508 98.0491C267.661 98.0491 265.93 98.3534 264.315 98.9621C262.7 99.5708 261.01 100.462 259.247 101.637L255.785 94.2091C258.009 92.7824 260.349 91.7228 262.804 91.0301C265.259 90.3374 267.893 89.9911 270.704 89.9911C275.95 89.9911 280.01 91.1484 282.885 93.4631C285.76 95.7778 287.197 99.2085 287.197 103.755V110.023C287.197 111.128 287.364 111.895 287.697 112.323C288.03 112.751 288.618 113.007 289.46 113.091V123.17C288.495 123.38 287.582 123.537 286.722 123.642C285.862 123.747 285.095 123.799 284.422 123.799C282.282 123.799 280.656 123.411 279.543 122.634C278.43 121.857 277.706 120.714 277.371 119.203L277.119 118.003C275.652 119.892 273.952 121.329 272.019 122.315C270.086 123.301 268.029 123.794 265.85 123.794C263.668 123.794 261.696 123.34 259.933 122.433C258.17 121.526 256.785 120.278 255.778 118.69C254.772 117.103 254.269 115.32 254.269 113.34V113.341ZM273.658 114.041C274.119 113.724 274.497 113.376 274.791 112.999C275.085 112.622 275.232 112.235 275.232 111.838V109.517C274.561 109.279 273.794 109.079 272.932 108.917C272.07 108.755 271.303 108.676 270.632 108.679C269.205 108.679 267.999 109.016 267.012 109.691C266.025 110.366 265.532 111.219 265.533 112.251C265.533 112.806 265.7 113.312 266.033 113.768C266.366 114.224 266.828 114.581 267.418 114.839C268.005 115.097 268.677 115.226 269.432 115.226C270.145 115.226 270.89 115.117 271.667 114.898C272.444 114.679 273.107 114.395 273.658 114.044V114.041ZM293.55 77.2121H305.511V110.012C305.511 111.229 305.773 112.163 306.298 112.812C306.823 113.461 307.589 113.787 308.598 113.788C309.101 113.788 309.647 113.704 310.235 113.536C310.823 113.368 311.369 113.137 311.872 112.844L313.383 121.657C311.956 122.328 310.351 122.853 308.567 123.231C306.783 123.609 305.094 123.798 303.499 123.798C300.31 123.798 297.855 122.969 296.134 121.311C294.413 119.653 293.553 117.292 293.553 114.229L293.55 77.2121ZM316.15 123.17V90.0541H328.11V123.17H316.15ZM316.15 87.2881V77.2121H328.11V87.2841L316.15 87.2881ZM332.517 116.119L347.625 98.6821H333.461V90.4981H360.089V97.5481L345.044 114.985H360.656V123.17H332.516L332.517 116.119ZM381.117 123.799C378.221 123.799 375.64 123.355 373.374 122.466C371.108 121.577 369.208 120.368 367.674 118.839C366.141 117.31 364.976 115.553 364.18 113.569C363.384 111.585 362.984 109.497 362.98 107.306C362.98 104.173 363.672 101.298 365.057 98.6811C366.442 96.0644 368.477 93.9624 371.163 92.3751C373.849 90.7884 377.164 89.9951 381.109 89.9951C385.054 89.9951 388.369 90.7804 391.055 92.3511C393.741 93.9218 395.776 95.9885 397.161 98.5511C398.546 101.114 399.238 103.903 399.238 106.92C399.238 107.54 399.207 108.17 399.144 108.811C399.081 109.452 399.008 110.018 398.924 110.511H375.7C375.784 111.626 376.109 112.533 376.676 113.23C377.243 113.927 377.956 114.435 378.816 114.754C379.676 115.073 380.568 115.232 381.491 115.232C382.792 115.232 384.019 114.938 385.174 114.351C386.329 113.764 387.095 112.945 387.474 111.896L397.609 114.796C396.728 116.559 395.5 118.111 393.926 119.454C392.352 120.797 390.495 121.856 388.355 122.633C386.214 123.408 383.8 123.796 381.114 123.796L381.117 123.799ZM375.45 103.337H386.403C386.277 102.312 385.973 101.446 385.49 100.737C385.007 100.028 384.378 99.4768 383.602 99.0821C382.825 98.6881 381.934 98.4911 380.927 98.4911C379.92 98.4911 379.029 98.6881 378.252 99.0821C377.475 99.4761 376.846 100.028 376.363 100.737C375.88 101.446 375.576 102.313 375.45 103.337ZM401.386 106.832C401.386 103.613 402.005 100.734 403.243 98.1951C404.481 95.6564 406.191 93.6548 408.373 92.1901C410.555 90.7235 413.052 89.9901 415.864 89.9901C418.004 89.9901 419.976 90.4831 421.781 91.4691C423.586 92.4551 424.95 93.8084 425.873 95.5291V77.2121H437.834V109.946C437.834 111.079 438.001 111.866 438.334 112.307C438.667 112.748 439.255 113.01 440.097 113.094V123.17C438.04 123.589 436.362 123.799 435.061 123.799C433.046 123.799 431.452 123.421 430.277 122.666C429.102 121.911 428.347 120.757 428.011 119.204L427.759 118.004C426.626 120.019 425.092 121.488 423.159 122.411C421.226 123.334 419.169 123.796 416.99 123.796C414.723 123.796 412.635 123.383 410.726 122.558C408.817 121.733 407.159 120.566 405.753 119.058C404.347 117.551 403.266 115.756 402.511 113.672C401.756 111.588 401.38 109.308 401.384 106.832H401.386ZM425.937 110.461V104.779C425.559 103.852 425.045 103.036 424.395 102.331C423.745 101.626 423.021 101.072 422.223 100.669C421.423 100.269 420.605 100.069 419.768 100.069C418.887 100.069 418.079 100.25 417.344 100.613C416.609 100.976 415.969 101.479 415.424 102.124C414.879 102.769 414.459 103.514 414.165 104.361C413.871 105.208 413.724 106.114 413.724 107.08C413.724 108.088 413.881 108.995 414.196 109.801C414.511 110.607 414.962 111.302 415.549 111.886C416.136 112.47 416.829 112.923 417.626 113.246C418.423 113.569 419.305 113.73 420.27 113.729C420.857 113.729 421.403 113.659 421.907 113.518C422.411 113.377 422.894 113.177 423.355 112.918C423.816 112.656 424.267 112.313 424.708 111.89C425.149 111.467 425.558 110.99 425.935 110.46L425.937 110.461ZM63.4031 196.609H51.4421V178.429C51.4421 176.829 51.1167 175.672 50.4661 174.959C49.8154 174.246 49.0284 173.887 48.1051 173.884C47.1817 173.884 46.1744 174.314 45.0831 175.174C43.9917 176.034 43.1944 177.139 42.6911 178.49V196.609H30.7321V178.429C30.7321 176.829 30.4067 175.672 29.7561 174.959C29.1054 174.246 28.3184 173.887 27.3951 173.884C26.4717 173.884 25.4644 174.301 24.3731 175.135C23.2817 175.969 22.4844 177.041 21.9811 178.351V196.61H10.0211V163.937H20.7851V168.88C21.9604 167.105 23.5761 165.754 25.6321 164.826C27.6881 163.898 30.1214 163.434 32.9321 163.434C35.6601 163.434 37.7164 164.012 39.1011 165.167C40.4857 166.322 41.4091 167.622 41.8711 169.067C43.0464 167.292 44.6621 165.91 46.7181 164.92C48.7741 163.93 51.0824 163.435 53.6431 163.435C55.8251 163.435 57.5667 163.827 58.8681 164.611C60.1694 165.395 61.1451 166.406 61.7951 167.644C62.4457 168.882 62.8757 170.171 63.0851 171.512C63.2944 172.853 63.3994 174.08 63.4001 175.195L63.4031 196.609ZM85.5031 197.239C82.5651 197.239 79.9631 196.785 77.6971 195.877C75.4311 194.969 73.5311 193.72 71.9971 192.131C70.4637 190.542 69.3097 188.737 68.5351 186.714C67.7604 184.691 67.3721 182.566 67.3701 180.337C67.3701 178.108 67.7584 175.972 68.5351 173.929C69.3117 171.886 70.4657 170.08 71.9971 168.512C73.5304 166.944 75.4304 165.706 77.6971 164.797C79.9637 163.888 82.5657 163.434 85.5031 163.435C88.4824 163.435 91.0947 163.889 93.3401 164.797C95.5854 165.705 97.4741 166.943 99.0061 168.512C100.539 170.08 101.693 171.886 102.468 173.929C103.243 175.972 103.631 178.108 103.633 180.337C103.633 182.566 103.245 184.691 102.468 186.714C101.691 188.737 100.537 190.542 99.0061 192.131C97.4727 193.72 95.5841 194.968 93.3401 195.877C91.0961 196.786 88.4824 197.239 85.4991 197.238L85.5031 197.239ZM79.6491 180.339C79.6491 181.75 79.9007 182.969 80.4041 183.996C80.9074 185.023 81.5997 185.809 82.4811 186.353C83.3624 186.897 84.3697 187.169 85.5031 187.169C86.6364 187.169 87.6437 186.897 88.5251 186.353C89.4064 185.809 90.0987 185.023 90.6021 183.996C91.1054 182.969 91.3571 181.75 91.3571 180.339C91.3571 178.928 91.1054 177.709 90.6021 176.682C90.0987 175.655 89.4064 174.869 88.5251 174.325C87.6437 173.781 86.6364 173.509 85.5031 173.509C84.3697 173.509 83.3624 173.781 82.4811 174.325C81.5997 174.869 80.9074 175.655 80.4041 176.682C79.9007 177.709 79.6474 178.927 79.6441 180.336L79.6491 180.339ZM141.149 196.612H129.186V178.432C129.186 176.832 128.819 175.675 128.086 174.962C127.353 174.249 126.503 173.89 125.537 173.887C124.866 173.887 124.152 174.076 123.397 174.453C122.642 174.83 121.949 175.356 121.32 176.031C120.691 176.706 120.187 177.481 119.809 178.354V196.613H107.85V163.937H118.615V168.88C119.415 167.68 120.422 166.68 121.637 165.88C122.852 165.08 124.258 164.471 125.855 164.054C127.45 163.641 129.191 163.435 131.08 163.435C133.347 163.435 135.151 163.827 136.494 164.611C137.837 165.395 138.844 166.406 139.516 167.644C140.187 168.882 140.628 170.171 140.838 171.512C141.048 172.853 141.153 174.08 141.153 175.195L141.149 196.612ZM163.249 197.242C160.353 197.242 157.772 196.798 155.506 195.909C153.24 195.02 151.34 193.811 149.806 192.282C148.273 190.753 147.108 188.996 146.312 187.012C145.516 185.028 145.116 182.94 145.112 180.749C145.112 177.616 145.804 174.741 147.189 172.124C148.574 169.507 150.609 167.405 153.295 165.818C155.981 164.231 159.296 163.438 163.241 163.438C167.186 163.438 170.501 164.223 173.187 165.794C175.873 167.365 177.908 169.431 179.293 171.994C180.678 174.557 181.37 177.346 181.37 180.363C181.37 180.983 181.339 181.613 181.276 182.254C181.213 182.895 181.14 183.461 181.056 183.954H157.829C157.913 185.069 158.238 185.976 158.805 186.673C159.372 187.37 160.085 187.878 160.945 188.197C161.805 188.516 162.697 188.675 163.62 188.675C164.921 188.675 166.148 188.381 167.303 187.794C168.458 187.207 169.224 186.388 169.603 185.339L179.738 188.239C178.857 190.002 177.629 191.554 176.055 192.897C174.481 194.24 172.624 195.299 170.484 196.076C168.342 196.851 165.928 197.238 163.242 197.238L163.249 197.242ZM157.583 176.783H168.53C168.404 175.758 168.1 174.892 167.617 174.183C167.134 173.474 166.505 172.923 165.728 172.528C164.951 172.134 164.06 171.937 163.053 171.937C162.046 171.937 161.155 172.134 160.378 172.528C159.601 172.922 158.972 173.474 158.489 174.183C158.006 174.892 157.702 175.758 157.577 176.779L157.583 176.783ZM183.833 199.949C184.798 200.282 185.69 200.545 186.508 200.736C187.326 200.927 188.071 201.022 188.743 201.019C189.624 201.019 190.358 200.862 190.943 200.547C191.528 200.232 191.99 199.751 192.328 199.104C192.661 198.457 192.871 197.669 192.958 196.74L180.934 163.94H193.209L199.509 184.58L204.609 163.94H215.751L204.546 200.668C203.917 202.788 202.888 204.648 201.461 206.249C200.034 207.85 198.334 209.099 196.361 209.996C194.388 210.893 192.269 211.342 190.003 211.342C188.954 211.342 187.915 211.248 186.887 211.059C185.859 210.87 184.841 210.566 183.834 210.146L183.833 199.949ZM254.023 197.242C251.631 197.242 249.554 196.778 247.791 195.849C246.028 194.92 244.664 193.569 243.699 191.794V210.021H231.733V163.941H242.12V168.948C243.295 167.173 244.754 165.811 246.495 164.862C248.236 163.913 250.345 163.439 252.822 163.438C255.046 163.438 257.081 163.851 258.928 164.676C260.775 165.501 262.39 166.678 263.775 168.205C265.16 169.732 266.23 171.507 266.985 173.529C267.74 175.551 268.118 177.78 268.118 180.216C268.118 183.477 267.509 186.387 266.292 188.946C265.075 191.505 263.408 193.528 261.292 195.013C259.17 196.496 256.745 197.238 254.017 197.238L254.023 197.242ZM249.862 187.17C250.743 187.17 251.551 186.989 252.286 186.626C253.021 186.263 253.661 185.76 254.206 185.115C254.751 184.47 255.171 183.725 255.465 182.878C255.759 182.031 255.906 181.125 255.906 180.159C255.906 179.151 255.749 178.244 255.434 177.438C255.119 176.632 254.668 175.937 254.081 175.353C253.494 174.769 252.801 174.316 252.004 173.993C251.207 173.67 250.325 173.509 249.36 173.51C248.815 173.51 248.28 173.579 247.755 173.716C247.23 173.853 246.737 174.049 246.276 174.304C245.815 174.559 245.364 174.882 244.923 175.275C244.482 175.668 244.073 176.138 243.695 176.687V182.321C244.073 183.239 244.587 184.067 245.237 184.806C245.887 185.545 246.611 186.123 247.409 186.542C248.205 186.961 249.023 187.17 249.862 187.17ZM288.762 197.242C285.824 197.242 283.222 196.788 280.956 195.88C278.69 194.972 276.79 193.723 275.256 192.134C273.723 190.545 272.569 188.74 271.794 186.717C271.019 184.694 270.631 182.569 270.629 180.34C270.629 178.111 271.017 175.975 271.794 173.932C272.571 171.889 273.725 170.083 275.256 168.515C276.789 166.947 278.689 165.709 280.956 164.8C283.223 163.891 285.825 163.437 288.762 163.438C291.741 163.438 294.354 163.892 296.599 164.8C298.844 165.708 300.733 166.946 302.265 168.515C303.798 170.083 304.952 171.889 305.727 173.932C306.502 175.975 306.89 178.111 306.892 180.34C306.892 182.569 306.504 184.694 305.727 186.717C304.95 188.74 303.796 190.545 302.265 192.134C300.732 193.723 298.843 194.971 296.599 195.88C294.355 196.789 291.744 197.241 288.766 197.238L288.762 197.242ZM282.908 180.342C282.908 181.753 283.16 182.972 283.663 183.999C284.166 185.026 284.859 185.812 285.74 186.356C286.621 186.9 287.629 187.172 288.762 187.172C289.895 187.172 290.903 186.9 291.784 186.356C292.665 185.812 293.358 185.026 293.861 183.999C294.364 182.972 294.616 181.753 294.616 180.342C294.616 178.931 294.364 177.712 293.861 176.685C293.358 175.658 292.665 174.872 291.784 174.328C290.903 173.784 289.895 173.512 288.762 173.512C287.629 173.512 286.621 173.784 285.74 174.328C284.859 174.872 284.166 175.658 283.663 176.685C283.16 177.712 282.909 178.929 282.911 180.336L282.908 180.342ZM333.835 194.726C332.744 195.187 331.579 195.617 330.341 196.016C330.032 196.116 329.721 196.21 329.409 196.297C329.097 196.384 328.784 196.466 328.469 196.543C328.154 196.619 327.838 196.689 327.521 196.753C327.204 196.817 326.885 196.875 326.565 196.928C325.285 197.138 324.036 197.243 322.819 197.243C321.014 197.243 319.357 196.945 317.846 196.349C316.335 195.753 315.129 194.766 314.226 193.389C313.324 192.012 312.873 190.151 312.873 187.808V172.939H308.781V163.939H312.873V153.55H324.834V163.937H331.318V172.937H324.834V183.494C324.834 184.546 325.065 185.284 325.526 185.709C325.987 186.134 326.617 186.346 327.414 186.346C328.001 186.346 328.673 186.241 329.428 186.031C330.183 185.821 330.939 185.569 331.694 185.276L333.835 194.726Z" fill="white"/>
</g>
<defs>
<filter id="filter0_d_1_2163" x="0.62207" y="0.141113" width="445.475" height="220.201" filterUnits="userSpaceOnUse" color-interpolation-filters="sRGB">
<feFlood flood-opacity="0" result="BackgroundImageFix"/>
<feColorMatrix in="SourceAlpha" type="matrix" values="0 0 0 0 0 0 0 0 0 0 0 0 0 0 0 0 0 0 127 0" result="hardAlpha"/>
<feOffset dy="3"/>
<feGaussianBlur stdDeviation="3"/>
<feColorMatrix type="matrix" values="0 0 0 0 0 0 0 0 0 0 0 0 0 0 0 0 0 0 0.161 0"/>
<feBlend mode="normal" in2="BackgroundImageFix" result="effect1_dropShadow_1_2163"/>
<feBlend mode="normal" in="SourceGraphic" in2="effect1_dropShadow_1_2163" result="shape"/>
</filter>
</defs>
</svg>
