<svg width="315" height="43" viewBox="0 0 315 43" fill="none" xmlns="http://www.w3.org/2000/svg">
<path d="M293.418 3.29004H21.8728C13.5626 3.29004 6.82581 10.0268 6.82581 18.337C6.82581 26.6473 13.5626 33.384 21.8728 33.384H293.418C301.728 33.384 308.465 26.6473 308.465 18.337C308.465 10.0268 301.728 3.29004 293.418 3.29004Z" fill="white"/>
<g filter="url(#filter0_d_1_745)">
<path d="M293.418 3.29004H21.8728C13.5626 3.29004 6.82581 10.0268 6.82581 18.337C6.82581 26.6473 13.5626 33.384 21.8728 33.384H293.418C301.728 33.384 308.465 26.6473 308.465 18.337C308.465 10.0268 301.728 3.29004 293.418 3.29004Z" fill="white"/>
</g>
<path d="M293.418 3.79004H21.8728C13.8387 3.79004 7.32581 10.303 7.32581 18.337C7.32581 26.3711 13.8387 32.884 21.8728 32.884H293.418C301.452 32.884 307.965 26.3711 307.965 18.337C307.965 10.303 301.452 3.79004 293.418 3.79004Z" stroke="#2EE8D4"/>
<defs>
<filter id="filter0_d_1_745" x="0.825806" y="0.290039" width="313.639" height="42.094" filterUnits="userSpaceOnUse" color-interpolation-filters="sRGB">
<feFlood flood-opacity="0" result="BackgroundImageFix"/>
<feColorMatrix in="SourceAlpha" type="matrix" values="0 0 0 0 0 0 0 0 0 0 0 0 0 0 0 0 0 0 127 0" result="hardAlpha"/>
<feOffset dy="3"/>
<feGaussianBlur stdDeviation="3"/>
<feColorMatrix type="matrix" values="0 0 0 0 0 0 0 0 0 0 0 0 0 0 0 0 0 0 0.161 0"/>
<feBlend mode="normal" in2="BackgroundImageFix" result="effect1_dropShadow_1_745"/>
<feBlend mode="normal" in="SourceGraphic" in2="effect1_dropShadow_1_745" result="shape"/>
</filter>
</defs>
</svg>
