<svg width="58" height="58" viewBox="0 0 58 58" fill="none" xmlns="http://www.w3.org/2000/svg">
<path d="M26.8607 47.9624C27.6827 48.2754 27.8158 48.4624 27.8158 49.2964C27.8158 51.6457 27.8158 53.9946 27.8158 56.3433C27.8158 57.2433 27.489 57.5754 26.6 57.5754C22.3213 57.5754 18.0424 57.5754 13.763 57.5754C12.839 57.5754 12.5257 57.2514 12.5257 56.3054C12.5257 54.0154 12.5389 51.7263 12.5169 49.4373C12.5099 48.7083 12.631 48.1193 13.474 47.9883C13.474 47.2053 13.5017 46.4683 13.4667 45.7353C13.4357 45.3174 13.3178 44.9105 13.1205 44.5408C12.9231 44.171 12.6507 43.8467 12.3207 43.5884C10.3207 41.8244 8.3458 40.0313 6.3358 38.2793C5.42818 37.496 4.78689 36.4497 4.50083 35.2854C3.19483 30.3274 1.85378 25.3795 0.523784 20.4285C0.258873 19.6371 0.25767 18.7811 0.520366 17.989C0.783062 17.197 1.29553 16.5116 1.98082 16.0354C2.1332 15.8994 2.22598 15.7091 2.2396 15.5054C2.2132 14.5818 2.51822 13.6792 3.09947 12.9609C3.68071 12.2427 4.50024 11.7561 5.40904 11.5894C6.35369 11.4568 7.31439 11.6683 8.11607 12.1853C8.91775 12.7023 9.50669 13.4901 9.77574 14.4053C11.1164 18.3386 12.4771 22.262 13.8578 26.1753C13.9543 26.4053 14.1227 26.5979 14.3377 26.7244C17.0377 28.3244 19.7579 29.9023 22.4579 31.5093C23.8277 32.2627 24.9633 33.3795 25.7396 34.7366C26.5159 36.0937 26.9027 37.6386 26.8578 39.2014C26.8768 42.1074 26.8607 45.0134 26.8607 47.9624ZM24.9486 47.9924C24.9486 45.0184 24.9586 42.1123 24.9486 39.2063C24.9902 37.9835 24.6928 36.7732 24.0892 35.709C23.4856 34.6448 22.5995 33.7681 21.5287 33.1763C18.8287 31.5703 16.1099 29.9905 13.3949 28.4065C13.1772 28.247 12.9282 28.135 12.6644 28.0781C12.4006 28.0212 12.1277 28.0205 11.8636 28.0762C11.5996 28.1318 11.3506 28.2426 11.1322 28.4011C10.9138 28.5596 10.7313 28.7625 10.5965 28.9963C10.4618 29.2301 10.3776 29.4896 10.35 29.7581C10.3223 30.0265 10.3517 30.2978 10.4359 30.5542C10.5201 30.8106 10.6573 31.0463 10.8387 31.2461C11.0202 31.4458 11.2415 31.605 11.4886 31.7134C13.1746 32.6924 14.8656 33.6603 16.5506 34.6423C17.1956 35.0183 17.3798 35.5625 17.0628 36.0745C16.7628 36.5645 16.2199 36.6534 15.6009 36.2974C13.8759 35.3064 12.1499 34.3183 10.4349 33.3103C9.56262 32.8446 8.90529 32.0583 8.60191 31.1172C8.29852 30.1761 8.37284 29.1538 8.80894 28.2664C8.90071 28.0755 8.92677 27.8597 8.88365 27.6523C7.92431 24.6403 6.95168 21.6333 5.96568 18.6313C5.80814 18.1517 5.46653 17.7544 5.01597 17.5266C4.56542 17.2988 4.04298 17.2595 3.56333 17.417C3.08369 17.5745 2.68612 17.9161 2.45835 18.3667C2.23059 18.8173 2.19144 19.3397 2.34898 19.8193C3.70498 24.9103 5.05468 30.0034 6.46568 35.0784C6.67025 35.7178 7.03993 36.2921 7.53697 36.7434C9.52097 38.5854 11.5586 40.3694 13.5926 42.1584C14.1766 42.6431 14.6425 43.2545 14.9544 43.9463C15.2664 44.6381 15.4163 45.3919 15.3929 46.1504C15.3839 46.7594 15.3929 47.3704 15.3929 47.9934L24.9486 47.9924ZM14.4769 49.9553V55.6184H25.8768V49.9553H14.4769ZM4.20103 15.3245C6.55103 15.8245 7.28171 16.4883 8.04771 18.8323C8.18871 19.2663 8.32566 19.7013 8.46666 20.1323C9.15066 22.2443 9.83569 24.3563 10.5277 26.4893L11.7958 26.1084L9.87486 20.5474C9.22686 18.6714 8.5787 16.7957 7.93003 14.9204C7.78251 14.4515 7.47297 14.0503 7.05699 13.7883C6.64101 13.5264 6.14566 13.4209 5.65904 13.4905C5.23952 13.5767 4.86355 13.8076 4.59703 14.1428C4.33051 14.4781 4.19039 14.8963 4.20103 15.3245V15.3245Z" fill="#2F455C"/>
<path d="M44.0628 47.9621C44.8888 48.2761 45.0178 48.462 45.0188 49.302C45.0188 51.6513 45.0188 54.0004 45.0188 56.3491C45.0188 57.2491 44.6917 57.5739 43.7957 57.5749C39.5163 57.5749 35.2374 57.5749 30.9588 57.5749C30.0588 57.5749 29.7298 57.2501 29.7288 56.3581C29.7288 53.9891 29.7395 51.6199 29.7205 49.2509C29.6988 49.1042 29.7066 48.9547 29.7434 48.811C29.7802 48.6673 29.8457 48.5323 29.9353 48.414C30.0249 48.2958 30.137 48.1966 30.2654 48.1223C30.3938 48.0479 30.5357 47.9998 30.6829 47.9809V45.667C30.6829 43.517 30.6729 41.367 30.6829 39.217C30.6354 37.654 31.0198 36.1082 31.7942 34.7497C32.5686 33.3912 33.7025 32.2726 35.0715 31.5171C37.7525 29.9171 40.4588 28.3621 43.1438 26.7671C43.3911 26.6203 43.5841 26.3975 43.6946 26.132C45.0739 22.2154 46.4385 18.293 47.7879 14.365C48.0545 13.459 48.638 12.6794 49.4324 12.1687C50.2268 11.658 51.1786 11.4504 52.1135 11.5839C53.0234 11.7461 53.8452 12.2285 54.4304 12.9438C55.0157 13.6591 55.3257 14.5601 55.3045 15.4841C55.3231 15.7058 55.4271 15.9116 55.5945 16.0581C56.2492 16.5092 56.7438 17.1568 57.0066 17.9072C57.2694 18.6576 57.2871 19.4721 57.0569 20.2331C55.6909 25.4211 54.2907 30.6009 52.8967 35.7829C52.6394 36.6886 52.117 37.4966 51.3967 38.103C49.4157 39.859 47.4594 41.6451 45.4514 43.3681C44.9804 43.7206 44.606 44.1861 44.3626 44.7216C44.1191 45.2572 44.0148 45.8455 44.0589 46.4321C44.0949 46.9291 44.0628 47.4281 44.0628 47.9621ZM42.1516 47.9919C42.1516 47.3579 42.1616 46.783 42.1516 46.208C42.1219 45.4296 42.2729 44.655 42.593 43.9448C42.9132 43.2346 43.3939 42.6082 43.9968 42.115C46.0228 40.348 48.0435 38.5751 50.0105 36.7431C50.5172 36.2743 50.8917 35.6802 51.0964 35.021C52.4964 29.983 53.8305 24.9279 55.1795 19.8759C55.2731 19.6282 55.3147 19.3641 55.3015 19.0996C55.2884 18.8351 55.2211 18.576 55.1033 18.3388C54.9855 18.1016 54.8197 17.8915 54.617 17.7212C54.4142 17.5508 54.1785 17.4241 53.9246 17.3491C53.4148 17.232 52.8797 17.3174 52.4319 17.5876C51.9841 17.8578 51.6587 18.2916 51.5247 18.7971C50.5847 21.6891 49.6449 24.5821 48.7249 27.4821C48.6462 27.7574 48.6607 28.0509 48.7659 28.3171C49.1717 29.1838 49.2372 30.1711 48.95 31.0839C48.6628 31.9968 48.0435 32.7688 47.2146 33.247C46.5336 33.659 45.8396 34.047 45.1506 34.447C44.0506 35.084 42.9506 35.7301 41.8396 36.3471C41.7095 36.4402 41.5581 36.4986 41.3992 36.5171C41.2403 36.5355 41.0789 36.5134 40.9309 36.4526C40.7829 36.3918 40.6526 36.2944 40.5525 36.1696C40.4524 36.0448 40.3859 35.8966 40.3587 35.739C40.3255 35.5112 40.3698 35.2788 40.4846 35.0793C40.5994 34.8798 40.7779 34.7249 40.9915 34.6391C42.7365 33.6391 44.4807 32.646 46.2097 31.622C46.4388 31.5039 46.6417 31.3405 46.8059 31.1418C46.9701 30.9431 47.092 30.7133 47.1648 30.466C47.2376 30.2188 47.2596 29.9593 47.2293 29.7033C47.1989 29.4474 47.1167 29.2001 46.9881 28.9768C46.8594 28.7534 46.6868 28.5585 46.4807 28.4038C46.2746 28.249 46.0392 28.1376 45.7888 28.0764C45.5385 28.0152 45.2785 28.0053 45.0242 28.0476C44.7699 28.0898 44.527 28.1831 44.3098 28.322C41.4368 29.989 38.5485 31.634 35.7205 33.375C34.7602 33.9412 33.9667 34.7514 33.4207 35.7234C32.8746 36.6953 32.5956 37.7945 32.6116 38.9091C32.5586 41.8351 32.5989 44.7631 32.5999 47.6911C32.5999 47.7851 32.6186 47.8789 32.6306 47.9909L42.1516 47.9919ZM43.0647 55.6379V49.9751H31.6648V55.6379H43.0647ZM53.3518 15.3291C53.3562 14.8981 53.2105 14.4789 52.9397 14.1435C52.669 13.8082 52.2897 13.5775 51.8674 13.4909C51.3911 13.4175 50.9044 13.5179 50.4959 13.7736C50.0874 14.0294 49.7848 14.4234 49.6428 14.884C48.7282 17.508 47.8182 20.1333 46.9129 22.76C46.5259 23.875 46.1379 24.99 45.7449 26.123L47.0217 26.4841C47.9157 23.7211 48.8079 20.984 49.6839 18.247C49.8632 17.6023 50.2044 17.0142 50.6751 16.5385C51.1457 16.0628 51.7301 15.7153 52.3728 15.529C52.696 15.445 53.0235 15.3783 53.3538 15.3291H53.3518Z" fill="#2F455C"/>
<path d="M28.78 3.19806C30.2384 1.77251 32.1028 0.833523 34.1164 0.510076C36.1298 0.213265 38.1852 0.56587 39.9846 1.51667C41.784 2.46747 43.2335 3.96708 44.1228 5.79767C45.0121 7.62826 45.2952 9.69463 44.9304 11.6968C44.5656 13.6991 43.5718 15.5329 42.094 16.9322C37.98 21.0369 33.8707 25.1458 29.7654 29.2591C28.9574 30.0671 28.589 30.0661 27.779 29.2591C23.572 25.0511 19.3312 20.8751 15.1692 16.6231C13.4509 14.8566 12.4825 12.4942 12.466 10.0299C12.4495 7.56555 13.3863 5.19033 15.0808 3.40095C16.7752 1.61156 19.0958 0.546515 21.5573 0.428777C24.0189 0.311039 26.4308 1.14962 28.2883 2.76911L28.78 3.19806ZM28.7624 27.4981C28.8324 27.4515 28.8989 27.4004 28.9621 27.345C33.0281 23.276 37.1372 19.2452 41.1452 15.1212C42.4715 13.6692 43.1863 11.7612 43.1404 9.79523C43.0944 7.82925 42.2909 5.95702 40.8982 4.56867C39.5054 3.18032 37.6309 2.38311 35.6648 2.34333C33.6986 2.30355 31.7932 3.02418 30.3454 4.35505C30.0384 4.63905 29.758 4.95505 29.445 5.23005C29.3578 5.31946 29.2535 5.39052 29.1384 5.43903C29.0232 5.48754 28.8996 5.51252 28.7746 5.51252C28.6497 5.51252 28.526 5.48754 28.4109 5.43903C28.2957 5.39052 28.1915 5.31946 28.1042 5.23005C27.8042 4.96605 27.5392 4.66906 27.2502 4.39606C25.7875 3.02097 23.8422 2.27698 21.8352 2.32477C19.8282 2.37257 17.9207 3.20827 16.5251 4.65143C15.1295 6.09459 14.3582 8.0292 14.3777 10.0367C14.3971 12.0442 15.2058 13.9634 16.6291 15.3792C20.5471 19.3432 24.505 23.2671 28.447 27.2081C28.542 27.3101 28.6474 27.3961 28.7624 27.5001V27.4981Z" fill="#2F455C"/>
<path d="M31.6403 16.47C31.6403 17.39 31.6403 18.2421 31.6403 19.0941C31.6403 19.9461 31.3044 20.289 30.4514 20.294C29.3174 20.299 28.183 20.301 27.051 20.294C26.267 20.289 25.9203 19.945 25.9123 19.168C25.9033 18.295 25.9123 17.4221 25.9123 16.4681C25.0273 16.4681 24.1802 16.4681 23.3322 16.4681C22.4052 16.4681 22.092 16.1462 22.089 15.2042C22.089 14.0892 22.082 12.9752 22.089 11.8602C22.095 11.0832 22.4432 10.7422 23.2282 10.7352C24.0992 10.7272 24.9713 10.7352 25.9103 10.7352C25.9103 9.83518 25.9103 8.99018 25.9103 8.14118C25.9103 7.24118 26.2341 6.91518 27.1271 6.91218C28.2411 6.90818 29.3557 6.90818 30.4704 6.91218C31.2934 6.91218 31.6363 7.25323 31.6423 8.06623C31.6493 8.93623 31.6423 9.80718 31.6423 10.7352C32.5493 10.7352 33.3992 10.7352 34.2492 10.7352C35.1392 10.7352 35.461 11.0661 35.464 11.9671C35.464 13.0821 35.47 14.1961 35.464 15.3111C35.464 16.1261 35.1171 16.4631 34.2951 16.4691C33.4371 16.4751 32.5833 16.47 31.6403 16.47ZM29.7282 18.3702V16.5411C29.7282 14.6091 29.7783 14.5582 31.6823 14.5582H33.509V12.6461H31.7433C29.7723 12.6461 29.7282 12.6042 29.7282 10.6622V8.85407H27.8171V10.6612C27.8171 12.5912 27.763 12.6461 25.862 12.6461H24.0373V14.5582H25.7443C27.7983 14.5582 27.8171 14.5761 27.8171 16.6021V18.3702H29.7282Z" fill="#2F455C"/>
</svg>
