<svg width="277" height="187" viewBox="0 0 277 187" fill="none" xmlns="http://www.w3.org/2000/svg">
<path d="M9.78195 180.14L9.25195 174.953L51.352 170.653C60.4533 169.032 68.9419 164.964 75.9079 158.887C82.8739 152.809 88.0547 144.951 90.895 136.153C97.1917 116.753 106.481 98.4548 118.426 81.9219C130.237 65.5495 144.489 51.0849 160.684 39.032C194.127 14.0424 234.701 0.43489 276.449 0.208008L276.49 5.42188C236.292 5.69638 197.203 18.6313 164.776 42.3887C132.349 66.1461 108.233 99.5177 95.8539 137.763C92.7177 147.476 86.9932 156.15 79.2959 162.853C71.5986 169.556 62.2197 174.034 52.1679 175.805L51.9779 175.831L9.78195 180.14Z" fill="#33F1C6"/>
<path d="M17.5306 179.325C18.5347 175.112 15.9337 170.883 11.7212 169.879C7.50875 168.875 3.27996 171.476 2.27594 175.689C1.27192 179.901 3.87289 184.13 8.08535 185.134C12.2978 186.138 16.5266 183.537 17.5306 179.325Z" fill="#33F1C6"/>
</svg>
