<svg width="61" height="65" viewBox="0 0 61 65" fill="none" xmlns="http://www.w3.org/2000/svg">
<path d="M51.264 0.268066C51.964 0.431066 52.6789 0.568062 53.3719 0.763062C54.7155 1.15025 55.949 1.84883 56.972 2.80206C57.58 3.36006 57.6719 3.91204 57.2519 4.35504C56.8459 4.78104 56.308 4.74307 55.732 4.19507C52.503 1.11507 45.3049 1.18906 42.7449 6.33206C42.1235 7.59632 41.7814 8.97954 41.7421 10.3877C41.7028 11.7959 41.967 13.1961 42.5169 14.493C43.0101 15.7921 43.6675 17.0228 44.4729 18.1551C45.9379 20.1931 47.5509 22.125 49.1289 24.08C49.7289 24.817 50.2609 24.8461 50.8479 24.1891C53.0534 21.8391 55.0018 19.2605 56.66 16.497C57.4829 15.155 58.0119 13.6536 58.2118 12.092C58.4118 10.5304 58.2783 8.9442 57.82 7.43805C57.7698 7.31781 57.7457 7.1883 57.7493 7.05807C57.7529 6.92785 57.784 6.79987 57.8407 6.68259C57.8974 6.5653 57.9785 6.46138 58.0783 6.37769C58.1781 6.29399 58.2946 6.23242 58.42 6.19705C58.545 6.15797 58.677 6.14599 58.807 6.16193C58.9371 6.17787 59.0623 6.22136 59.1742 6.28949C59.2862 6.35762 59.3823 6.44882 59.4562 6.55704C59.5301 6.66525 59.5802 6.78799 59.6029 6.91705C60.498 9.65165 60.3773 12.6172 59.263 15.2701C58.6494 16.7662 57.8688 18.1882 56.936 19.5091C55.536 21.4881 53.9819 23.3671 52.4179 25.2251C50.9129 27.0131 49.139 26.968 47.608 25.196C45.28 22.6499 43.2236 19.8683 41.472 16.8961C41.3892 16.8054 41.2881 16.7334 41.1753 16.6849C41.0625 16.6364 40.9406 16.6126 40.8179 16.6151C37.1399 16.5981 33.4619 16.6031 29.7829 16.6031C28.8479 16.6031 27.913 16.6031 26.977 16.6031C26.252 16.6031 25.8259 16.2451 25.8269 15.6671C25.8279 15.0891 26.254 14.7371 26.982 14.7361C31.2633 14.7327 35.5442 14.7327 39.8249 14.7361H40.4649L39.785 10.5681C39.685 10.5631 39.485 10.5431 39.285 10.5431C31.617 10.5431 23.9479 10.5201 16.2799 10.5481C13.3834 10.5017 10.5648 11.4876 8.32866 13.3293C6.09249 15.171 4.58455 17.7483 4.07487 20.6001C3.77455 22.2752 3.82695 23.9945 4.22856 25.6482C4.63016 27.3019 5.37224 28.8537 6.40739 30.2045C7.44254 31.5553 8.74798 32.6753 10.2404 33.4931C11.7328 34.3109 13.3793 34.8085 15.0749 34.954C15.6959 34.997 16.3199 35.0191 16.9429 35.0201C24.6322 35.0247 32.3216 35.0264 40.0109 35.0251C41.8659 34.985 43.6775 35.5885 45.1379 36.733C46.5982 37.8775 47.6173 39.4923 48.0219 41.303C48.2861 42.4889 48.2786 43.7192 47.9997 44.9017C47.7208 46.0842 47.1778 47.1882 46.4115 48.131C45.6453 49.0738 44.6755 49.831 43.575 50.3457C42.4745 50.8604 41.2718 51.1193 40.0569 51.1031C34.3419 51.1181 28.6269 51.1031 22.9119 51.1031H22.1879V55.2751H22.743C28.4996 55.2751 34.2563 55.2751 40.013 55.2751C42.9187 55.3175 45.7441 54.3214 47.9806 52.4659C50.2172 50.6105 51.718 48.0176 52.2129 45.1541C52.4916 43.5284 52.4391 41.8633 52.0586 40.2585C51.6781 38.6536 50.9774 37.1421 49.9986 35.8147C49.0197 34.4872 47.7829 33.3712 46.3622 32.5334C44.9415 31.6955 43.3662 31.1533 41.7309 30.9391C41.0291 30.8636 40.3238 30.8259 39.618 30.826C31.804 30.818 23.9899 30.8161 16.1759 30.8201C14.5652 30.8347 12.9872 30.3661 11.6454 29.4748C10.3037 28.5835 9.25994 27.3105 8.64897 25.8201C8.04099 24.3392 7.89119 22.7101 8.21904 21.1432C8.54688 19.5764 9.33728 18.1439 10.488 17.0311C11.9049 15.5891 13.8355 14.7675 15.857 14.7461C17.976 14.7071 20.096 14.732 22.216 14.735C22.956 14.735 23.362 15.075 23.363 15.666C23.364 16.257 22.9529 16.6001 22.2199 16.6021C20.1419 16.6081 18.0629 16.5851 15.9859 16.6151C14.7411 16.6319 13.531 17.0276 12.5168 17.7496C11.5025 18.4715 10.7323 19.4854 10.3089 20.6561C9.87745 21.8239 9.81099 23.0953 10.1183 24.3018C10.4257 25.5083 11.0924 26.5929 12.0299 27.412C13.1959 28.4391 14.7056 28.9899 16.259 28.955C24.198 28.949 32.1359 28.931 40.0749 28.955C43.2086 28.9288 46.2612 29.9507 48.7476 31.8582C51.234 33.7657 53.0116 36.4495 53.7979 39.4831C54.3035 41.4171 54.3918 43.4366 54.0569 45.4074C53.722 47.3782 52.9716 49.2553 51.8555 50.9138C50.7394 52.5723 49.2832 53.9743 47.5837 55.0268C45.8841 56.0792 43.98 56.758 41.998 57.0181C41.2971 57.1011 40.5917 57.1415 39.8859 57.139C33.9839 57.1484 28.082 57.1457 22.18 57.131C21.9812 57.1069 21.7802 57.1539 21.6127 57.2637C21.4452 57.3736 21.322 57.5391 21.2649 57.731C20.2747 59.9035 18.5986 61.6908 16.4941 62.8183C14.3896 63.9458 11.9731 64.3511 9.61589 63.972C7.29357 63.5823 5.15786 62.4569 3.52348 60.7617C1.8891 59.0665 0.842483 56.8911 0.537884 54.5561C0.218346 51.9634 0.835477 49.3418 2.27787 47.1638C3.72027 44.9858 5.89314 43.3947 8.40495 42.6771C10.9301 41.9654 13.6273 42.1893 16.0005 43.3077C18.3737 44.426 20.2634 46.3636 21.3219 48.764C21.3717 48.9175 21.4735 49.0487 21.6097 49.1351C21.7459 49.2214 21.9079 49.2575 22.0679 49.2371C28.0529 49.2261 34.0379 49.2441 40.0229 49.2241C41.5561 49.2614 43.0482 48.7255 44.2072 47.7211C45.3662 46.7167 46.1089 45.316 46.29 43.7931C46.485 42.2391 46.0787 40.6694 45.1542 39.4052C44.2297 38.1411 42.8569 37.2781 41.3169 36.993C40.7838 36.9072 40.2437 36.872 39.7039 36.8881C31.9526 36.8821 24.2009 36.88 16.4489 36.882C13.5084 36.9452 10.6213 36.0902 8.1895 34.4359C5.75767 32.7815 3.90207 30.4103 2.8809 27.652C2.14733 25.6568 1.87404 23.5217 2.08134 21.4061C2.28864 19.2904 2.97115 17.2489 4.07804 15.4341C5.18494 13.6192 6.68757 12.0779 8.47367 10.9252C10.2598 9.77245 12.2833 9.03811 14.393 8.77704C15.1367 8.69487 15.8848 8.65815 16.633 8.66705C24.1563 8.65972 31.6793 8.65972 39.2019 8.66705H39.992C40.192 7.95405 40.3349 7.28006 40.5779 6.64606C41.1538 4.97452 42.1909 3.50003 43.5694 2.39301C44.9479 1.28598 46.6115 0.591578 48.368 0.390045C48.5054 0.359694 48.6406 0.320293 48.7729 0.272064L51.264 0.268066ZM2.33097 53.1681C2.32644 55.5626 3.27104 57.8613 4.95793 59.5607C6.64482 61.2602 8.93649 62.2218 11.331 62.235C13.7252 62.2393 16.0235 61.2946 17.7226 59.6077C19.4216 57.9208 20.383 55.6293 20.3959 53.235C20.4108 50.8409 19.4744 48.5388 17.7925 46.8348C16.1107 45.1309 13.8211 44.1644 11.4269 44.148C10.236 44.1388 9.055 44.3654 7.95207 44.8148C6.84913 45.2641 5.84604 45.9274 5.00065 46.7662C4.15527 47.6051 3.4844 48.6031 3.02653 49.7025C2.56866 50.8019 2.33289 51.9811 2.33293 53.1721L2.33097 53.1681Z" fill="#2F455C"/>
<path d="M55.8989 10.5273C55.9066 12.0824 55.2977 13.5772 54.2056 14.6844C53.1134 15.7915 51.627 16.4208 50.0719 16.4342C48.506 16.4342 47.0041 15.813 45.8957 14.7069C44.7873 13.6008 44.1631 12.1001 44.1599 10.5342C44.1701 8.97949 44.7918 7.49123 45.8907 6.39127C46.9895 5.2913 48.4771 4.66804 50.0319 4.65625C51.5874 4.65995 53.0782 5.27982 54.1778 6.38016C55.2774 7.4805 55.8962 8.97167 55.8989 10.5273V10.5273ZM54.0289 10.5273C54.027 9.46522 53.6037 8.44736 52.8517 7.69733C52.0998 6.9473 51.0809 6.52646 50.0189 6.52725C48.9571 6.54144 47.9436 6.97286 47.1974 7.72827C46.4511 8.48368 46.0321 9.50239 46.0309 10.5642C46.0401 11.6266 46.4679 12.6424 47.2214 13.3913C47.975 14.1402 48.9935 14.5616 50.0559 14.5642C50.5819 14.5607 51.1019 14.4535 51.5864 14.2487C52.0709 14.0439 52.5102 13.7456 52.8793 13.3708C53.2483 12.996 53.5398 12.5521 53.7371 12.0645C53.9343 11.5769 54.0335 11.0552 54.0289 10.5292V10.5273Z" fill="#2F455C"/>
<path d="M8.22503 58.517C8.00099 58.5492 7.77243 58.5185 7.56487 58.4282C7.35732 58.3379 7.17893 58.1917 7.04974 58.0058C6.92054 57.82 6.84562 57.6018 6.83331 57.3758C6.82099 57.1498 6.8718 56.9248 6.98004 56.726C7.44704 55.71 7.99108 54.7261 8.45208 53.7101C8.5599 53.4377 8.5599 53.1344 8.45208 52.8621C8.01708 51.8991 7.51806 50.962 7.05206 50.019C6.88481 49.7768 6.8065 49.4841 6.83038 49.1907C6.85425 48.8973 6.97882 48.6211 7.18304 48.409C7.39126 48.2016 7.6642 48.0715 7.95648 48.0404C8.24875 48.0093 8.54288 48.0791 8.79009 48.2381C11.3641 49.4847 13.9411 50.7251 16.5211 51.9591C16.7954 52.0621 17.0309 52.248 17.1948 52.491C17.3586 52.734 17.4426 53.0221 17.4351 53.315C17.4314 53.598 17.3425 53.8734 17.1802 54.1052C17.0179 54.3371 16.7897 54.5147 16.5251 54.615C13.9461 55.85 11.373 57.0991 8.79302 58.3351C8.60918 58.4117 8.41917 58.4726 8.22503 58.517V58.517ZM9.45611 55.94L14.943 53.287L9.46209 50.6391C9.82409 51.3771 10.0921 51.9521 10.3841 52.5141C10.5171 52.7492 10.587 53.0148 10.587 53.285C10.587 53.5553 10.5171 53.8209 10.3841 54.0561C10.0911 54.6231 9.81811 55.203 9.45611 55.94Z" fill="#2F455C"/>
</svg>
