<svg width="103" height="98" viewBox="0 0 103 98" fill="none" xmlns="http://www.w3.org/2000/svg">
<path d="M74.5379 72.859L49.5099 97.889L24.2499 72.629L5.56493 53.944L0.830933 49.21V0L49.1249 47.732L49.3529 47.96L74.5379 72.859Z" fill="url(#paint0_linear_1_683)"/>
<path d="M97.9679 0V49.206L49.2899 97.889L24.2579 72.859L49.5229 47.883L97.9679 0Z" fill="url(#paint1_linear_1_683)"/>
<g filter="url(#filter0_d_1_683)">
<path d="M97.963 0.000976562V37.482C91.243 45.364 77.126 50.598 49.519 47.882C49.43 47.877 49.341 47.871 49.252 47.86L97.963 0.000976562Z" fill="url(#paint2_linear_1_683)"/>
</g>
<g filter="url(#filter1_d_1_683)">
<path d="M49.5419 47.7759L49.3529 47.9649L24.2529 72.6299L5.56787 53.9449C13.4609 48.5659 26.9169 45.5729 49.1289 47.7369L49.2789 47.7539C49.3639 47.7589 49.4529 47.7649 49.5419 47.7759Z" fill="url(#paint3_linear_1_683)"/>
</g>
<defs>
<filter id="filter0_d_1_683" x="44.252" y="0.000976562" width="58.7109" height="59.606" filterUnits="userSpaceOnUse" color-interpolation-filters="sRGB">
<feFlood flood-opacity="0" result="BackgroundImageFix"/>
<feColorMatrix in="SourceAlpha" type="matrix" values="0 0 0 0 0 0 0 0 0 0 0 0 0 0 0 0 0 0 127 0" result="hardAlpha"/>
<feOffset dy="6"/>
<feGaussianBlur stdDeviation="2.5"/>
<feColorMatrix type="matrix" values="0 0 0 0 0 0 0 0 0 0 0 0 0 0 0 0 0 0 0.102 0"/>
<feBlend mode="normal" in2="BackgroundImageFix" result="effect1_dropShadow_1_683"/>
<feBlend mode="normal" in="SourceGraphic" in2="effect1_dropShadow_1_683" result="shape"/>
</filter>
<filter id="filter1_d_1_683" x="0.567871" y="31.0278" width="53.974" height="41.6021" filterUnits="userSpaceOnUse" color-interpolation-filters="sRGB">
<feFlood flood-opacity="0" result="BackgroundImageFix"/>
<feColorMatrix in="SourceAlpha" type="matrix" values="0 0 0 0 0 0 0 0 0 0 0 0 0 0 0 0 0 0 127 0" result="hardAlpha"/>
<feOffset dy="-11"/>
<feGaussianBlur stdDeviation="2.5"/>
<feColorMatrix type="matrix" values="0 0 0 0 0 0 0 0 0 0 0 0 0 0 0 0 0 0 0.102 0"/>
<feBlend mode="normal" in2="BackgroundImageFix" result="effect1_dropShadow_1_683"/>
<feBlend mode="normal" in="SourceGraphic" in2="effect1_dropShadow_1_683" result="shape"/>
</filter>
<linearGradient id="paint0_linear_1_683" x1="0.536105" y1="48.7487" x2="74.6861" y2="49.0262" gradientUnits="userSpaceOnUse">
<stop stop-color="#1DCCF8"/>
<stop offset="1" stop-color="#35F3C4"/>
</linearGradient>
<linearGradient id="paint1_linear_1_683" x1="24.4054" y1="48.6508" x2="97.9687" y2="48.9284" gradientUnits="userSpaceOnUse">
<stop stop-color="#1DCCF8"/>
<stop offset="1" stop-color="#35F3C4"/>
</linearGradient>
<linearGradient id="paint2_linear_1_683" x1="49.252" y1="24.3039" x2="97.963" y2="24.3039" gradientUnits="userSpaceOnUse">
<stop stop-color="#1DCCF8"/>
<stop offset="1" stop-color="#35F3C4"/>
</linearGradient>
<linearGradient id="paint3_linear_1_683" x1="5.56787" y1="59.8289" x2="49.5419" y2="59.8289" gradientUnits="userSpaceOnUse">
<stop stop-color="#1DCCF8"/>
<stop offset="1" stop-color="#35F3C4"/>
</linearGradient>
</defs>
</svg>
