<svg width="476" height="196" viewBox="0 0 476 196" fill="none" xmlns="http://www.w3.org/2000/svg">
<path d="M470.334 195.544C469.999 150.062 453.489 106.183 423.759 71.7602C394.03 37.3377 353.021 14.6184 308.071 7.66791C263.122 0.717387 217.166 9.98929 178.428 33.8246C139.69 57.66 110.699 94.5031 96.6417 137.76C93.5045 147.475 87.7778 156.151 80.0779 162.854C72.378 169.557 62.9961 174.035 52.9417 175.804L52.7517 175.831L10.4807 180.142L9.95166 174.955L52.1267 170.655C61.2296 169.035 69.7201 164.968 76.6877 158.891C83.6554 152.813 88.8376 144.954 91.6787 136.155C106.118 91.7203 135.899 53.874 175.691 29.3896C215.484 4.90513 262.691 -4.61942 308.864 2.5202C355.037 9.65983 397.162 32.9977 427.701 68.3574C458.24 103.717 475.199 148.79 475.544 195.511L470.334 195.544Z" fill="#34F2C7"/>
<path d="M17.5536 181.151C19.5659 177.317 18.0887 172.577 14.2542 170.564C10.4196 168.552 5.67985 170.029 3.66754 173.864C1.65523 177.698 3.13242 182.438 6.96693 184.45C10.8015 186.463 15.5412 184.986 17.5536 181.151Z" fill="#34F2C7"/>
</svg>
