<svg width="124" height="19" viewBox="0 0 124 19" fill="none" xmlns="http://www.w3.org/2000/svg">
<path d="M9 18.481C13.9706 18.481 18 14.4515 18 9.48096C18 4.51039 13.9706 0.480957 9 0.480957C4.02944 0.480957 0 4.51039 0 9.48096C0 14.4515 4.02944 18.481 9 18.481Z" fill="white"/>
<path d="M9 17.981C13.6944 17.981 17.5 14.1754 17.5 9.48096C17.5 4.78654 13.6944 0.980957 9 0.980957C4.30558 0.980957 0.5 4.78654 0.5 9.48096C0.5 14.1754 4.30558 17.981 9 17.981Z" stroke="#102F35"/>
<path d="M61 18.481C65.9706 18.481 70 14.4515 70 9.48096C70 4.51039 65.9706 0.480957 61 0.480957C56.0294 0.480957 52 4.51039 52 9.48096C52 14.4515 56.0294 18.481 61 18.481Z" fill="white"/>
<path d="M61 17.981C65.6944 17.981 69.5 14.1754 69.5 9.48096C69.5 4.78654 65.6944 0.980957 61 0.980957C56.3056 0.980957 52.5 4.78654 52.5 9.48096C52.5 14.1754 56.3056 17.981 61 17.981Z" stroke="#102F35"/>
<path d="M87 18.481C91.9706 18.481 96 14.4515 96 9.48096C96 4.51039 91.9706 0.480957 87 0.480957C82.0294 0.480957 78 4.51039 78 9.48096C78 14.4515 82.0294 18.481 87 18.481Z" fill="white"/>
<path d="M87 17.981C91.6944 17.981 95.5 14.1754 95.5 9.48096C95.5 4.78654 91.6944 0.980957 87 0.980957C82.3056 0.980957 78.5 4.78654 78.5 9.48096C78.5 14.1754 82.3056 17.981 87 17.981Z" stroke="#102F35"/>
<path d="M35 18.481C39.9706 18.481 44 14.4515 44 9.48096C44 4.51039 39.9706 0.480957 35 0.480957C30.0294 0.480957 26 4.51039 26 9.48096C26 14.4515 30.0294 18.481 35 18.481Z" fill="#2F455C"/>
<path d="M35 15.481C38.3137 15.481 41 12.7947 41 9.48096C41 6.16725 38.3137 3.48096 35 3.48096C31.6863 3.48096 29 6.16725 29 9.48096C29 12.7947 31.6863 15.481 35 15.481Z" stroke="#102F35" stroke-width="6"/>
<path d="M115 18.481C119.971 18.481 124 14.4515 124 9.48096C124 4.51039 119.971 0.480957 115 0.480957C110.029 0.480957 106 4.51039 106 9.48096C106 14.4515 110.029 18.481 115 18.481Z" fill="white"/>
<path d="M115 17.981C119.694 17.981 123.5 14.1754 123.5 9.48096C123.5 4.78654 119.694 0.980957 115 0.980957C110.306 0.980957 106.5 4.78654 106.5 9.48096C106.5 14.1754 110.306 17.981 115 17.981Z" stroke="#102F35"/>
</svg>
