<svg width="13" height="12" viewBox="0 0 13 12" fill="none" xmlns="http://www.w3.org/2000/svg">
<path d="M9.26782 0.86499H9.23982C8.71436 0.867522 8.19782 1.00097 7.73688 1.25326C7.27595 1.50555 6.88515 1.86874 6.59982 2.30999C6.3145 1.86874 5.9237 1.50555 5.46276 1.25326C5.00183 1.00097 4.48528 0.867522 3.95982 0.86499H3.93182C3.10407 0.872894 2.31288 1.20714 1.73017 1.79509C1.14746 2.38304 0.820313 3.1772 0.819824 4.00499C0.888094 5.33779 1.3491 6.62061 2.14482 7.69199C3.43161 9.31287 4.92881 10.7549 6.59682 11.98C8.26484 10.7549 9.76204 9.31287 11.0488 7.69199C11.8458 6.62068 12.3079 5.33745 12.3768 4.00399C12.3761 3.17689 12.0492 2.38343 11.4672 1.79578C10.8852 1.20813 10.0949 0.873677 9.26782 0.86499V0.86499Z" fill="white"/>
</svg>
