<svg width="13" height="12" viewBox="0 0 13 12" fill="none" xmlns="http://www.w3.org/2000/svg">
<path d="M9.26782 0.62207H9.23982C8.71436 0.624602 8.19782 0.758046 7.73688 1.01034C7.27595 1.26263 6.88515 1.62582 6.59982 2.06707C6.3145 1.62582 5.9237 1.26263 5.46276 1.01034C5.00183 0.758046 4.48528 0.624602 3.95982 0.62207H3.93182C3.10407 0.629974 2.31288 0.964217 1.73017 1.55217C1.14746 2.14012 0.820313 2.93428 0.819824 3.76207C0.888094 5.09487 1.3491 6.37769 2.14482 7.44907C3.43161 9.06995 4.92881 10.512 6.59682 11.7371C8.26484 10.512 9.76204 9.06995 11.0488 7.44907C11.8458 6.37776 12.3079 5.09453 12.3768 3.76107C12.3761 2.93397 12.0492 2.14051 11.4672 1.55286C10.8852 0.965208 10.0949 0.630757 9.26782 0.62207V0.62207Z" fill="white"/>
</svg>
