<svg width="25" height="25" viewBox="0 0 25 25" fill="none" xmlns="http://www.w3.org/2000/svg">
<path d="M12.7898 0.0831299C10.3769 0.0831299 8.01817 0.798647 6.01189 2.1392C4.00561 3.47975 2.44191 5.38513 1.51852 7.61439C0.59513 9.84365 0.353529 12.2967 0.824269 14.6632C1.29501 17.0298 2.45695 19.2036 4.16315 20.9098C5.86935 22.616 8.04318 23.778 10.4097 24.2487C12.7763 24.7195 15.2293 24.4778 17.4586 23.5545C19.6878 22.6311 21.5932 21.0674 22.9338 19.0611C24.2743 17.0548 24.9898 14.6961 24.9898 12.2831C24.9898 10.681 24.6743 9.09456 24.0612 7.61439C23.4481 6.13422 22.5494 4.7893 21.4166 3.65643C20.2837 2.52355 18.9388 1.62491 17.4586 1.0118C15.9784 0.398692 14.392 0.0831299 12.7898 0.0831299V0.0831299ZM12.7898 4.80713C13.6462 4.80713 14.4834 5.06108 15.1955 5.53687C15.9075 6.01265 16.4625 6.68891 16.7902 7.48011C17.118 8.27131 17.2037 9.14193 17.0366 9.98187C16.8696 10.8218 16.4572 11.5933 15.8516 12.1989C15.2461 12.8045 14.4745 13.2169 13.6346 13.3839C12.7947 13.551 11.924 13.4653 11.1328 13.1375C10.3416 12.8098 9.66537 12.2548 9.18959 11.5427C8.7138 10.8307 8.45985 9.99352 8.45985 9.13713C8.45985 7.98874 8.91604 6.88739 9.72808 6.07536C10.5401 5.26332 11.6415 4.80713 12.7898 4.80713V4.80713ZM12.7898 21.7351C11.4163 21.7345 10.0595 21.4338 8.81431 20.8542C7.5691 20.2745 6.46556 19.4298 5.58085 18.3791C6.04409 17.4936 6.7404 16.7515 7.59462 16.2328C8.44884 15.7142 9.4285 15.4387 10.4278 15.4361C10.5462 15.4368 10.6638 15.455 10.7768 15.4901C11.4258 15.7085 12.1052 15.8233 12.7898 15.8301C13.4746 15.8237 14.154 15.7089 14.8028 15.4901C14.9159 15.455 15.0335 15.4368 15.1518 15.4361C16.1512 15.4387 17.1309 15.7142 17.9851 16.2328C18.8393 16.7515 19.5356 17.4936 19.9988 18.3791C19.114 19.4296 18.0105 20.2741 16.7653 20.8536C15.5201 21.4331 14.1633 21.7336 12.7898 21.7341V21.7351Z" fill="#1FCFF7"/>
</svg>
