<svg width="26" height="25" viewBox="0 0 26 25" fill="none" xmlns="http://www.w3.org/2000/svg">
<path d="M12.8488 0.580078C10.4359 0.580078 8.07713 1.2956 6.07085 2.63615C4.06457 3.9767 2.50087 5.88208 1.57748 8.11134C0.65409 10.3406 0.412489 12.7936 0.883229 15.1602C1.35397 17.5267 2.51591 19.7006 4.22211 21.4068C5.92831 23.113 8.10214 24.2749 10.4687 24.7457C12.8353 25.2164 15.2883 24.9748 17.5175 24.0514C19.7468 23.128 21.6522 21.5643 22.9927 19.558C24.3333 17.5518 25.0488 15.193 25.0488 12.7801C25.0488 11.178 24.7332 9.59151 24.1201 8.11134C23.507 6.63117 22.6084 5.28625 21.4755 4.15338C20.3426 3.0205 18.9977 2.12186 17.5175 1.50875C16.0374 0.89564 14.4509 0.580078 12.8488 0.580078V0.580078ZM12.8488 5.30408C13.7052 5.30408 14.5424 5.55803 15.2544 6.03381C15.9665 6.5096 16.5215 7.18585 16.8492 7.97706C17.1769 8.76826 17.2627 9.63888 17.0956 10.4788C16.9285 11.3188 16.5161 12.0903 15.9106 12.6959C15.305 13.3014 14.5335 13.7138 13.6936 13.8809C12.8536 14.048 11.983 13.9622 11.1918 13.6345C10.4006 13.3067 9.72433 12.7518 9.24855 12.0397C8.77276 11.3276 8.51881 10.4905 8.51881 9.63408C8.51881 8.48569 8.975 7.38434 9.78704 6.57231C10.5991 5.76027 11.7004 5.30408 12.8488 5.30408V5.30408ZM12.8488 22.2321C11.4753 22.2315 10.1185 21.9308 8.87327 21.3511C7.62806 20.7714 6.52452 19.9267 5.63981 18.8761C6.10305 17.9906 6.79936 17.2484 7.65358 16.7298C8.5078 16.2111 9.48746 15.9356 10.4868 15.9331C10.6052 15.9338 10.7228 15.952 10.8358 15.9871C11.4848 16.2055 12.1641 16.3202 12.8488 16.3271C13.5335 16.3206 14.2129 16.2059 14.8618 15.9871C14.9748 15.952 15.0924 15.9338 15.2108 15.9331C16.2102 15.9356 17.1898 16.2111 18.044 16.7298C18.8983 17.2484 19.5946 17.9906 20.0578 18.8761C19.173 19.9265 18.0694 20.7711 16.8242 21.3506C15.579 21.9301 14.2223 22.2306 12.8488 22.2311V22.2321Z" fill="#1FCFF7"/>
</svg>
