<svg width="13" height="12" viewBox="0 0 13 12" fill="none" xmlns="http://www.w3.org/2000/svg">
<path d="M9.18982 0.124146H9.16182C8.63636 0.126678 8.11982 0.260121 7.65888 0.512414C7.19794 0.764707 6.80715 1.12789 6.52182 1.56915C6.23649 1.12789 5.8457 0.764707 5.38476 0.512414C4.92383 0.260121 4.40728 0.126678 3.88182 0.124146H3.85382C3.02607 0.132049 2.23487 0.466292 1.65216 1.05425C1.06945 1.6422 0.74231 2.43635 0.741821 3.26415C0.810091 4.59695 1.2711 5.87977 2.06682 6.95115C3.35361 8.57203 4.8508 10.0141 6.51882 11.2391C8.18684 10.0141 9.68403 8.57203 10.9708 6.95115C11.7678 5.87984 12.2299 4.59661 12.2988 3.26315C12.2981 2.43604 11.9712 1.64259 11.3892 1.05494C10.8072 0.467283 10.0169 0.132832 9.18982 0.124146V0.124146Z" fill="white"/>
</svg>
