<svg width="25" height="25" viewBox="0 0 25 25" fill="none" xmlns="http://www.w3.org/2000/svg">
<path d="M12.7698 0.0831299C10.3569 0.0831299 7.99815 0.798647 5.99187 2.1392C3.98559 3.47975 2.42189 5.38513 1.4985 7.61439C0.57511 9.84365 0.33351 12.2967 0.804249 14.6632C1.27499 17.0298 2.43693 19.2036 4.14313 20.9098C5.84933 22.616 8.02316 23.778 10.3897 24.2487C12.7563 24.7195 15.2093 24.4778 17.4386 23.5545C19.6678 22.6311 21.5732 21.0674 22.9138 19.0611C24.2543 17.0548 24.9698 14.6961 24.9698 12.2831C24.9698 10.681 24.6543 9.09456 24.0412 7.61439C23.4281 6.13422 22.5294 4.7893 21.3965 3.65643C20.2637 2.52355 18.9187 1.62491 17.4386 1.0118C15.9584 0.398692 14.372 0.0831299 12.7698 0.0831299V0.0831299ZM12.7698 4.80713C13.6262 4.80713 14.4634 5.06108 15.1754 5.53687C15.8875 6.01265 16.4425 6.68891 16.7702 7.48011C17.098 8.27131 17.1837 9.14193 17.0166 9.98187C16.8496 10.8218 16.4372 11.5933 15.8316 12.1989C15.226 12.8045 14.4545 13.2169 13.6146 13.3839C12.7746 13.551 11.904 13.4653 11.1128 13.1375C10.3216 12.8098 9.64535 12.2548 9.16957 11.5427C8.69378 10.8307 8.43983 9.99352 8.43983 9.13713C8.43983 7.98874 8.89602 6.88739 9.70806 6.07536C10.5201 5.26332 11.6214 4.80713 12.7698 4.80713V4.80713ZM12.7698 21.7351C11.3963 21.7345 10.0395 21.4338 8.79429 20.8542C7.54908 20.2745 6.44554 19.4298 5.56083 18.3791C6.02407 17.4936 6.72038 16.7515 7.5746 16.2328C8.42882 15.7142 9.40848 15.4387 10.4078 15.4361C10.5262 15.4368 10.6438 15.455 10.7568 15.4901C11.4058 15.7085 12.0851 15.8233 12.7698 15.8301C13.4546 15.8237 14.134 15.7089 14.7828 15.4901C14.8959 15.455 15.0135 15.4368 15.1318 15.4361C16.1312 15.4387 17.1108 15.7142 17.9651 16.2328C18.8193 16.7515 19.5156 17.4936 19.9788 18.3791C19.094 19.4296 17.9904 20.2741 16.7452 20.8536C15.5 21.4331 14.1433 21.7336 12.7698 21.7341V21.7351Z" fill="#1FCFF7"/>
</svg>
