<svg width="25" height="25" viewBox="0 0 25 25" fill="none" xmlns="http://www.w3.org/2000/svg">
<path d="M12.7898 0.581177C10.3769 0.581177 8.01817 1.29669 6.01189 2.63725C4.00561 3.9778 2.44191 5.88318 1.51852 8.11244C0.59513 10.3417 0.353529 12.7947 0.824269 15.1613C1.29501 17.5278 2.45695 19.7017 4.16315 21.4079C5.86935 23.1141 8.04318 24.276 10.4097 24.7468C12.7763 25.2175 15.2293 24.9759 17.4586 24.0525C19.6878 23.1291 21.5932 21.5654 22.9338 19.5591C24.2743 17.5529 24.9898 15.1941 24.9898 12.7812C24.9898 11.179 24.6743 9.59261 24.0612 8.11244C23.4481 6.63227 22.5494 5.28735 21.4166 4.15447C20.2837 3.0216 18.9388 2.12295 17.4586 1.50985C15.9784 0.896739 14.392 0.581177 12.7898 0.581177V0.581177ZM12.7898 5.30518C13.6462 5.30518 14.4834 5.55913 15.1955 6.03491C15.9075 6.5107 16.4625 7.18695 16.7902 7.97816C17.118 8.76936 17.2037 9.63998 17.0366 10.4799C16.8696 11.3199 16.4572 12.0914 15.8516 12.6969C15.2461 13.3025 14.4745 13.7149 13.6346 13.882C12.7947 14.0491 11.924 13.9633 11.1328 13.6356C10.3416 13.3078 9.66537 12.7529 9.18959 12.0408C8.7138 11.3287 8.45985 10.4916 8.45985 9.63518C8.45985 8.48679 8.91604 7.38544 9.72808 6.5734C10.5401 5.76137 11.6415 5.30518 12.7898 5.30518V5.30518ZM12.7898 22.2332C11.4163 22.2326 10.0595 21.9319 8.81431 21.3522C7.5691 20.7725 6.46556 19.9278 5.58085 18.8772C6.04409 17.9917 6.7404 17.2495 7.59462 16.7309C8.44884 16.2122 9.4285 15.9367 10.4278 15.9342C10.5462 15.9349 10.6638 15.9531 10.7768 15.9882C11.4258 16.2066 12.1052 16.3213 12.7898 16.3282C13.4746 16.3217 14.154 16.207 14.8028 15.9882C14.9159 15.9531 15.0335 15.9349 15.1518 15.9342C16.1512 15.9367 17.1309 16.2122 17.9851 16.7309C18.8393 17.2495 19.5356 17.9917 19.9988 18.8772C19.114 19.9276 18.0105 20.7722 16.7653 21.3517C15.5201 21.9312 14.1633 22.2317 12.7898 22.2322V22.2332Z" fill="#1FCFF7"/>
</svg>
