<svg width="25" height="25" viewBox="0 0 25 25" fill="none" xmlns="http://www.w3.org/2000/svg">
<path d="M12.7698 0.581177C10.3569 0.581177 7.99815 1.29669 5.99187 2.63725C3.98559 3.9778 2.42189 5.88318 1.4985 8.11244C0.57511 10.3417 0.33351 12.7947 0.804249 15.1613C1.27499 17.5278 2.43693 19.7017 4.14313 21.4079C5.84933 23.1141 8.02316 24.276 10.3897 24.7468C12.7563 25.2175 15.2093 24.9759 17.4386 24.0525C19.6678 23.1291 21.5732 21.5654 22.9138 19.5591C24.2543 17.5529 24.9698 15.1941 24.9698 12.7812C24.9698 11.179 24.6543 9.59261 24.0412 8.11244C23.4281 6.63227 22.5294 5.28735 21.3965 4.15447C20.2637 3.0216 18.9187 2.12295 17.4386 1.50985C15.9584 0.896739 14.372 0.581177 12.7698 0.581177V0.581177ZM12.7698 5.30518C13.6262 5.30518 14.4634 5.55913 15.1754 6.03491C15.8875 6.5107 16.4425 7.18695 16.7702 7.97816C17.098 8.76936 17.1837 9.63998 17.0166 10.4799C16.8496 11.3199 16.4372 12.0914 15.8316 12.6969C15.226 13.3025 14.4545 13.7149 13.6146 13.882C12.7746 14.0491 11.904 13.9633 11.1128 13.6356C10.3216 13.3078 9.64535 12.7529 9.16957 12.0408C8.69378 11.3287 8.43983 10.4916 8.43983 9.63518C8.43983 8.48679 8.89602 7.38544 9.70806 6.5734C10.5201 5.76137 11.6214 5.30518 12.7698 5.30518V5.30518ZM12.7698 22.2332C11.3963 22.2326 10.0395 21.9319 8.79429 21.3522C7.54908 20.7725 6.44554 19.9278 5.56083 18.8772C6.02407 17.9917 6.72038 17.2495 7.5746 16.7309C8.42882 16.2122 9.40848 15.9367 10.4078 15.9342C10.5262 15.9349 10.6438 15.9531 10.7568 15.9882C11.4058 16.2066 12.0851 16.3213 12.7698 16.3282C13.4546 16.3217 14.134 16.207 14.7828 15.9882C14.8959 15.9531 15.0135 15.9349 15.1318 15.9342C16.1312 15.9367 17.1108 16.2122 17.9651 16.7309C18.8193 17.2495 19.5156 17.9917 19.9788 18.8772C19.094 19.9276 17.9904 20.7722 16.7452 21.3517C15.5 21.9312 14.1433 22.2317 12.7698 22.2322V22.2332Z" fill="#1FCFF7"/>
</svg>
