<svg width="13" height="12" viewBox="0 0 13 12" fill="none" xmlns="http://www.w3.org/2000/svg">
<path d="M9.20984 0.124146H9.18184C8.65638 0.126678 8.13984 0.260121 7.6789 0.512414C7.21796 0.764707 6.82717 1.12789 6.54184 1.56915C6.25651 1.12789 5.86572 0.764707 5.40478 0.512414C4.94384 0.260121 4.4273 0.126678 3.90184 0.124146H3.87384C3.04609 0.132049 2.25489 0.466292 1.67218 1.05425C1.08947 1.6422 0.76233 2.43635 0.761841 3.26415C0.830111 4.59695 1.29112 5.87977 2.08684 6.95115C3.37363 8.57203 4.87082 10.0141 6.53884 11.2391C8.20686 10.0141 9.70405 8.57203 10.9908 6.95115C11.7878 5.87984 12.2499 4.59661 12.3188 3.26315C12.3181 2.43604 11.9913 1.64259 11.4092 1.05494C10.8272 0.467283 10.0369 0.132832 9.20984 0.124146V0.124146Z" fill="white"/>
</svg>
