<svg width="13" height="12" viewBox="0 0 13 12" fill="none" xmlns="http://www.w3.org/2000/svg">
<path d="M9.20984 0.622192H9.18184C8.65638 0.624724 8.13984 0.758168 7.6789 1.01046C7.21796 1.26275 6.82717 1.62594 6.54184 2.06719C6.25651 1.62594 5.86572 1.26275 5.40478 1.01046C4.94384 0.758168 4.4273 0.624724 3.90184 0.622192H3.87384C3.04609 0.630096 2.25489 0.964339 1.67218 1.55229C1.08947 2.14025 0.76233 2.9344 0.761841 3.76219C0.830111 5.09499 1.29112 6.37782 2.08684 7.44919C3.37363 9.07008 4.87082 10.5121 6.53884 11.7372C8.20686 10.5121 9.70405 9.07008 10.9908 7.44919C11.7878 6.37788 12.2499 5.09466 12.3188 3.76119C12.3181 2.93409 11.9913 2.14064 11.4092 1.55298C10.8272 0.96533 10.0369 0.630879 9.20984 0.622192V0.622192Z" fill="white"/>
</svg>
