<svg width="13" height="12" viewBox="0 0 13 12" fill="none" xmlns="http://www.w3.org/2000/svg">
<path d="M9.18982 0.622192H9.16182C8.63636 0.624724 8.11982 0.758168 7.65888 1.01046C7.19794 1.26275 6.80715 1.62594 6.52182 2.06719C6.23649 1.62594 5.8457 1.26275 5.38476 1.01046C4.92383 0.758168 4.40728 0.624724 3.88182 0.622192H3.85382C3.02607 0.630096 2.23487 0.964339 1.65216 1.55229C1.06945 2.14025 0.74231 2.9344 0.741821 3.76219C0.810091 5.09499 1.2711 6.37782 2.06682 7.44919C3.35361 9.07008 4.8508 10.5121 6.51882 11.7372C8.18684 10.5121 9.68403 9.07008 10.9708 7.44919C11.7678 6.37788 12.2299 5.09466 12.2988 3.76119C12.2981 2.93409 11.9712 2.14064 11.3892 1.55298C10.8072 0.96533 10.0169 0.630879 9.18982 0.622192V0.622192Z" fill="white"/>
</svg>
