<svg width="26" height="25" viewBox="0 0 26 25" fill="none" xmlns="http://www.w3.org/2000/svg">
<path d="M12.8488 0.0820312C10.4359 0.0820312 8.07713 0.797549 6.07085 2.1381C4.06457 3.47866 2.50087 5.38403 1.57748 7.61329C0.65409 9.84255 0.412489 12.2956 0.883229 14.6621C1.35397 17.0287 2.51591 19.2025 4.22211 20.9087C5.92831 22.6149 8.10214 23.7769 10.4687 24.2476C12.8353 24.7184 15.2883 24.4768 17.5175 23.5534C19.7468 22.63 21.6522 21.0663 22.9927 19.06C24.3333 17.0537 25.0488 14.695 25.0488 12.282C25.0488 10.6799 24.7332 9.09347 24.1201 7.61329C23.507 6.13312 22.6084 4.7882 21.4755 3.65533C20.3426 2.52245 18.9977 1.62381 17.5175 1.0107C16.0374 0.397593 14.4509 0.0820313 12.8488 0.0820312V0.0820312ZM12.8488 4.80603C13.7052 4.80603 14.5424 5.05998 15.2544 5.53577C15.9665 6.01155 16.5215 6.68781 16.8492 7.47901C17.1769 8.27022 17.2627 9.14084 17.0956 9.98077C16.9285 10.8207 16.5161 11.5922 15.9106 12.1978C15.305 12.8034 14.5335 13.2158 13.6936 13.3828C12.8536 13.5499 11.983 13.4642 11.1918 13.1364C10.4006 12.8087 9.72433 12.2537 9.24855 11.5417C8.77276 10.8296 8.51881 9.99242 8.51881 9.13603C8.51881 7.98764 8.975 6.88629 9.78704 6.07426C10.5991 5.26223 11.7004 4.80603 12.8488 4.80603V4.80603ZM12.8488 21.734C11.4753 21.7334 10.1185 21.4327 8.87327 20.8531C7.62806 20.2734 6.52452 19.4287 5.63981 18.378C6.10305 17.4925 6.79936 16.7504 7.65358 16.2317C8.5078 15.7131 9.48746 15.4376 10.4868 15.435C10.6052 15.4357 10.7228 15.4539 10.8358 15.489C11.4848 15.7074 12.1641 15.8222 12.8488 15.829C13.5335 15.8226 14.2129 15.7078 14.8618 15.489C14.9748 15.4539 15.0924 15.4357 15.2108 15.435C16.2102 15.4376 17.1898 15.7131 18.044 16.2317C18.8983 16.7504 19.5946 17.4925 20.0578 18.378C19.173 19.4285 18.0694 20.273 16.8242 20.8525C15.579 21.432 14.2223 21.7325 12.8488 21.733V21.734Z" fill="#1FCFF7"/>
</svg>
