<svg width="21" height="21" viewBox="0 0 21 21" fill="none" xmlns="http://www.w3.org/2000/svg">
<path d="M15.2229 0.655762H6.26094C4.79778 0.657614 3.39508 1.23967 2.36047 2.27429C1.32585 3.3089 0.743796 4.7116 0.741943 6.17476L0.741943 15.1358C0.743267 16.5992 1.32512 18.0023 2.35982 19.0372C3.39452 20.0721 4.79753 20.6542 6.26094 20.6558H15.2219C16.6853 20.6542 18.0882 20.0722 19.1231 19.0376C20.1579 18.003 20.7401 16.6001 20.7419 15.1368V6.17476C20.7404 4.71152 20.1584 3.30866 19.1237 2.27399C18.089 1.23932 16.6862 0.65735 15.2229 0.655762V0.655762ZM18.9679 15.1368C18.9669 16.1297 18.572 17.0816 17.8699 17.7837C17.1678 18.4858 16.2159 18.8807 15.2229 18.8818H6.26094C5.26803 18.8807 4.31609 18.4858 3.614 17.7837C2.9119 17.0816 2.517 16.1297 2.51594 15.1368V6.17476C2.517 5.18185 2.9119 4.22991 3.614 3.52782C4.31609 2.82572 5.26803 2.43082 6.26094 2.42976H15.2219C16.2149 2.43082 17.1668 2.82572 17.8689 3.52782C18.571 4.22991 18.9659 5.18185 18.9669 6.17476V15.1358L18.9679 15.1368Z" fill="#102F35"/>
<path d="M10.742 5.50684C9.72364 5.50684 8.72814 5.80882 7.88139 6.3746C7.03464 6.94038 6.37468 7.74454 5.98496 8.6854C5.59525 9.62625 5.49328 10.6615 5.69196 11.6604C5.89063 12.6592 6.38103 13.5766 7.10113 14.2967C7.82123 15.0168 8.73869 15.5072 9.7375 15.7059C10.7363 15.9046 11.7716 15.8026 12.7125 15.4129C13.6533 15.0232 14.4575 14.3632 15.0233 13.5165C15.589 12.6697 15.891 11.6742 15.891 10.6558C15.8894 9.29072 15.3464 7.98198 14.3812 7.0167C13.4159 6.05142 12.1071 5.50842 10.742 5.50684V5.50684ZM10.742 14.0318C10.0743 14.0318 9.42159 13.8338 8.86641 13.4629C8.31123 13.0919 7.87852 12.5647 7.623 11.9478C7.36748 11.3309 7.30063 10.6521 7.43089 9.99721C7.56115 9.34233 7.88269 8.74078 8.35483 8.26864C8.82697 7.7965 9.42851 7.47497 10.0834 7.3447C10.7383 7.21444 11.4171 7.28129 12.034 7.53682C12.6508 7.79234 13.1781 8.22505 13.5491 8.78023C13.92 9.33541 14.118 9.98812 14.118 10.6558C14.117 11.5509 13.7609 12.409 13.128 13.0419C12.4952 13.6748 11.6371 14.0308 10.742 14.0318Z" fill="#102F35"/>
<path d="M16.111 3.99756C15.8103 3.99791 15.519 4.10248 15.2868 4.29346C15.0546 4.48444 14.8957 4.75003 14.8373 5.04498C14.7789 5.33993 14.8245 5.64601 14.9664 5.9111C15.1083 6.17619 15.3377 6.38389 15.6156 6.49883C15.8934 6.61377 16.2025 6.62884 16.4902 6.54148C16.7779 6.45411 17.0265 6.26972 17.1935 6.0197C17.3605 5.76967 17.4357 5.46948 17.4063 5.17024C17.3768 4.87101 17.2445 4.59123 17.032 4.37856C16.7873 4.13499 16.4562 3.99803 16.111 3.99756V3.99756Z" fill="#102F35"/>
</svg>
