<svg width="21" height="21" viewBox="0 0 21 21" fill="none" xmlns="http://www.w3.org/2000/svg">
<path d="M15.2229 0.1521H6.26094C4.79778 0.153952 3.39508 0.736011 2.36047 1.77062C1.32585 2.80524 0.743796 4.20794 0.741943 5.6711L0.741943 14.6321C0.743267 16.0955 1.32512 17.4986 2.35982 18.5335C3.39452 19.5684 4.79753 20.1505 6.26094 20.1521H15.2219C16.6853 20.1505 18.0882 19.5686 19.1231 18.5339C20.1579 17.4993 20.7401 16.0964 20.7419 14.6331V5.6711C20.7404 4.20786 20.1584 2.805 19.1237 1.77033C18.089 0.735662 16.6862 0.153688 15.2229 0.1521V0.1521ZM18.9679 14.6331C18.9669 15.626 18.572 16.578 17.8699 17.28C17.1678 17.9821 16.2159 18.377 15.2229 18.3781H6.26094C5.26803 18.377 4.31609 17.9821 3.614 17.28C2.9119 16.578 2.517 15.626 2.51594 14.6331V5.6711C2.517 4.67819 2.9119 3.72625 3.614 3.02415C4.31609 2.32206 5.26803 1.92716 6.26094 1.9261H15.2219C16.2149 1.92716 17.1668 2.32206 17.8689 3.02415C18.571 3.72625 18.9659 4.67819 18.9669 5.6711V14.6321L18.9679 14.6331Z" fill="#102F35"/>
<path d="M10.7419 5.0031C9.72357 5.0031 8.72806 5.30508 7.88131 5.87086C7.03457 6.43664 6.3746 7.2408 5.98489 8.18166C5.59517 9.12252 5.49321 10.1578 5.69188 11.1566C5.89056 12.1554 6.38095 13.0729 7.10105 13.793C7.82115 14.5131 8.73862 15.0035 9.73742 15.2022C10.7362 15.4008 11.7715 15.2989 12.7124 14.9092C13.6532 14.5194 14.4574 13.8595 15.0232 13.0127C15.589 12.166 15.8909 11.1705 15.8909 10.1521C15.8894 8.78698 15.3464 7.47824 14.3811 6.51296C13.4158 5.54768 12.1071 5.00469 10.7419 5.0031V5.0031ZM10.7419 13.5281C10.0742 13.5281 9.42152 13.3301 8.86634 12.9591C8.31116 12.5882 7.87845 12.0609 7.62293 11.444C7.3674 10.8272 7.30055 10.1484 7.43081 9.49347C7.56108 8.83859 7.88261 8.23705 8.35475 7.7649C8.82689 7.29276 9.42844 6.97123 10.0833 6.84097C10.7382 6.7107 11.417 6.77756 12.0339 7.03308C12.6508 7.2886 13.178 7.72131 13.549 8.27649C13.9199 8.83167 14.1179 9.48439 14.1179 10.1521C14.1169 11.0471 13.7609 11.9052 13.128 12.5381C12.4951 13.171 11.637 13.527 10.7419 13.5281Z" fill="#102F35"/>
<path d="M16.1109 3.49409C15.8103 3.49445 15.519 3.59902 15.2868 3.79C15.0545 3.98098 14.8957 4.24656 14.8372 4.54151C14.7788 4.83647 14.8245 5.14255 14.9664 5.40764C15.1083 5.67272 15.3377 5.88042 15.6155 5.99536C15.8934 6.1103 16.2025 6.12538 16.4902 6.03801C16.7779 5.95065 17.0264 5.76626 17.1935 5.51623C17.3605 5.26621 17.4357 4.96602 17.4062 4.66678C17.3768 4.36754 17.2445 4.08777 17.0319 3.8751C16.7873 3.63152 16.4562 3.49457 16.1109 3.49409V3.49409Z" fill="#102F35"/>
</svg>
