<svg width="1920" height="1056" viewBox="0 0 1920 1056" fill="none" xmlns="http://www.w3.org/2000/svg">
<path style="mix-blend-mode:color-dodge" d="M278.08 -827.74C567.18 -916.604 764.027 -798.84 958.97 -607.701C1125.77 -444.146 1269.68 -226.435 1486.88 -146.369C1703.42 -66.5489 1919.17 -85.1389 2082.14 79.8141C2300.64 300.976 2234.34 575.957 2059.67 743.496C1817.48 975.791 1491.28 904.563 1292.52 694.057C1128.03 519.864 957.391 331.497 698.145 301.762C459.373 274.367 154.855 416.799 -51.0037 237.813C-284.467 34.8171 -256.628 -663.396 278.08 -827.74Z" fill="url(#paint0_linear_1_702)"/>
<path style="mix-blend-mode:color-burn" d="M1710.44 812.224C2014.27 678.075 2193.43 417.253 2110.6 229.662C2027.77 42.0718 1714.33 -1.25038 1410.5 132.899C1106.67 267.049 927.515 527.871 1010.34 715.462C1093.17 903.052 1406.62 946.374 1710.44 812.224Z" fill="url(#paint1_radial_1_702)"/>
<defs>
<linearGradient id="paint0_linear_1_702" x1="1147.44" y1="128.459" x2="853.45" y2="1263.32" gradientUnits="userSpaceOnUse">
<stop/>
<stop offset="0.229" stop-color="#040404"/>
<stop offset="0.493" stop-color="#121212"/>
<stop offset="0.771" stop-color="#292929"/>
<stop offset="1" stop-color="#424242"/>
</linearGradient>
<radialGradient id="paint1_radial_1_702" cx="0" cy="0" r="1" gradientUnits="userSpaceOnUse" gradientTransform="translate(1292.08 435.526) rotate(-24.1016) scale(601.098 371.126)">
<stop offset="0.331" stop-color="#71777A"/>
<stop offset="0.478" stop-color="#9DA1A3"/>
<stop offset="0.64" stop-color="#C7C9CA"/>
<stop offset="0.787" stop-color="#E5E6E7"/>
<stop offset="0.912" stop-color="#F8F8F8"/>
<stop offset="1" stop-color="white"/>
</radialGradient>
</defs>
</svg>
