<svg width="335" height="344" viewBox="0 0 335 344" fill="none" xmlns="http://www.w3.org/2000/svg">
<path d="M163.751 0.865605C127.603 0.790429 92.3587 12.1641 63.0734 33.3558C33.788 54.5476 11.9656 84.4686 0.735248 118.828C0.0113333 121.037 -0.176472 123.387 0.187396 125.683C0.551264 127.979 1.45632 130.155 2.82778 132.032C4.19924 133.909 5.99756 135.432 8.07436 136.476C10.1512 137.52 12.4467 138.055 14.7711 138.036C14.9601 138.036 15.149 138.036 15.338 138.036C24.3257 138.068 32.9329 141.669 39.2658 148.046C45.5987 154.424 49.1386 163.056 49.1071 172.044C49.0755 181.031 45.4749 189.638 39.0973 195.971C32.7198 202.304 24.0879 205.844 15.1002 205.813H14.8671C12.536 205.786 10.2323 206.315 8.14638 207.356C6.06045 208.397 4.25226 209.92 2.87172 211.798C1.49119 213.677 0.577927 215.857 0.207416 218.158C-0.163096 220.46 0.0198397 222.817 0.741107 225.034C10.5239 255.002 28.3969 281.684 52.3871 302.135C76.3773 322.586 105.552 336.011 136.69 340.928C167.829 345.844 199.72 342.062 228.845 329.997C257.969 317.932 283.193 298.055 301.734 272.559C320.274 247.063 331.409 216.94 333.91 185.516C336.411 154.091 330.18 122.586 315.905 94.4784C301.631 66.3712 279.868 42.7545 253.018 26.2355C226.168 9.71649 195.276 0.937574 163.752 0.867558L163.751 0.865605Z" fill="#F7F7F7"/>
</svg>
