<svg width="336" height="343" viewBox="0 0 336 343" fill="none" xmlns="http://www.w3.org/2000/svg">
<path d="M164.07 0.864746C127.966 0.865984 92.7877 12.2856 63.5669 33.4902C34.3461 54.6949 12.5803 84.598 1.38316 118.922C0.661973 121.155 0.488284 123.528 0.876731 125.843C1.26518 128.157 2.20438 130.344 3.61513 132.219C5.02589 134.094 6.86686 135.603 8.98281 136.618C11.0988 137.633 13.4277 138.124 15.7732 138.05C15.9378 138.044 16.1045 138.04 16.2732 138.038C25.2655 137.917 33.9395 141.363 40.3964 147.623C46.8534 153.883 50.5673 162.446 50.7252 171.438C50.7886 175.928 49.9591 180.386 48.2847 184.552C46.6103 188.719 44.1244 192.512 40.9716 195.709C37.8188 198.907 34.0619 201.446 29.9192 203.179C25.7765 204.912 21.3307 205.805 16.8402 205.805C16.5268 205.805 16.2148 205.8 15.9042 205.792C13.55 205.707 11.21 206.19 9.08173 207.2C6.9535 208.21 5.09956 209.717 3.67651 211.594C2.25345 213.472 1.30308 215.664 0.905662 217.986C0.508244 220.308 0.675458 222.691 1.39317 224.935C12.591 259.255 34.356 289.156 63.5749 310.359C92.7938 331.562 127.97 342.982 164.071 342.985C209.431 342.984 252.934 324.967 285.012 292.896C317.09 260.825 335.116 217.326 335.126 171.966C335.131 126.593 317.112 83.0767 285.033 50.9893C252.954 18.9018 209.443 0.871641 164.07 0.864746V0.864746Z" fill="#F7F7F7"/>
</svg>
