<svg width="335" height="344" viewBox="0 0 335 344" fill="none" xmlns="http://www.w3.org/2000/svg">
<path d="M163.406 0.864746C127.311 0.865247 92.1399 12.2789 62.9228 33.4739C33.7056 54.6688 11.9385 84.5594 0.73392 118.872C-0.00387388 121.133 -0.180842 123.539 0.218295 125.884C0.617432 128.228 1.5807 130.441 3.02506 132.33C4.46942 134.22 6.35159 135.729 8.50931 136.73C10.667 137.73 13.0356 138.191 15.4109 138.072C15.8269 138.052 16.2446 138.039 16.6639 138.035C21.1283 137.986 25.5582 138.821 29.6991 140.49C33.8401 142.158 37.6104 144.629 40.7935 147.76C43.9766 150.89 46.5097 154.619 48.2473 158.732C49.9849 162.844 50.8927 167.26 50.9186 171.724C50.9445 176.189 50.088 180.614 48.3982 184.747C46.7084 188.879 44.2186 192.637 41.0721 195.804C37.9255 198.972 34.1841 201.486 30.0628 203.203C25.9415 204.92 21.5215 205.805 17.0569 205.809C16.4516 205.809 15.8516 205.793 15.2569 205.762C12.8873 205.661 10.5287 206.138 8.38425 207.151C6.23985 208.165 4.37395 209.684 2.94718 211.579C1.5204 213.474 0.575547 215.687 0.194003 218.028C-0.187541 220.368 0.00563806 222.767 0.75693 225.017C10.5422 255.001 28.4259 281.696 52.4322 302.153C76.4384 322.61 105.633 336.032 136.789 340.937C167.946 345.841 199.852 342.037 228.982 329.945C258.112 317.853 283.332 297.943 301.856 272.415C320.38 246.888 331.486 216.736 333.948 185.292C336.409 153.848 330.13 122.336 315.804 94.2366C301.479 66.1375 279.664 42.5456 252.77 26.0676C225.877 9.58969 194.951 0.867196 163.411 0.86377L163.406 0.864746Z" fill="#F7F7F7"/>
</svg>
