<svg width="508" height="61" viewBox="0 0 508 61" fill="none" xmlns="http://www.w3.org/2000/svg">
<path d="M0.283203 46.7098V2.01584H19.5462C21.7282 2.01584 23.7425 2.4565 25.5892 3.33784C27.4359 4.21917 29.0305 5.40484 30.3732 6.89484C31.7159 8.38484 32.7545 10.0515 33.4892 11.8948C34.2239 13.7382 34.5905 15.6048 34.5892 17.4948C34.5892 20.1388 33.9702 22.6358 32.7322 24.9858C31.4942 27.3358 29.7735 29.2558 27.5702 30.7458C25.3702 32.2358 22.7999 32.9808 19.8592 32.9808H12.5592V46.7098H0.283203ZM12.5582 22.2848H19.0422C19.5455 22.2848 20.0282 22.1378 20.4902 21.8438C20.9522 21.5498 21.3405 21.0462 21.6552 20.3328C21.9699 19.6195 22.1272 18.6752 22.1272 17.4998C22.1272 16.2405 21.9489 15.2648 21.5922 14.5728C21.2355 13.8808 20.7949 13.3982 20.2702 13.1248C19.7455 12.8522 19.2315 12.7158 18.7282 12.7158H12.5592L12.5582 22.2848ZM54.2312 47.3388C51.2932 47.3388 48.6912 46.8848 46.4252 45.9768C44.1592 45.0688 42.2592 43.8202 40.7252 42.2308C39.1919 40.6422 38.0379 38.8365 37.2632 36.8138C36.4885 34.7912 36.1009 32.6658 36.1002 30.4378C36.1002 28.2092 36.4885 26.0732 37.2652 24.0298C38.0419 21.9865 39.1959 20.1808 40.7272 18.6128C42.2605 17.0448 44.1605 15.8065 46.4272 14.8978C48.6939 13.9892 51.2959 13.5352 54.2332 13.5358C57.2125 13.5358 59.8249 13.9898 62.0702 14.8978C64.3155 15.8058 66.2042 17.0442 67.7362 18.6128C69.2695 20.1808 70.4235 21.9865 71.1982 24.0298C71.9729 26.0732 72.3612 28.2092 72.3632 30.4378C72.3632 32.6665 71.9749 34.7922 71.1982 36.8148C70.4215 38.8375 69.2675 40.6432 67.7362 42.2318C66.2029 43.8205 64.3142 45.0692 62.0702 45.9778C59.8262 46.8865 57.2132 47.3405 54.2312 47.3398V47.3388ZM48.3772 30.4388C48.3772 31.8495 48.6289 33.0685 49.1322 34.0958C49.6355 35.1232 50.3279 35.9088 51.2092 36.4528C52.0905 36.9968 53.0979 37.2688 54.2312 37.2688C55.3645 37.2688 56.3719 36.9968 57.2532 36.4528C58.1345 35.9088 58.8269 35.1232 59.3302 34.0958C59.8335 33.0685 60.0852 31.8495 60.0852 30.4388C60.0852 29.0282 59.8335 27.8092 59.3302 26.7818C58.8269 25.7545 58.1345 24.9688 57.2532 24.4248C56.3719 23.8808 55.3645 23.6088 54.2312 23.6088C53.0979 23.6088 52.0905 23.8808 51.2092 24.4248C50.3279 24.9688 49.6355 25.7545 49.1322 26.7818C48.6289 27.8092 48.3772 29.0278 48.3772 30.4378V30.4388ZM98.8632 47.3388C96.4712 47.3388 94.3939 46.8745 92.6312 45.9458C90.8685 45.0172 89.5045 43.6655 88.5392 41.8908V60.1188H76.5792V14.0388H86.9662V19.0458C88.1415 17.2705 89.5999 15.9085 91.3412 14.9598C93.0825 14.0112 95.1915 13.5365 97.6682 13.5358C99.8922 13.5358 101.928 13.9485 103.774 14.7738C105.621 15.5992 107.237 16.7755 108.621 18.3028C110.006 19.8302 111.076 21.6048 111.831 23.6268C112.587 25.6488 112.964 27.8778 112.964 30.3138C112.964 33.5745 112.356 36.4845 111.138 39.0438C109.921 41.6032 108.254 43.6255 106.138 45.1108C104.016 46.5968 101.591 47.3398 98.8632 47.3398V47.3388ZM94.7082 37.2668C95.5895 37.2668 96.3975 37.0855 97.1322 36.7228C97.8669 36.3602 98.5069 35.8565 99.0522 35.2118C99.5975 34.5672 100.017 33.8215 100.311 32.9748C100.605 32.1282 100.752 31.2218 100.752 30.2558C100.752 29.2478 100.595 28.3408 100.28 27.5348C99.9655 26.7288 99.5145 26.0338 98.9272 25.4498C98.3399 24.8658 97.6475 24.4125 96.8502 24.0898C96.0529 23.7672 95.1715 23.6062 94.2062 23.6068C93.6609 23.6068 93.1259 23.6755 92.6012 23.8128C92.0765 23.9502 91.5835 24.1462 91.1222 24.4008C90.6609 24.6555 90.2099 24.9792 89.7692 25.3718C89.3285 25.7645 88.9192 26.2352 88.5412 26.7838V32.4178C88.9192 33.3358 89.4332 34.1642 90.0832 34.9028C90.7332 35.6415 91.4572 36.2202 92.2552 36.6388C93.0512 37.0582 93.8689 37.2678 94.7082 37.2678V37.2668ZM116.992 35.5348V14.0348H128.953V32.7568C128.953 34.1568 129.279 35.2568 129.929 36.0568C130.58 36.8568 131.472 37.2568 132.604 37.2568C133.234 37.2568 133.863 37.1772 134.493 37.0178C135.123 36.8585 135.763 36.5402 136.413 36.0628C137.064 35.5848 137.704 34.9082 138.333 34.0328V14.0388H150.294V33.5508C150.294 34.6622 150.461 35.4338 150.794 35.8658C151.128 36.2978 151.715 36.5552 152.557 36.6378V46.7098C151.508 46.9198 150.564 47.0772 149.724 47.1818C148.885 47.2865 148.152 47.3388 147.524 47.3388C145.51 47.3388 143.915 46.9652 142.74 46.2178C141.566 45.4705 140.81 44.3318 140.474 42.8018L140.222 41.6238C138.67 43.6532 136.813 45.1132 134.651 46.0038C132.49 46.8945 130.045 47.3398 127.317 47.3398C124.002 47.3398 121.453 46.3252 119.669 44.2958C117.886 42.2665 116.994 39.3465 116.993 35.5358L116.992 35.5348ZM157.218 0.756836H169.179V33.5568C169.179 34.7742 169.442 35.7075 169.966 36.3568C170.491 37.0062 171.258 37.3315 172.266 37.3328C172.77 37.3328 173.315 37.2488 173.903 37.0808C174.491 36.9128 175.037 36.6822 175.54 36.3888L177.051 45.2018C175.625 45.8732 174.019 46.3978 172.235 46.7758C170.451 47.1538 168.762 47.3428 167.168 47.3428C163.979 47.3428 161.524 46.5138 159.803 44.8558C158.083 43.1978 157.222 40.8372 157.222 37.7738L157.218 0.756836ZM177.992 36.8848C177.992 34.6988 178.601 32.7705 179.818 31.0998C181.036 29.4292 182.725 28.1195 184.885 27.1708C187.047 26.2222 189.513 25.7478 192.285 25.7478C193.586 25.7478 194.814 25.8528 195.968 26.0628C197.123 26.2728 198.12 26.5875 198.958 27.0068V25.9998C198.958 24.5072 198.507 23.3995 197.605 22.6768C196.703 21.9542 195.245 21.5928 193.23 21.5928C191.384 21.5928 189.653 21.8972 188.037 22.5058C186.422 23.1145 184.733 24.0062 182.97 25.1808L179.5 17.7568C181.724 16.3302 184.064 15.2705 186.519 14.5778C188.975 13.8852 191.608 13.5388 194.419 13.5388C199.665 13.5388 203.726 14.6962 206.6 17.0108C209.475 19.3255 210.912 22.7562 210.912 27.3028V33.5668C210.912 34.6722 211.079 35.4388 211.412 35.8668C211.746 36.2948 212.333 36.5508 213.175 36.6348V46.7098C212.21 46.9198 211.297 47.0772 210.437 47.1818C209.577 47.2865 208.811 47.3388 208.137 47.3388C205.997 47.3388 204.371 46.9505 203.258 46.1738C202.146 45.3972 201.422 44.2535 201.086 42.7428L200.834 41.5428C199.368 43.4315 197.668 44.8688 195.734 45.8548C193.801 46.8408 191.745 47.3338 189.565 47.3338C187.383 47.3338 185.411 46.8802 183.648 45.9728C181.886 45.0655 180.503 43.8198 179.5 42.2358C178.495 40.6498 177.992 38.8658 177.992 36.8838V36.8848ZM197.381 37.5848C197.843 37.2675 198.22 36.9202 198.514 36.5428C198.808 36.1655 198.955 35.7785 198.955 35.3818V33.0648C198.284 32.8268 197.517 32.6268 196.655 32.4648C195.793 32.3028 195.027 32.2235 194.355 32.2268C192.929 32.2268 191.722 32.5642 190.735 33.2388C189.749 33.9135 189.256 34.7668 189.256 35.7988C189.256 36.3542 189.423 36.8598 189.756 37.3158C190.09 37.7718 190.551 38.1288 191.141 38.3868C191.729 38.6448 192.4 38.7738 193.155 38.7738C193.869 38.7738 194.614 38.6645 195.39 38.4458C196.167 38.2272 196.831 37.9412 197.381 37.5878V37.5848ZM240 23.7958C237.692 23.7958 235.592 24.0475 233.7 24.5508C231.808 25.0542 230.402 25.8935 229.482 27.0688V46.7098H217.525V14.0388H228.478V19.8928C229.654 17.6688 231.123 15.9588 232.885 14.7628C234.648 13.5668 236.515 12.9688 238.485 12.9688C238.947 12.9688 239.272 12.9688 239.461 12.9688C239.651 12.9688 239.829 12.9898 239.996 13.0318L240 23.7958ZM257.437 46.7098V2.01584H276.7C278.882 2.01584 280.897 2.4565 282.743 3.33784C284.59 4.21917 286.185 5.40484 287.527 6.89484C288.87 8.38484 289.909 10.0515 290.643 11.8948C291.378 13.7382 291.745 15.6048 291.743 17.4948C291.743 20.1388 291.124 22.6358 289.886 24.9858C288.648 27.3358 286.928 29.2558 284.724 30.7458C282.524 32.2358 279.954 32.9808 277.013 32.9808H269.713V46.7098H257.437ZM269.712 22.2848H276.196C276.7 22.2848 277.182 22.1378 277.644 21.8438C278.106 21.5498 278.495 21.0462 278.809 20.3328C279.124 19.6195 279.281 18.6752 279.281 17.4998C279.281 16.2405 279.103 15.2648 278.746 14.5728C278.39 13.8808 277.949 13.3982 277.424 13.1248C276.9 12.8522 276.386 12.7158 275.882 12.7158H269.713L269.712 22.2848ZM318.312 23.7958C316.004 23.7958 313.904 24.0475 312.012 24.5508C310.12 25.0542 308.716 25.8938 307.8 27.0698V46.7098H295.835V14.0388H306.788V19.8928C307.964 17.6688 309.433 15.9588 311.195 14.7628C312.958 13.5668 314.825 12.9688 316.795 12.9688C317.257 12.9688 317.582 12.9688 317.771 12.9688C317.961 12.9688 318.139 12.9898 318.306 13.0318L318.312 23.7958ZM338.33 47.3388C335.392 47.3388 332.79 46.8848 330.524 45.9768C328.258 45.0688 326.358 43.8202 324.824 42.2308C323.291 40.6422 322.137 38.8365 321.362 36.8138C320.588 34.7912 320.2 32.6658 320.2 30.4378C320.2 28.2092 320.589 26.0732 321.365 24.0298C322.142 21.9865 323.296 20.1808 324.827 18.6128C326.361 17.0448 328.261 15.8065 330.527 14.8978C332.794 13.9892 335.396 13.5352 338.333 13.5358C341.313 13.5358 343.925 13.9898 346.17 14.8978C348.416 15.8058 350.304 17.0442 351.836 18.6128C353.37 20.1808 354.524 21.9865 355.298 24.0298C356.073 26.0732 356.461 28.2092 356.463 30.4378C356.463 32.6665 356.075 34.7922 355.298 36.8148C354.522 38.8375 353.368 40.6432 351.836 42.2318C350.303 43.8205 348.414 45.0692 346.17 45.9778C343.926 46.8865 341.312 47.3405 338.327 47.3398L338.33 47.3388ZM332.476 30.4388C332.476 31.8495 332.728 33.0685 333.231 34.0958C333.735 35.1232 334.427 35.9088 335.308 36.4528C336.19 36.9968 337.197 37.2688 338.33 37.2688C339.464 37.2688 340.471 36.9968 341.352 36.4528C342.234 35.9088 342.926 35.1232 343.429 34.0958C343.933 33.0685 344.184 31.8495 344.184 30.4388C344.184 29.0282 343.933 27.8092 343.429 26.7818C342.926 25.7545 342.234 24.9688 341.352 24.4248C340.471 23.8808 339.464 23.6088 338.33 23.6088C337.197 23.6088 336.19 23.8808 335.308 24.4248C334.427 24.9688 333.735 25.7545 333.231 26.7818C332.728 27.8092 332.475 29.0278 332.472 30.4378L332.476 30.4388ZM359.919 59.8668C358.199 59.8668 356.532 59.5732 354.919 58.9858C353.307 58.3985 351.848 57.5592 350.544 56.4678L355.454 48.3468C355.788 48.7248 356.228 49.0292 356.776 49.2598C356.91 49.3178 357.046 49.3682 357.185 49.4108C357.325 49.4535 357.461 49.4895 357.594 49.5188C357.729 49.5475 357.866 49.5692 358.003 49.5838C358.139 49.5984 358.276 49.6057 358.412 49.6058C358.958 49.6058 359.409 49.5022 359.765 49.2948C360.122 49.0875 360.405 48.7765 360.615 48.3618C360.825 47.9472 360.93 47.4705 360.93 46.9318V14.0388H372.891V46.0878C372.891 48.7892 372.335 51.1792 371.223 53.2578C370.111 55.3365 368.59 56.9575 366.659 58.1208C364.726 59.2848 362.479 59.8668 359.919 59.8668ZM360.926 11.2668V1.19684H372.887V11.2688L360.926 11.2668ZM395.234 47.3378C392.338 47.3378 389.757 46.8935 387.491 46.0048C385.225 45.1162 383.325 43.9072 381.791 42.3778C380.258 40.8485 379.093 39.0918 378.297 37.1078C377.501 35.1238 377.101 33.0362 377.097 30.8448C377.097 27.7115 377.79 24.8365 379.174 22.2198C380.559 19.6032 382.594 17.5012 385.28 15.9138C387.966 14.3272 391.282 13.5338 395.226 13.5338C399.171 13.5338 402.486 14.3192 405.172 15.8898C407.858 17.4605 409.894 19.5272 411.278 22.0898C412.663 24.6525 413.355 27.4422 413.355 30.4588C413.355 31.0788 413.324 31.7092 413.261 32.3498C413.199 32.9905 413.125 33.5572 413.041 34.0498H389.82C389.904 35.1652 390.23 36.0715 390.796 36.7688C391.363 37.4662 392.076 37.9742 392.936 38.2928C393.796 38.6115 394.688 38.7708 395.611 38.7708C396.912 38.7708 398.14 38.4772 399.294 37.8898C400.449 37.3025 401.216 36.4842 401.594 35.4348L411.729 38.3348C410.848 40.0975 409.62 41.6502 408.046 42.9928C406.472 44.3355 404.615 45.3952 402.475 46.1718C400.334 46.9505 397.92 47.3398 395.234 47.3398V47.3378ZM389.568 26.8788H400.521C400.395 25.8542 400.091 24.9875 399.608 24.2788C399.126 23.5702 398.496 23.0185 397.72 22.6238C396.944 22.2298 396.052 22.0328 395.045 22.0328C394.039 22.0328 393.147 22.2298 392.37 22.6238C391.594 23.0178 390.964 23.5695 390.481 24.2788C389.999 24.9882 389.694 25.8555 389.568 26.8808V26.8788ZM433.633 47.3378C430.696 47.3378 428.105 46.8838 425.859 45.9758C423.614 45.0678 421.714 43.8192 420.159 42.2298C418.607 40.6412 417.432 38.8355 416.634 36.8128C415.837 34.7902 415.437 32.6645 415.434 30.4358C415.434 27.4638 416.137 24.6882 417.543 22.1088C418.949 19.5295 421.006 17.4555 423.712 15.8868C426.419 14.3182 429.724 13.5338 433.627 13.5338C437.614 13.5338 440.971 14.3732 443.699 16.0518C446.427 17.7305 448.463 19.8918 449.805 22.5358L438.159 26.0608C437.614 25.2608 436.953 24.6522 436.176 24.2348C435.4 23.8175 434.529 23.6075 433.564 23.6048C432.473 23.6048 431.487 23.8768 430.605 24.4208C429.724 24.9648 429.022 25.7415 428.5 26.7508C427.976 27.7582 427.713 28.9872 427.713 30.4378C427.713 31.8485 427.976 33.0675 428.5 34.0948C429.025 35.1222 429.728 35.9078 430.609 36.4518C431.491 36.9958 432.477 37.2678 433.568 37.2678C434.24 37.2678 434.848 37.1735 435.394 36.9848C435.94 36.7962 436.454 36.5128 436.936 36.1348C437.419 35.7568 437.828 35.3162 438.163 34.8128L449.809 38.3378C448.928 40.1005 447.721 41.6532 446.189 42.9958C444.657 44.3385 442.853 45.3982 440.775 46.1748C438.701 46.9515 436.32 47.3398 433.634 47.3398L433.633 47.3378ZM476.817 44.8198C475.726 45.2812 474.561 45.7112 473.323 46.1098C473.014 46.2098 472.703 46.3035 472.391 46.3908C472.079 46.4782 471.766 46.5602 471.451 46.6368C471.137 46.7128 470.821 46.7828 470.503 46.8468C470.186 46.9108 469.867 46.9692 469.547 47.0218C468.267 47.2318 467.019 47.3368 465.801 47.3368C463.997 47.3368 462.339 47.0388 460.828 46.4428C459.318 45.8468 458.111 44.8602 457.208 43.4828C456.306 42.1055 455.855 40.2452 455.855 37.9018V23.0408H451.763V14.0408H455.855V3.65684H467.816V14.0388H474.3V23.0388H467.816V33.5978C467.816 34.6498 468.047 35.3882 468.508 35.8128C468.97 36.2375 469.599 36.4498 470.397 36.4498C470.985 36.4498 471.656 36.3448 472.411 36.1348C473.167 35.9248 473.922 35.6732 474.677 35.3798L476.817 44.8198ZM493.5 47.3398C490.604 47.3398 487.761 46.8678 484.97 45.9238C482.18 44.9798 479.819 43.6055 477.888 41.8008L481.98 34.4358C484.037 35.7785 486.02 36.8278 487.929 37.5838C489.839 38.3398 491.57 38.7175 493.122 38.7168C494.004 38.7168 494.654 38.6168 495.073 38.4168C495.493 38.2168 495.703 37.8762 495.703 37.3948C495.703 37.0242 495.556 36.7152 495.262 36.4678C494.968 36.2205 494.496 35.9732 493.846 35.7258C493.196 35.4785 492.367 35.2118 491.359 34.9258C488.759 34.0198 486.588 33.1752 484.844 32.3918C483.101 31.6085 481.801 30.6505 480.944 29.5178C480.084 28.3845 479.654 26.8705 479.654 24.9758C479.654 22.7512 480.221 20.7845 481.354 19.0758C482.488 17.3672 484.114 16.0178 486.233 15.0278C488.353 14.0392 490.902 13.5448 493.881 13.5448C496.105 13.5448 498.339 13.8912 500.581 14.5838C502.824 15.2765 504.996 16.5252 507.096 18.3298L502.564 25.6298C500.466 24.3292 498.693 23.4058 497.245 22.8598C495.798 22.3138 494.508 22.0412 493.374 22.0418C492.829 22.0418 492.357 22.1032 491.958 22.2258C491.56 22.3485 491.255 22.5328 491.045 22.7788C490.835 23.0242 490.73 23.3518 490.73 23.7618C490.73 24.1718 490.877 24.5095 491.171 24.7748C491.465 25.0415 491.927 25.2872 492.556 25.5118C493.186 25.7365 493.983 25.9925 494.948 26.2798C497.802 27.0992 500.132 27.9285 501.936 28.7678C503.741 29.6072 505.074 30.6205 505.936 31.8078C506.796 32.9952 507.226 34.5512 507.226 36.4758C507.226 39.8758 505.999 42.5375 503.543 44.4608C501.088 46.3842 497.74 47.3438 493.5 47.3398Z" fill="#2F455C"/>
</svg>
