<svg width="750" height="47" viewBox="0 0 750 47" fill="none" xmlns="http://www.w3.org/2000/svg">
<path d="M30.7999 15.7262C30.7999 15.7262 30.4433 15.5162 29.7299 15.0962C29.0166 14.6762 28.0723 14.2042 26.8969 13.6802C25.7216 13.1562 24.4416 12.6842 23.0569 12.2642C21.6723 11.8442 20.3083 11.6342 18.9649 11.6342C17.9156 11.6342 17.0553 11.8008 16.3839 12.1342C15.7126 12.4675 15.3769 13.0288 15.3769 13.8182C15.3769 14.5662 15.7126 15.1692 16.3839 15.6272C17.0553 16.0852 18.0099 16.5012 19.2479 16.8752C20.4859 17.2492 21.9653 17.7068 23.6859 18.2482C26.4559 19.0795 28.8479 20.0358 30.8619 21.1172C32.8759 22.1985 34.4286 23.5812 35.5199 25.2652C36.6113 26.9492 37.1569 29.1845 37.1569 31.9712C37.1569 34.6325 36.6743 36.8678 35.7089 38.6772C34.7436 40.4865 33.4436 41.9315 31.8089 43.0122C30.1723 44.0935 28.3466 44.8732 26.3319 45.3512C24.3173 45.8292 22.2609 46.0685 20.1629 46.0692C18.0229 46.0692 15.7896 45.8488 13.4629 45.4082C11.1363 44.9675 8.88061 44.3588 6.69594 43.5822C4.51394 42.8055 2.52061 41.8928 0.715942 40.8442L5.99994 30.0792C5.99994 30.0792 6.41961 30.3308 7.25894 30.8342C8.09828 31.3375 9.21028 31.9042 10.5949 32.5342C11.9796 33.1642 13.5219 33.7308 15.2219 34.2342C16.9213 34.7375 18.6313 34.9892 20.3519 34.9892C21.6946 34.9892 22.6279 34.8192 23.1519 34.4792C23.6759 34.1392 23.9383 33.6888 23.9389 33.1282C23.9389 32.2528 23.4773 31.5755 22.5539 31.0962C21.6306 30.6168 20.4239 30.1585 18.9339 29.7212C17.4439 29.2838 15.7966 28.7735 13.9919 28.1902C11.3919 27.3148 9.25161 26.3252 7.57094 25.2212C5.89028 24.1172 4.65294 22.8035 3.85894 21.2802C3.05894 19.7588 2.65894 17.9145 2.65894 15.7472C2.65894 12.4545 3.43528 9.70383 4.98794 7.49516C6.54061 5.2865 8.58661 3.60883 11.1259 2.46216C13.6653 1.31616 16.4036 0.743164 19.3409 0.743164C21.5229 0.743164 23.6319 1.0055 25.6679 1.53016C27.7039 2.05483 29.6133 2.69483 31.3959 3.45016C33.1793 4.2055 34.7426 4.91883 36.0859 5.59016L30.7999 15.7262ZM74.4269 35.0522V45.7522H42.5739V1.05816H73.8599V11.7582H54.8489V18.0582H71.0899V28.0002H54.8489V35.0502L74.4269 35.0522ZM90.4789 1.05916H104.2L118.427 45.7542H105.965L103.654 37.0002H91.0269L88.7169 45.7502H76.1889L90.4789 1.05916ZM101.494 28.8202L97.3399 13.0822L93.1869 28.8202H101.494ZM122.143 45.7542V1.05816H142.665C144.847 1.05816 146.861 1.49883 148.708 2.38016C150.555 3.2615 152.149 4.44716 153.492 5.93716C154.835 7.42716 155.873 9.09383 156.608 10.9372C157.343 12.7805 157.709 14.6472 157.708 16.5372C157.708 18.2578 157.456 19.9155 156.953 21.5102C156.45 23.1048 155.716 24.5632 154.753 25.8852C153.788 27.2072 152.634 28.3508 151.291 29.3162L160.734 45.7462H147.26L139.392 32.0302H134.419V45.7532L122.143 45.7542ZM134.418 21.3292H142.161C142.664 21.3292 143.147 21.1402 143.609 20.7622C144.071 20.3842 144.459 19.8385 144.774 19.1252C145.089 18.4118 145.246 17.5515 145.246 16.5442C145.246 15.4948 145.068 14.6242 144.711 13.9322C144.354 13.2402 143.914 12.7052 143.389 12.3272C142.864 11.9492 142.35 11.7602 141.847 11.7602H134.419L134.418 21.3292ZM161.613 22.9662C161.613 20.2382 162.127 17.5628 163.155 14.9402C164.183 12.3175 165.683 9.93583 167.655 7.79516C169.628 5.65516 172.03 3.94516 174.863 2.66516C177.696 1.38516 180.896 0.745164 184.463 0.745164C188.744 0.745164 192.479 1.63683 195.668 3.42016C198.857 5.2035 201.228 7.56416 202.781 10.5022L193.401 17.1752C192.856 15.7085 192.069 14.5752 191.04 13.7752C190.011 12.9752 188.899 12.4192 187.704 12.1072C186.508 11.7925 185.343 11.6352 184.21 11.6352C182.447 11.6352 180.926 11.9815 179.646 12.6742C178.366 13.3668 177.317 14.2792 176.5 15.4112C175.681 16.5445 175.073 17.8035 174.674 19.1882C174.275 20.5728 174.075 21.9578 174.074 23.3432C174.074 24.8958 174.305 26.3855 174.766 27.8122C175.227 29.2388 175.899 30.5085 176.78 31.6212C177.661 32.7332 178.742 33.6038 180.022 34.2332C181.302 34.8625 182.739 35.1772 184.334 35.1772C185.467 35.1772 186.621 34.9988 187.796 34.6422C188.971 34.2855 190.041 33.7085 191.006 32.9112C191.971 32.1112 192.705 31.0412 193.206 29.7012L203.215 35.6812C202.334 37.8632 200.865 39.7298 198.808 41.2812C196.751 42.8325 194.422 44.0182 191.82 44.8382C189.22 45.6568 186.639 46.0662 184.077 46.0662C180.762 46.0662 177.728 45.4052 174.977 44.0832C172.226 42.7612 169.859 41.0002 167.877 38.8002C165.884 36.6002 164.341 34.1242 163.25 31.3722C162.159 28.6202 161.613 25.8188 161.613 22.9662ZM247.1 1.05816V45.7532H234.825V28.2532H219.842V45.7532H207.567V1.05816H219.842V17.5512H234.824V1.05816H247.1ZM306.966 34.3002C306.966 36.9862 306.242 39.1685 304.794 40.8472C303.346 42.5258 301.405 43.7638 298.971 44.5612C296.537 45.3612 293.851 45.7612 290.913 45.7612H268.943V1.05816H294.879C296.978 1.05816 298.793 1.61416 300.324 2.72616C301.855 3.83816 303.03 5.2755 303.849 7.03816C304.668 8.80083 305.077 10.6265 305.077 12.5152C305.077 14.5718 304.542 16.5652 303.472 18.4952C302.402 20.4252 300.797 21.8732 298.656 22.8392C301.216 23.5945 303.241 24.9165 304.731 26.8052C306.221 28.6938 306.966 31.1922 306.966 34.3002ZM294.5 31.7782C294.5 31.0228 294.364 30.3618 294.091 29.7952C293.818 29.2285 293.452 28.7775 292.991 28.4422C292.53 28.1088 291.984 27.9422 291.354 27.9422H281.219V35.4332H290.913C291.584 35.4332 292.193 35.2862 292.739 34.9922C293.285 34.6982 293.715 34.2785 294.029 33.7332C294.343 33.1852 294.5 32.5335 294.5 31.7782ZM281.217 11.5082V18.3702H289.589C290.134 18.3702 290.659 18.2758 291.163 18.0872C291.667 17.8985 292.087 17.5522 292.422 17.0482C292.755 16.5448 292.922 15.8315 292.922 14.9082C292.922 14.0688 292.786 13.4078 292.513 12.9252C292.24 12.4425 291.884 12.0858 291.443 11.8552C291.002 11.6245 290.509 11.5092 289.964 11.5092L281.217 11.5082ZM319.365 1.05816L327.36 19.3142L335.544 1.05816H348.889L333.466 30.9582V45.7532H321.256V30.8342L306.085 1.05816H319.365ZM361.605 22.9652C361.605 20.2372 362.119 17.5618 363.147 14.9392C364.175 12.3165 365.675 9.93483 367.647 7.79416C369.62 5.65416 372.022 3.94416 374.855 2.66416C377.688 1.38416 380.888 0.744164 384.455 0.744164C388.736 0.744164 392.471 1.63583 395.66 3.41916C398.849 5.2025 401.22 7.56316 402.773 10.5012L393.393 17.1742C392.848 15.7075 392.061 14.5742 391.032 13.7742C390.003 12.9742 388.893 12.4182 387.7 12.1062C386.504 11.7915 385.339 11.6342 384.206 11.6342C382.443 11.6342 380.922 11.9805 379.642 12.6732C378.362 13.3658 377.313 14.2785 376.494 15.4112C375.675 16.5445 375.067 17.8035 374.668 19.1882C374.269 20.5728 374.069 21.9578 374.068 23.3432C374.068 24.8958 374.299 26.3855 374.76 27.8122C375.221 29.2388 375.893 30.5085 376.774 31.6212C377.655 32.7332 378.736 33.6038 380.016 34.2332C381.296 34.8625 382.733 35.1772 384.328 35.1772C385.461 35.1772 386.615 34.9988 387.79 34.6422C388.965 34.2855 390.035 33.7085 391 32.9112C391.965 32.1112 392.699 31.0412 393.2 29.7012L403.209 35.6812C402.328 37.8632 400.859 39.7298 398.802 41.2812C396.745 42.8325 394.416 44.0182 391.814 44.8382C389.214 45.6568 386.633 46.0662 384.071 46.0662C380.756 46.0662 377.722 45.4052 374.971 44.0832C372.22 42.7612 369.853 41.0002 367.87 38.8002C365.877 36.6002 364.334 34.1242 363.243 31.3722C362.152 28.6202 361.606 25.8178 361.607 22.9652H361.605ZM417.19 1.05816H430.913L445.14 45.7532H432.678L430.367 37.0002H417.74L415.43 45.7502H402.9L417.19 1.05816ZM428.208 28.8202L424.054 13.0822L419.9 28.8202H428.208ZM479.577 11.7602H466.734V45.7532H454.459V11.7602H441.559V1.06016H479.581L479.577 11.7602ZM515.9 35.0522V45.7522H484.046V1.05816H515.332V11.7582H496.321V18.0582H512.562V28.0002H496.321V35.0502L515.9 35.0522ZM540.26 46.0682C537.364 46.0682 534.605 45.5542 531.982 44.5262C529.359 43.4982 527.041 41.9875 525.026 39.9942C523.009 37.9982 521.425 35.5848 520.274 32.7542C519.123 29.9235 518.546 26.6815 518.543 23.0282C518.543 19.8808 519.131 16.9642 520.306 14.2782C521.481 11.5922 523.108 9.2315 525.185 7.19616C527.262 5.16083 529.686 3.5765 532.456 2.44316C535.226 1.30983 538.226 0.743164 541.456 0.743164C545.485 0.743164 549.136 1.61383 552.409 3.35516C555.682 5.0965 558.116 7.47816 559.709 10.5002L550.581 17.4882C549.7 15.7255 548.378 14.3092 546.615 13.2392C544.852 12.1692 542.986 11.6342 541.015 11.6342C539.548 11.6342 538.205 11.9278 536.986 12.5152C535.767 13.1025 534.707 13.9208 533.807 14.9702C532.905 16.0195 532.213 17.2682 531.73 18.7162C531.247 20.1642 531.006 21.7485 531.006 23.4692C531.006 25.2318 531.258 26.8265 531.761 28.2532C532.264 29.6798 532.967 30.9075 533.87 31.9362C534.772 32.9642 535.853 33.7615 537.112 34.3282C538.371 34.8948 539.777 35.1782 541.33 35.1782C543.303 35.1782 545.191 34.6852 546.996 33.6992C548.801 32.7132 550.437 31.3178 551.906 29.5132V41.4732C548.549 44.5365 544.667 46.0682 540.26 46.0682ZM551.276 30.7682H543.03V21.9582H561.412V45.7582H551.277L551.276 30.7682ZM587.598 46.0682C584.198 46.0682 581.113 45.4282 578.344 44.1482C575.575 42.8682 573.193 41.1475 571.2 38.9862C569.207 36.8248 567.673 34.3915 566.6 31.6862C565.527 28.9808 564.993 26.1788 565 23.2802C565 20.3008 565.567 17.4675 566.7 14.7802C567.833 12.0928 569.418 9.69016 571.453 7.57216C573.488 5.45283 575.901 3.78616 578.692 2.57216C581.483 1.35816 584.536 0.749498 587.851 0.746164C591.251 0.746164 594.336 1.38616 597.105 2.66616C599.874 3.94616 602.245 5.67716 604.218 7.85916C606.191 10.0412 607.712 12.4858 608.782 15.1932C609.852 17.9005 610.387 20.6808 610.387 23.5342C610.387 26.4722 609.831 29.2838 608.719 31.9692C607.607 34.6545 606.034 37.0565 604 39.1752C601.965 41.2945 599.562 42.9732 596.792 44.2112C594.022 45.4492 590.958 46.0682 587.6 46.0682H587.598ZM577.464 23.4062C577.464 24.9168 577.674 26.3752 578.093 27.7812C578.512 29.1872 579.142 30.4462 579.981 31.5582C580.82 32.6702 581.88 33.5515 583.16 34.2022C584.44 34.8528 585.961 35.1782 587.724 35.1782C589.487 35.1782 591.02 34.8425 592.324 34.1712C593.628 33.4998 594.688 32.5872 595.503 31.4332C596.322 30.2792 596.93 28.9992 597.329 27.5932C597.728 26.1872 597.928 24.7498 597.929 23.2812C597.929 21.7705 597.719 20.3225 597.299 18.9372C596.879 17.5518 596.246 16.3032 595.4 15.1912C594.561 14.0792 593.49 13.2085 592.189 12.5792C590.888 11.9498 589.377 11.6352 587.657 11.6352C585.894 11.6352 584.373 11.9708 583.093 12.6422C581.813 13.3135 580.753 14.2052 579.914 15.3172C579.075 16.4292 578.456 17.6882 578.057 19.0942C577.658 20.5002 577.461 21.9375 577.464 23.4062ZM615.612 45.7532V1.05816H636.134C638.316 1.05816 640.33 1.49883 642.177 2.38016C644.024 3.2615 645.618 4.44716 646.961 5.93716C648.304 7.42716 649.342 9.09383 650.077 10.9372C650.812 12.7805 651.178 14.6472 651.177 16.5372C651.177 18.2578 650.925 19.9155 650.422 21.5102C649.919 23.1048 649.185 24.5632 648.222 25.8852C647.257 27.2072 646.103 28.3508 644.76 29.3162L654.203 45.7462H640.729L632.86 32.0302H627.887V45.7532H615.612ZM627.887 21.3282H635.63C636.133 21.3282 636.616 21.1392 637.078 20.7612C637.54 20.3832 637.928 19.8375 638.243 19.1242C638.558 18.4108 638.715 17.5505 638.715 16.5432C638.715 15.4938 638.537 14.6232 638.18 13.9312C637.823 13.2392 637.383 12.7042 636.858 12.3262C636.333 11.9482 635.819 11.7592 635.316 11.7592H627.888L627.887 21.3282ZM658.1 45.7532V1.05816H670.375V45.7532H658.1ZM709.908 35.0532V45.7532H678.059V1.05816H709.345V11.7582H690.334V18.0582H706.575V28.0002H690.334V35.0502L709.908 35.0532ZM742.708 15.7272C742.708 15.7272 742.351 15.5172 741.638 15.0972C740.925 14.6772 739.98 14.2052 738.805 13.6812C737.63 13.1572 736.35 12.6852 734.965 12.2652C733.58 11.8452 732.216 11.6352 730.873 11.6352C729.824 11.6352 728.963 11.8018 728.292 12.1352C727.621 12.4685 727.285 13.0298 727.285 13.8192C727.285 14.5672 727.621 15.1702 728.292 15.6282C728.963 16.0862 729.918 16.5022 731.156 16.8762C732.394 17.2502 733.873 17.7078 735.594 18.2492C738.364 19.0805 740.756 20.0368 742.77 21.1182C744.784 22.1995 746.337 23.5822 747.428 25.2662C748.519 26.9502 749.065 29.1855 749.065 31.9722C749.065 34.6335 748.582 36.8688 747.617 38.6782C746.652 40.4875 745.352 41.9325 743.717 43.0132C742.08 44.0945 740.255 44.8742 738.24 45.3522C736.225 45.8302 734.169 46.0695 732.071 46.0702C729.93 46.0702 727.697 45.8498 725.371 45.4092C723.045 44.9685 720.788 44.3595 718.6 43.5822C716.418 42.8055 714.425 41.8928 712.62 40.8442L717.908 30.0792C717.908 30.0792 718.328 30.3308 719.167 30.8342C720.006 31.3375 721.118 31.9042 722.503 32.5342C723.888 33.1642 725.43 33.7308 727.13 34.2342C728.829 34.7375 730.539 34.9892 732.26 34.9892C733.603 34.9892 734.536 34.8192 735.06 34.4792C735.584 34.1392 735.846 33.6888 735.847 33.1282C735.847 32.2528 735.385 31.5755 734.462 31.0962C733.539 30.6168 732.332 30.1585 730.842 29.7212C729.352 29.2838 727.705 28.7735 725.9 28.1902C723.3 27.3148 721.16 26.3252 719.479 25.2212C717.798 24.1172 716.56 22.8045 715.765 21.2832C714.965 19.7618 714.565 17.9175 714.565 15.7502C714.565 12.4575 715.341 9.70683 716.894 7.49816C718.447 5.2895 720.493 3.61183 723.032 2.46516C725.571 1.31916 728.309 0.746164 731.247 0.746164C733.429 0.746164 735.538 1.0085 737.574 1.53316C739.61 2.05783 741.52 2.69783 743.303 3.45316C745.086 4.2085 746.65 4.92183 747.993 5.59316L742.708 15.7272Z" fill="#2F455C"/>
</svg>
