<svg width="26" height="21" viewBox="0 0 26 21" fill="none" xmlns="http://www.w3.org/2000/svg">
<path d="M25.364 2.47974C24.4427 2.88986 23.4652 3.15953 22.464 3.27974C23.5178 2.64832 24.3066 1.65587 24.684 0.486738C23.6914 1.07418 22.6063 1.48875 21.475 1.71274C20.7138 0.903908 19.7074 0.368283 18.6114 0.188638C17.5153 0.00899293 16.3906 0.195326 15.4111 0.718847C14.4315 1.24237 13.6516 2.07393 13.192 3.08502C12.7323 4.09612 12.6184 5.23046 12.868 6.31274C10.8598 6.21212 8.89525 5.69032 7.10183 4.78121C5.30841 3.8721 3.72622 2.59599 2.45797 1.03574C1.81241 2.14776 1.6147 3.46394 1.90505 4.71655C2.1954 5.96916 2.95201 7.06413 4.02097 7.77874C3.21876 7.7522 2.43443 7.53486 1.73297 7.14474V7.20774C1.73345 8.37385 2.13701 9.50394 2.87528 10.4066C3.61354 11.3092 4.64113 11.9289 5.78397 12.1607C5.35 12.278 4.90248 12.3375 4.45297 12.3377C4.13364 12.3378 3.8151 12.3063 3.50197 12.2437C3.82421 13.2473 4.45218 14.1251 5.29798 14.7541C6.14379 15.3831 7.16509 15.7319 8.21897 15.7517C6.42943 17.1548 4.21998 17.9153 1.94597 17.9107C1.54332 17.9104 1.14102 17.8873 0.740967 17.8417C3.0495 19.3277 5.73753 20.1165 8.48297 20.1137C10.3737 20.1269 12.2483 19.7642 13.9977 19.0467C15.7471 18.3292 17.3364 17.2712 18.6734 15.9342C20.0104 14.5972 21.0684 13.0078 21.7859 11.2584C22.5034 9.50904 22.8661 7.63451 22.853 5.74374L22.836 5.08974C23.8297 4.37995 24.6863 3.4956 25.364 2.47974Z" fill="#102F35"/>
</svg>
