<svg width="26" height="21" viewBox="0 0 26 21" fill="none" xmlns="http://www.w3.org/2000/svg">
<path d="M25.364 2.97608C24.4427 3.3862 23.4652 3.65587 22.464 3.77607C23.5178 3.14466 24.3066 2.15221 24.684 0.983076C23.6914 1.57052 22.6063 1.98509 21.475 2.20908C20.7138 1.40025 19.7074 0.864621 18.6114 0.684976C17.5153 0.505331 16.3906 0.691664 15.4111 1.21518C14.4315 1.73871 13.6516 2.57027 13.192 3.58136C12.7323 4.59245 12.6184 5.72679 12.868 6.80908C10.8598 6.70846 8.89525 6.18666 7.10183 5.27755C5.30841 4.36843 3.72622 3.09233 2.45797 1.53208C1.81241 2.6441 1.6147 3.96028 1.90505 5.21289C2.1954 6.4655 2.95201 7.56047 4.02097 8.27508C3.21876 8.24854 2.43443 8.0312 1.73297 7.64108V7.70408C1.73345 8.87019 2.13701 10.0003 2.87528 10.9029C3.61354 11.8056 4.64113 12.4253 5.78397 12.6571C5.35 12.7743 4.90248 12.8338 4.45297 12.8341C4.13364 12.8341 3.8151 12.8027 3.50197 12.7401C3.82421 13.7437 4.45218 14.6214 5.29798 15.2504C6.14379 15.8794 7.16509 16.2283 8.21897 16.2481C6.42943 17.6512 4.21998 18.4116 1.94597 18.4071C1.54332 18.4067 1.14102 18.3837 0.740967 18.3381C3.0495 19.824 5.73753 20.6129 8.48297 20.6101C10.3737 20.6232 12.2483 20.2605 13.9977 19.543C15.7471 18.8255 17.3364 17.7676 18.6734 16.4305C20.0104 15.0935 21.0684 13.5042 21.7859 11.7548C22.5034 10.0054 22.8661 8.13084 22.853 6.24008L22.836 5.58608C23.8297 4.87629 24.6863 3.99194 25.364 2.97608Z" fill="#102F35"/>
</svg>
